<svg id="_0361_factory_worker" xmlns="http://www.w3.org/2000/svg" xmlns:xlink="http://www.w3.org/1999/xlink" viewBox="0 0 500 500" data-imageid="factory-worker-96" imageName="Factory Worker" class="illustrations_image" style="width: 167px;"><defs><style>.cls-1_factory-worker-96{fill:url(#linear-gradient);}.cls-1_factory-worker-96,.cls-2_factory-worker-96,.cls-3_factory-worker-96,.cls-4_factory-worker-96,.cls-5_factory-worker-96,.cls-6_factory-worker-96,.cls-7_factory-worker-96,.cls-8_factory-worker-96,.cls-9_factory-worker-96,.cls-10_factory-worker-96,.cls-11_factory-worker-96,.cls-12_factory-worker-96,.cls-13_factory-worker-96,.cls-14_factory-worker-96,.cls-15_factory-worker-96,.cls-16_factory-worker-96,.cls-17_factory-worker-96,.cls-18_factory-worker-96,.cls-19_factory-worker-96,.cls-20_factory-worker-96,.cls-21_factory-worker-96,.cls-22_factory-worker-96,.cls-23_factory-worker-96,.cls-24_factory-worker-96,.cls-25_factory-worker-96,.cls-26_factory-worker-96,.cls-27_factory-worker-96,.cls-28_factory-worker-96,.cls-29_factory-worker-96,.cls-30_factory-worker-96,.cls-31_factory-worker-96,.cls-32_factory-worker-96{stroke-width:0px;}.cls-2_factory-worker-96{opacity:.18;}.cls-2_factory-worker-96,.cls-19_factory-worker-96,.cls-20_factory-worker-96{isolation:isolate;}.cls-2_factory-worker-96,.cls-19_factory-worker-96,.cls-20_factory-worker-96,.cls-32_factory-worker-96{fill:#68e1fd;}.cls-3_factory-worker-96{fill:url(#linear-gradient-25-factory-worker-96);}.cls-4_factory-worker-96{fill:url(#linear-gradient-11-factory-worker-96);}.cls-5_factory-worker-96{fill:url(#linear-gradient-12-factory-worker-96);}.cls-6_factory-worker-96{fill:url(#linear-gradient-13-factory-worker-96);}.cls-7_factory-worker-96{fill:url(#linear-gradient-10-factory-worker-96);}.cls-8_factory-worker-96{fill:url(#linear-gradient-17-factory-worker-96);}.cls-9_factory-worker-96{fill:url(#linear-gradient-16-factory-worker-96);}.cls-10_factory-worker-96{fill:url(#linear-gradient-19-factory-worker-96);}.cls-11_factory-worker-96{fill:url(#linear-gradient-15-factory-worker-96);}.cls-12_factory-worker-96{fill:url(#linear-gradient-23-factory-worker-96);}.cls-13_factory-worker-96{fill:url(#linear-gradient-21-factory-worker-96);}.cls-14_factory-worker-96{fill:url(#linear-gradient-18-factory-worker-96);}.cls-15_factory-worker-96{fill:url(#linear-gradient-14-factory-worker-96);}.cls-16_factory-worker-96{fill:url(#linear-gradient-22-factory-worker-96);}.cls-17_factory-worker-96{fill:url(#linear-gradient-20-factory-worker-96);}.cls-18_factory-worker-96{fill:url(#linear-gradient-24-factory-worker-96);}.cls-19_factory-worker-96{opacity:.66;}.cls-20_factory-worker-96{opacity:.41;}.cls-21_factory-worker-96{fill:url(#linear-gradient-4-factory-worker-96);}.cls-22_factory-worker-96{fill:url(#linear-gradient-2-factory-worker-96);}.cls-23_factory-worker-96{fill:url(#linear-gradient-3-factory-worker-96);}.cls-24_factory-worker-96{fill:url(#linear-gradient-8-factory-worker-96);}.cls-25_factory-worker-96{fill:url(#linear-gradient-9-factory-worker-96);}.cls-26_factory-worker-96{fill:url(#linear-gradient-7-factory-worker-96);}.cls-27_factory-worker-96{fill:url(#linear-gradient-5-factory-worker-96);}.cls-28_factory-worker-96{fill:url(#linear-gradient-6-factory-worker-96);}.cls-29_factory-worker-96{fill:#3f3d56;}.cls-30_factory-worker-96{fill:#c14834;}.cls-31_factory-worker-96{fill:#ffb4a3;}</style><linearGradient id="linear-gradient-factory-worker-96" x1="355.58" y1="268.55" x2="437.67" y2="315.79" gradientUnits="userSpaceOnUse"><stop offset="0" stop-color="#fff" stop-opacity="0"/><stop offset="1" stop-color="#fff"/></linearGradient><linearGradient id="linear-gradient-2-factory-worker-96" x1="382.26" y1="229.78" x2="398.88" y2="331.75" xlink:href="#linear-gradient-factory-worker-96"/><linearGradient id="linear-gradient-3-factory-worker-96" x1="6422.05" y1="2964.57" x2="6422.05" y2="3022.04" gradientTransform="translate(6803.08 3353.72) rotate(-180)" gradientUnits="userSpaceOnUse"><stop offset="0" stop-color="#231f20" stop-opacity="0"/><stop offset="1" stop-color="#231f20"/></linearGradient><linearGradient id="linear-gradient-4-factory-worker-96" x1="6402.85" y1="3068.58" x2="6432.48" y2="3068.58" xlink:href="#linear-gradient-3-factory-worker-96"/><linearGradient id="linear-gradient-5-factory-worker-96" x1="868.85" y1="3134.48" x2="868.32" y2="3109.62" gradientTransform="translate(-480.34 3353.72) scale(1 -1)" xlink:href="#linear-gradient-3-factory-worker-96"/><linearGradient id="linear-gradient-6-factory-worker-96" x1="391.45" y1="228.28" x2="408.07" y2="330.26" xlink:href="#linear-gradient-factory-worker-96"/><linearGradient id="linear-gradient-7-factory-worker-96" x1="377" y1="232.84" x2="413.27" y2="188.75" gradientTransform="matrix(1,0,0,1,0,0)" xlink:href="#linear-gradient-3-factory-worker-96"/><linearGradient id="linear-gradient-8-factory-worker-96" x1="153.62" y1="255.46" x2="148.41" y2="291.52" xlink:href="#linear-gradient-factory-worker-96"/><linearGradient id="linear-gradient-9-factory-worker-96" x1="119.04" y1="246.66" x2="127.51" y2="292.27" xlink:href="#linear-gradient-factory-worker-96"/><linearGradient id="linear-gradient-10-factory-worker-96" x1="610.64" y1="2964.75" x2="610.64" y2="3022.22" gradientTransform="translate(-480.34 3353.72) scale(1 -1)" xlink:href="#linear-gradient-3-factory-worker-96"/><linearGradient id="linear-gradient-11-factory-worker-96" x1="591.49" y1="3068.85" x2="621.1" y2="3068.85" gradientTransform="translate(-480.34 3353.72) scale(1 -1)" xlink:href="#linear-gradient-3-factory-worker-96"/><linearGradient id="linear-gradient-12-factory-worker-96" x1="125.06" y1="227.33" x2="124.41" y2="242.48" gradientTransform="matrix(1,0,0,1,0,0)" xlink:href="#linear-gradient-3-factory-worker-96"/><linearGradient id="linear-gradient-13-factory-worker-96" x1="93.95" y1="274.51" x2="128.05" y2="283.63" xlink:href="#linear-gradient-factory-worker-96"/><linearGradient id="linear-gradient-14-factory-worker-96" x1="6472.96" y1="3030.89" x2="6473.32" y2="3068.97" gradientTransform="translate(6803.07 3353.72) rotate(-180)" xlink:href="#linear-gradient-3-factory-worker-96"/><linearGradient id="linear-gradient-15-factory-worker-96" x1="248.21" y1="286.22" x2="259.29" y2="455.63" gradientTransform="matrix(1,0,0,1,0,0)" xlink:href="#linear-gradient-3-factory-worker-96"/><linearGradient id="linear-gradient-16-factory-worker-96" x1="242.04" y1="201.56" x2="277.22" y2="641.38" gradientTransform="matrix(1,0,0,1,0,0)" xlink:href="#linear-gradient-3-factory-worker-96"/><linearGradient id="linear-gradient-17-factory-worker-96" x1="728.96" y1="3217.7" x2="712.57" y2="3083.37" gradientTransform="translate(-471 3365.8) scale(1 -1)" xlink:href="#linear-gradient-3-factory-worker-96"/><linearGradient id="linear-gradient-18-factory-worker-96" x1="189.64" y1="165.77" x2="420.95" y2="159.9" gradientTransform="matrix(1,0,0,1,0,0)" xlink:href="#linear-gradient-3-factory-worker-96"/><linearGradient id="linear-gradient-19-factory-worker-96" x1="341" y1="68.99" x2="-70.15" y2="249.48" gradientTransform="matrix(1,0,0,1,0,0)" xlink:href="#linear-gradient-3-factory-worker-96"/><linearGradient id="linear-gradient-20-factory-worker-96" x1="187.31" y1="73.94" x2="418.62" y2="68.08" gradientTransform="matrix(1,0,0,1,0,0)" xlink:href="#linear-gradient-3-factory-worker-96"/><linearGradient id="linear-gradient-21-factory-worker-96" x1="178.83" y1="260.14" x2="186.33" y2="380.36" gradientTransform="matrix(1,0,0,1,0,0)" xlink:href="#linear-gradient-3-factory-worker-96"/><linearGradient id="linear-gradient-22-factory-worker-96" x1="326.74" y1="250.92" x2="334.23" y2="371.14" gradientTransform="matrix(1,0,0,1,0,0)" xlink:href="#linear-gradient-3-factory-worker-96"/><linearGradient id="linear-gradient-23-factory-worker-96" x1="723.32" y1="3216.89" x2="720.15" y2="3023.32" gradientTransform="translate(-471 3365.8) scale(1 -1)" xlink:href="#linear-gradient-3-factory-worker-96"/><linearGradient id="linear-gradient-24-factory-worker-96" x1="723.32" y1="3146.02" x2="720.15" y2="2952.45" gradientTransform="translate(-471 3365.8) scale(1 -1)" xlink:href="#linear-gradient-3-factory-worker-96"/><linearGradient id="linear-gradient-25-factory-worker-96" x1="722.43" y1="3037.07" x2="720.89" y2="2943.32" gradientTransform="translate(-471 3365.8) scale(1 -1)" xlink:href="#linear-gradient-3-factory-worker-96"/></defs><g id="background_factory-worker-96"><path class="cls-2_factory-worker-96 targetColor" d="M461.63,393.27c-2.02,2.7-4.16,5.32-6.47,7.86-28.16,31.06-72.54,41.64-114.41,43.86-41.87,2.22-84.3-2.37-125.48,5.55-14.16,2.73-28.07,6.91-42.4,8.68-24.77,3.05-49.97-1.19-73.85-8.55-18.61-5.69-37.55-13.86-49.35-29.34-6.63-8.68-12.27-18.08-16.81-28.02-24.04-52.74-14.41-114.43,5.9-168.15,12.79-33.81,28.14-67.07,50.53-95.43,22.39-28.37,52.44-51.73,87.35-61.07,14.72-3.94,30-5.35,45.33-5.83,7.97-.27,15.98-.3,23.93-.31,10.15,0,20.35,0,30.5.45,13.58.44,27.07,2.36,40.24,5.71,22.44,6.07,42.89,17.85,62.4,30.49,44.37,28.73,87.63,65.66,102.85,116.27,6.01,19.98,7.28,41.07,7.53,61.95.49,40.43-3.96,83.9-27.8,115.89Z" style="fill: rgb(255, 196, 82);"/><path class="cls-20_factory-worker-96 targetColor" d="M461.77,393.2c-2.02,2.72-4.17,5.34-6.46,7.87-28.16,31.06-72.55,41.63-114.42,43.86-41.87,2.23-84.3-2.37-125.48,5.55-14.15,2.73-28.07,6.9-42.39,8.66-24.77,3.06-49.97-1.19-73.85-8.53-18.62-5.69-37.56-13.87-49.36-29.34-6.63-8.69-12.27-18.09-16.8-28.03l428.75-.04Z" style="fill: rgb(255, 196, 82);"/><path class="cls-19_factory-worker-96 targetColor" d="M108.31,394.5s-13.22,4.48-10.83,6.85-29.35,0-28.55,4.74,364.92,0,364.92,0c0,0,9.78-2.37-2.9-5.19-7.19-1.63-14.51-2.66-21.87-3.11l-6.02-3.11-294.73-.19Z" style="fill: rgb(255, 196, 82);"/></g><g id="character_2_factory-worker-96"><path class="cls-29_factory-worker-96" d="M405.81,300.01s.96,7.49-.88,37.93c-1.72,28.33-2.2,48.16-2.2,48.16,0,0-.19,2.37-5.06,2.37s-6.18-3.15-6.18-3.15l-4.74-72.64-19.95,74.11s-5.86,3.37-10.42.84c-3.25-1.8,15.08-87.71,15.08-87.71,10.87,5.14,23.46,5.17,34.35.09Z"/><path class="cls-32_factory-worker-96 targetColor" d="M369.1,245.69c-.14.63-.28,1.26-.41,1.88-1.41,6.27-4.3,28.8-7.24,31.57s-8.95,8.62-11.15,12.16c-.76,1.19,3.31,10.98,9.13,6.74,3.27-2.37,12.47-12.46,13.04-14.01.69-2.08.92-4.29.68-6.47l-4.03-31.87Z" style="fill: rgb(255, 196, 82);"/><path class="cls-1_factory-worker-96" d="M369.1,245.69c-.14.63-.28,1.26-.41,1.88-1.41,6.27-4.3,28.8-7.24,31.57s-8.95,8.62-11.15,12.16c-.76,1.19,3.31,10.98,9.13,6.74,3.27-2.37,12.47-12.46,13.04-14.01.69-2.08.92-4.29.68-6.47l-4.03-31.87Z"/><path class="cls-32_factory-worker-96 targetColor" d="M394.06,239.14s12.97,6.26,13.26,8.3-1.47,52.55-1.47,52.55c0,0-4.21,5.46-17.1,5.46s-17.41-3.69-17.2-5.54c.72-6.39-2.69-52.1-2.37-54.24s12.26-6.53,12.26-6.53h12.62Z" style="fill: rgb(255, 196, 82);"/><path class="cls-22_factory-worker-96" d="M394.06,239.14s12.97,6.26,13.26,8.3-1.47,52.55-1.47,52.55c0,0-4.21,5.46-17.1,5.46s-17.41-3.69-17.2-5.54c.72-6.39-2.69-52.1-2.37-54.24s12.26-6.53,12.26-6.53h12.62Z"/><path class="cls-29_factory-worker-96" d="M402.64,243.83l-6.65,24.2-4.41-1.41,6.44-24.31c.31-1.19.71-1.47,1.75-.85,0,0,3.07,1.59,2.87,2.37Z"/><path class="cls-29_factory-worker-96" d="M379.59,239.43l-3.92,25.6-4.42-.25,3.63-23.33c.23-1.11,4.84-2.81,4.72-2.03Z"/><path class="cls-29_factory-worker-96" d="M396.69,273.5l-.52-7.05s-9.22-2.12-14.46-2.6c-3.52-.26-7.06.08-10.47,1.02l-.64,37.23s1.19,3.35,6.18,4.23,23.45-1.77,23.45-1.77l-3.53-31.07Z"/><path class="cls-29_factory-worker-96" d="M405.81,300.01s.96,7.49-.88,37.93c-1.72,28.33-2.2,48.16-2.2,48.16,0,0-.19,2.37-5.06,2.37s-6.18-3.15-6.18-3.15l-4.74-72.64-19.95,74.11s-5.86,3.37-10.42.84c-3.25-1.8,15.08-87.71,15.08-87.71,10.87,5.14,23.46,5.17,34.35.09Z"/><path class="cls-23_factory-worker-96" d="M405.81,300.01s.96,7.49-.88,37.93c-1.72,28.33-2.2,48.16-2.2,48.16,0,0-.19,2.37-5.06,2.37s-6.18-3.15-6.18-3.15l-4.74-72.64-19.95,74.11s-5.86,3.37-10.42.84c-3.25-1.8,15.08-87.71,15.08-87.71,10.87,5.14,23.46,5.17,34.35.09Z"/><path class="cls-29_factory-worker-96" d="M396.69,273.5l-.52-7.05s-9.22-2.12-14.46-2.6c-3.52-.26-7.06.08-10.47,1.02l-.64,37.23s1.19,3.35,6.18,4.23,23.45-1.77,23.45-1.77l-3.53-31.07Z"/><path class="cls-21_factory-worker-96" d="M396.69,273.5l-.52-7.05s-9.22-2.12-14.46-2.6c-3.52-.26-7.06.08-10.47,1.02l-.64,37.23s1.19,3.35,6.18,4.23,23.45-1.77,23.45-1.77l-3.53-31.07Z"/><path class="cls-31_factory-worker-96" d="M393.98,231.29s.09,4.53,0,7.85c0,2.47-.89,7.21-6.14,7.21s-5.69-5.61-5.59-6.78c.06-.84,1.42-3.21,1.75-5.93.4-2.87,9.68-4.35,9.98-2.35Z"/><path class="cls-27_factory-worker-96" d="M383.55,240.68c.95,1.23,2.54,1.76,4.04,1.36,1.47-.44,2.71-1.43,3.47-2.75.74-1.32,1.26-2.75,1.54-4.24.38-1.63.65-3.28.83-4.94,0,.18-3.32,1.4-3.73,1.62-1.23.68-2.4,1.48-3.5,2.37-1.13.77-2.13,1.72-2.93,2.83-.52,1.22-.42,2.62.27,3.75Z"/><path class="cls-32_factory-worker-96 targetColor" d="M404.04,246.76c.67-.71,1.74-.86,2.57-.34.89.62,1.74,1.31,2.54,2.05,2.12,4.15,2.64,8.9,3.14,13.55l1.05,10.06c.44,4.17.88,8.44-.12,12.52-.85,2.95-2.07,5.78-3.63,8.43-2.81,5.26-5.63,10.55-8.89,15.55-.66,1.19-1.59,2.21-2.73,2.96-2,1.19-4.5.56-6.73,0-.84-.23-1.84-.6-2.02-1.47-.04-.5.07-1.01.33-1.45l12.26-26.75c.41-.78.7-1.62.88-2.49.11-1,.06-2.02-.14-3.01-.7-4.69-1.19-9.4-1.45-14.13-.3-2.74-.02-5.52.81-8.16.68-1.83.73-6.01,2.12-7.33Z" style="fill: rgb(255, 196, 82);"/><path class="cls-28_factory-worker-96" d="M404.04,246.76c.67-.71,1.74-.86,2.57-.34.89.62,1.74,1.31,2.54,2.05,2.12,4.15,2.64,8.9,3.14,13.55l1.05,10.06c.44,4.17.88,8.44-.12,12.52-.85,2.95-2.07,5.78-3.63,8.43-2.81,5.26-5.63,10.55-8.89,15.55-.66,1.19-1.59,2.21-2.73,2.96-2,1.19-4.5.56-6.73,0-.84-.23-1.84-.6-2.02-1.47-.04-.5.07-1.01.33-1.45l12.26-26.75c.41-.78.7-1.62.88-2.49.11-1,.06-2.02-.14-3.01-.7-4.69-1.19-9.4-1.45-14.13-.3-2.74-.02-5.52.81-8.16.68-1.83.73-6.01,2.12-7.33Z"/><path class="cls-31_factory-worker-96" d="M345.75,295.3c-2.15.91-4.6,1.51-6.08,3.3-.58.54-.73,1.4-.37,2.11.37.36.87.57,1.39.58,2.68.4,5.37.81,8.08.97,1.2.15,2.41.02,3.56-.37.92-.44,1.75-1.04,2.45-1.77.92-.78,1.72-1.7,2.37-2.71.66-1.03.86-2.29.56-3.47-.62-2.02-3.66-3.73-5.7-2.93-.89.36-1.49,1.33-2.22,1.93-1.22.99-2.58,1.78-4.04,2.36Z"/><path class="cls-31_factory-worker-96" d="M385.44,308.39c-.97.72-1.99,1.81-1.61,2.96s1.74,1.42,2.9,1.56c3.26.39,6.86.7,9.55-1.19.33-.21.62-.47.85-.78.47-.77.63-1.7.46-2.58-.12-1.07-.53-2.09-1.19-2.95-2.55-3.2-8.52,1.11-10.98,2.98Z"/><path class="cls-29_factory-worker-96" d="M403.05,394.68c.22,1.16-.24,2.35-1.19,3.06-.64.3-1.36.42-2.06.34l-10.23-.14c-.41.02-.82-.06-1.19-.24-.77-.47-.69-1.64-.38-2.49.35-.97.86-1.87,1.52-2.67.95-1.19,2.2-2.13,2.69-3.56.14-.82.4-1.62.77-2.37.86-.87,2.11-1.24,3.31-.97,2.02.23,3.88.57,4.74,2.37,1.01,2.1,1.69,4.35,2.02,6.66Z"/><path class="cls-29_factory-worker-96" d="M363.73,387.03s-.18,9.16-1.41,9.7-21.34.52-21.34.52c0,0-1.19-2.29,1.94-3.56s12.52-2.47,14.98-6c2.47-3.53,5.82-.66,5.82-.66Z"/><path class="cls-31_factory-worker-96" d="M380.25,233.16c.87,2.06,2.37,4.18,4.54,4.55,1.78.12,3.54-.47,4.88-1.65,2.26-1.55,3.97-3.77,4.88-6.35.38-1.41.58-2.86.59-4.31.2-2.21,0-4.44-.57-6.59-.6-2.17-2.14-3.95-4.21-4.85-.87-.28-1.78-.44-2.69-.47-1.41-.14-2.82-.06-4.21.23-1.69.41-3.22,1.32-4.39,2.61-1.46,1.58-1.3,2.54-1.19,4.54.09,4.2.89,8.36,2.35,12.3Z"/><path class="cls-30_factory-worker-96" d="M397.62,222.73c-.2.98-.5,1.96-.72,2.94-.16.73-.28,1.48-.34,2.23-.13,1.37-.1,2.75.08,4.11-.55-.41-1.03-.9-1.43-1.45-.31.63-.68,1.24-1.1,1.8-.15-1.64-.31-3.26-.47-4.9-.02-.09-.02-.19,0-.28,0-.15.17-.24.28-.34.03-.02.06-.05.08-.08.84-.85,1.03-2.15.46-3.2-.36.04-.69.23-.92.51-.39.45-.63,1.01-.71,1.6,0,.21-.07.41-.18.58-.15.15-.39.15-.54,0,0,0,0,0,0,0-.04-.09-.07-.19-.07-.28.08-1.64-.25-3.27-.96-4.74-3.61.62-7.31.37-10.81-.72-.78-.25-3.08-.41-3.66-.98-2.11-2.05-.64-3.73,0-5.93l.07-.2h0c.89-2.37,5.03-4.74,7.3-5.22,2.2-.4,4.47.06,6.34,1.28l.18-1.01c1.27.49,2.25,1.53,2.66,2.82.02.13.09.25.19.33.09.05.19.07.3.07.96.11,1.84.6,2.43,1.37.56.77.96,1.65,1.19,2.57.7,2.31.83,4.75.38,7.11Z"/><path class="cls-26_factory-worker-96" d="M397.62,222.73c-.2.98-.5,1.96-.72,2.94-.16.73-.28,1.48-.34,2.23l-.3-.38c-.46,1.31-.99,2.59-1.6,3.84,0-.62-.31-2.47-.64-4.6.84-.85,1.03-2.15.46-3.2-.36.04-.69.23-.92.51v-.26c-.53-3.01,1.8-5.67-6.2-5.24-2.02,0-4.03-.35-5.93-1.04-.77-.25-3.07-.4-3.65-.97-.92-.75-1.3-1.97-.98-3.11h0c.89-2.37,5.03-4.74,7.3-5.22,2.2-.4,4.47.06,6.34,1.28l.18-1.01c1.27.49,2.25,1.53,2.66,2.82.02.13.09.25.19.33.09.05.19.07.3.07.96.11,1.84.6,2.43,1.37.56.77.96,1.65,1.19,2.57.65,2.3.73,4.72.25,7.05Z"/></g><g id="character_1_factory-worker-96"><path class="cls-29_factory-worker-96" d="M105.55,299.84s-.96,7.48.88,37.93c1.72,28.28,2.2,48.17,2.2,48.17,0,0,.19,2.37,5.07,2.37s6.16-3.15,6.16-3.15l4.74-72.64,19.88,74.13s5.86,3.37,10.43.84c3.24-1.79-15.09-87.71-15.09-87.71-10.85,5.1-23.41,5.12-34.28.06Z"/><path class="cls-32_factory-worker-96 targetColor" d="M142.26,245.52l.43,1.88c1.41,6.27,4.29,28.8,7.24,31.57,2.95,2.76,8.94,8.62,11.14,12.16.77,1.19-3.3,10.98-9.12,6.74-3.28-2.37-12.48-12.46-13.04-14.01-.69-2.08-.92-4.29-.68-6.47l4.02-31.87Z" style="fill: rgb(255, 196, 82);"/><path class="cls-24_factory-worker-96" d="M142.26,245.52l.43,1.88c1.41,6.27,4.29,28.8,7.24,31.57,2.95,2.76,8.94,8.62,11.14,12.16.77,1.19-3.3,10.98-9.12,6.74-3.28-2.37-12.48-12.46-13.04-14.01-.69-2.08-.92-4.29-.68-6.47l4.02-31.87Z"/><path class="cls-32_factory-worker-96 targetColor" d="M117.34,238.96s-12.97,6.26-13.26,8.3,1.47,52.56,1.47,52.56c0,0,4.21,5.52,17.07,5.52s17.41-3.69,17.2-5.54c-.72-6.39,2.7-52.08,2.37-54.24s-12.19-6.6-12.19-6.6h-12.66Z" style="fill: rgb(255, 196, 82);"/><path class="cls-25_factory-worker-96" d="M117.34,238.96s-12.97,6.26-13.26,8.3,1.47,52.56,1.47,52.56c0,0,4.21,5.52,17.07,5.52s17.41-3.69,17.2-5.54c-.72-6.39,2.7-52.08,2.37-54.24s-12.19-6.6-12.19-6.6h-12.66Z"/><path class="cls-29_factory-worker-96" d="M109.02,243.54l6.35,24.32,4.41-1.41-6.45-24.31c-.26-.97-1.25-1.55-2.22-1.29-.16.04-.31.1-.45.19l-.81.47c-.7.41-1.05,1.24-.84,2.03Z"/><path class="cls-29_factory-worker-96" d="M131.98,240.74l3.67,24.17,4.42-.26-3.79-24.17c-.19-1.12-1.25-1.88-2.37-1.69-.04,0-.08.01-.11.02l-.83.25c-.71.23-1.13.95-.98,1.68Z"/><path class="cls-29_factory-worker-96" d="M114.67,273.34l.53-7.11s9.16-2.12,14.45-2.64c3.52-.27,7.06.08,10.47,1.02l.64,37.23s-1.19,3.35-6.16,4.23-23.45-1.77-23.45-1.77l3.52-30.96Z"/><path class="cls-29_factory-worker-96" d="M105.55,299.84s-.96,7.48.88,37.93c1.72,28.28,2.2,48.17,2.2,48.17,0,0,.19,2.37,5.07,2.37s6.16-3.15,6.16-3.15l4.74-72.64,19.88,74.13s5.86,3.37,10.43.84c3.24-1.79-15.09-87.71-15.09-87.71-10.85,5.1-23.41,5.12-34.28.06Z"/><path class="cls-7_factory-worker-96" d="M105.55,299.84s-.96,7.48.88,37.93c1.72,28.28,2.2,48.17,2.2,48.17,0,0,.19,2.37,5.07,2.37s6.16-3.15,6.16-3.15l4.74-72.64,19.88,74.13s5.86,3.37,10.43.84c3.24-1.79-15.09-87.71-15.09-87.71-10.85,5.1-23.41,5.12-34.28.06Z"/><path class="cls-29_factory-worker-96" d="M114.67,273.34l.53-7.11s9.16-2.12,14.45-2.64c3.52-.27,7.06.08,10.47,1.02l.64,37.23s-1.19,3.35-6.16,4.23-23.45-1.77-23.45-1.77l3.52-30.96Z"/><path class="cls-4_factory-worker-96" d="M114.67,273.34l.53-7.11s9.16-2.12,14.45-2.64c3.52-.27,7.06.08,10.47,1.02l.64,37.23s-1.19,3.35-6.16,4.23-23.45-1.77-23.45-1.77l3.52-30.96Z"/><path class="cls-30_factory-worker-96" d="M117.39,231.11s-.09,4.53,0,7.85c0,2.47.89,7.21,6.15,7.21s5.93-6.03,5.77-7.21c.15-1.75.15-3.51,0-5.26-.39-2.89-11.63-4.59-11.92-2.58Z"/><path class="cls-30_factory-worker-96" d="M133.29,215.15s-1.32,4.02-.09,5.93c4.52,7.11,1.94,6.37.26,6.52-.21,0,.08,1.36-.52,3.97-.49,2.05.96,6.73-5.37,4.74-1.8-.56-10.59-3.02-11.21-8.46-.78-6.79-4.94-15.41,3.27-18.28,9.87-3.41,13.09-.73,13.67,5.58Z"/><path class="cls-29_factory-worker-96" d="M128.82,205.69s4.52.33,6.06,2.04c1.92,2.12,2.25,4.46.25,6.35-2,1.9-7.23.08-10.88,2.37-3.65,2.29.24,8.06-1.59,9.3s-.73-2.5-3.14-3.45c-2.41-.95-3.4,3.12-.87,6.1s.15,4.91-1.48,5.41-5.63-12.97-5.3-17.95,2.74-4.91,2.74-4.91c0,0,.08-7.68,14.21-5.27Z"/><path class="cls-5_factory-worker-96" d="M129.39,236.77s-6.41-2.37-9.3-3.7c0,0,6.03,5.74,9.15,5.69l.15-1.99Z"/><path class="cls-32_factory-worker-96 targetColor" d="M107.32,246.58c-.66-.71-1.73-.85-2.56-.34-.9.62-1.75,1.3-2.54,2.05-2.13,4.15-2.66,8.9-3.14,13.55l-1.07,10.06c-.44,4.17-.87,8.44.12,12.52.85,2.95,2.07,5.78,3.63,8.43,2.81,5.27,5.63,10.55,8.89,15.55.66,1.19,1.6,2.2,2.73,2.96,2.02,1.19,4.5.56,6.73,0,.84-.23,1.84-.6,2.02-1.46.05-.5-.06-1.01-.32-1.45l-12.22-26.82c-.96-1.67-1.22-3.64-.72-5.5.69-4.74,1.19-9.4,1.43-14.12.3-2.75.03-5.53-.79-8.17-.73-1.77-.78-5.95-2.18-7.27Z" style="fill: rgb(255, 196, 82);"/><path class="cls-6_factory-worker-96" d="M107.32,246.58c-.66-.71-1.73-.85-2.56-.34-.9.62-1.75,1.3-2.54,2.05-2.13,4.15-2.66,8.9-3.14,13.55l-1.07,10.06c-.44,4.17-.87,8.44.12,12.52.85,2.95,2.07,5.78,3.63,8.43,2.81,5.27,5.63,10.55,8.89,15.55.66,1.19,1.6,2.2,2.73,2.96,2.02,1.19,4.5.56,6.73,0,.84-.23,1.84-.6,2.02-1.46.05-.5-.06-1.01-.32-1.45l-12.22-26.82c-.96-1.67-1.22-3.64-.72-5.5.69-4.74,1.19-9.4,1.43-14.12.3-2.75.03-5.53-.79-8.17-.73-1.77-.78-5.95-2.18-7.27Z"/><path class="cls-30_factory-worker-96" d="M165.62,295.13c2.15.9,4.59,1.49,6.08,3.28.49.59.84,1.51.36,2.11-.37.36-.86.57-1.37.58-2.69.4-5.38.81-8.1.97-1.2.15-2.41.02-3.56-.37-.92-.43-1.76-1.03-2.47-1.77-.92-.78-1.72-1.7-2.37-2.71-.65-1.03-.86-2.29-.56-3.47.63-2.02,3.66-3.73,5.7-2.92.89.36,1.51,1.32,2.22,1.92,1.23.99,2.6,1.78,4.07,2.37Z"/><path class="cls-30_factory-worker-96" d="M125.93,308.21c.96.72,1.98,1.81,1.61,2.96s-1.75,1.43-2.92,1.56c-3.26.39-6.85.7-9.55-1.19-.33-.21-.61-.47-.84-.78-.48-.77-.64-1.7-.46-2.58.12-1.07.53-2.09,1.19-2.95,2.54-3.19,8.52,1.15,10.98,2.98Z"/><path class="cls-29_factory-worker-96" d="M108.31,394.5c-.21,1.16.24,2.34,1.19,3.06.65.3,1.36.42,2.07.34l10.22-.14c.41.02.82-.06,1.19-.24.78-.47.7-1.62.38-2.49-.35-.97-.85-1.87-1.51-2.67-.95-1.19-2.22-2.13-2.7-3.56-.13-.82-.39-1.62-.76-2.37-.86-.88-2.12-1.24-3.32-.97-2.02.23-3.86.58-4.74,2.37-1.02,2.1-1.7,4.35-2.02,6.66Z"/><path class="cls-29_factory-worker-96" d="M147.63,386.85s.18,9.16,1.41,9.7,21.34.52,21.34.52c0,0,1.19-2.29-1.94-3.56-3.13-1.27-12.52-2.47-14.98-6s-5.82-.66-5.82-.66Z"/></g><g id="machine_factory-worker-96"><rect class="cls-32_factory-worker-96 targetColor" x="314.18" y="290.77" width="31.47" height="22.75" style="fill: rgb(255, 196, 82);"/><rect class="cls-15_factory-worker-96" x="314.18" y="290.77" width="31.47" height="22.75"/><path class="cls-32_factory-worker-96 targetColor" d="M87.87,312.81h327.14c7.59,0,13.75,6.16,13.75,13.75h0c0,7.59-6.16,13.75-13.75,13.75H87.87c-7.59,0-13.75-6.16-13.75-13.75h0c0-7.59,6.16-13.75,13.75-13.75Z" style="fill: rgb(255, 196, 82);"/><rect class="cls-11_factory-worker-96" x="78.7" y="317.64" width="344.29" height="17.73" rx="8.87" ry="8.87"/><rect class="cls-32_factory-worker-96 targetColor" x="202.19" y="211.79" width="95.99" height="183.25" style="fill: rgb(255, 196, 82);"/><rect class="cls-9_factory-worker-96" x="202.19" y="211.79" width="95.99" height="183.25"/><polygon class="cls-32_factory-worker-96 targetColor" points="202.19 211.79 221.99 192.01 276.5 192.01 298.19 211.79 202.19 211.79" style="fill: rgb(255, 196, 82);"/><polygon class="cls-8_factory-worker-96" points="202.19 211.79 221.99 192.01 276.5 192.01 298.19 211.79 202.19 211.79"/><rect class="cls-32_factory-worker-96 targetColor" x="222.07" y="136.51" width="54.43" height="55.49" style="fill: rgb(255, 196, 82);"/><rect class="cls-14_factory-worker-96" x="222.07" y="136.51" width="54.43" height="55.49"/><rect class="cls-32_factory-worker-96 targetColor" x="222.07" y="81.51" width="54.43" height="55.49" style="fill: rgb(255, 196, 82);"/><rect class="cls-10_factory-worker-96" x="222.07" y="81.51" width="54.43" height="55.49"/><path class="cls-32_factory-worker-96 targetColor" d="M276.5,62.9v19.11h-54.43v-19.26c7.98-.27,15.98-.28,23.94-.3,10.13-.02,20.35-.02,30.49.45Z" style="fill: rgb(255, 196, 82);"/><path class="cls-17_factory-worker-96" d="M276.5,62.9v19.11h-54.43v-19.26c7.98-.27,15.98-.28,23.94-.3,10.13-.02,20.35-.02,30.49.45Z"/><rect class="cls-32_factory-worker-96 targetColor" x="165.71" y="290.59" width="31.47" height="22.75" style="fill: rgb(255, 196, 82);"/><rect class="cls-13_factory-worker-96" x="165.71" y="290.59" width="31.47" height="22.75"/><rect class="cls-32_factory-worker-96 targetColor" x="314.18" y="290.59" width="31.47" height="22.75" style="fill: rgb(255, 196, 82);"/><rect class="cls-16_factory-worker-96" x="314.18" y="290.59" width="31.47" height="22.75"/><rect class="cls-12_factory-worker-96" x="209.86" y="223.43" width="81.44" height="62.93"/><rect class="cls-18_factory-worker-96" x="209.86" y="294.29" width="81.44" height="62.93"/><rect class="cls-3_factory-worker-96" x="209.86" y="365.16" width="81.44" height="29.79"/></g></svg>