<svg version="1.1" id="Layer_1" xmlns="http://www.w3.org/2000/svg" xmlns:xlink="http://www.w3.org/1999/xlink" x="0px" y="0px" viewBox="0 0 500 500" style="width: 166px;" xml:space="preserve" data-imageid="credit-card-2-56" imageName="Credit Card 2" class="illustrations_image">
<style type="text/css">
	.st0_credit-card-2-56{fill:#FEC902;}
	.st1_credit-card-2-56{opacity:0.32;fill:url(#SVGID_1_);enable-background:new    ;}
	.st2_credit-card-2-56{fill:#68E1FD;}
	.st3_credit-card-2-56{opacity:0.19;enable-background:new    ;}
	.st4_credit-card-2-56{fill:#297600;}
	.st5_credit-card-2-56{fill:#5FAD00;}
	.st6_credit-card-2-56{fill:#F04900;}
	.st7_credit-card-2-56{fill:#200904;}
	.st8_credit-card-2-56{fill:#312A87;}
	.st9_credit-card-2-56{opacity:0.46;fill:#200904;enable-background:new    ;}
	.st10_credit-card-2-56{opacity:0.32;fill:url(#SVGID_00000075161330133166351640000003287422171713566128_);enable-background:new    ;}
	.st11_credit-card-2-56{opacity:0.32;fill:url(#SVGID_00000101084354288368538640000001559489699392781753_);enable-background:new    ;}
	.st12_credit-card-2-56{fill:#FFFFFF;}
	.st13_credit-card-2-56{fill:#A07DEF;}
</style>
<path id="field_credit-card-2-56" class="st0_credit-card-2-56" d="M243,411.1L23.3,281.2c-7-3.9-13-10.4-6.2-14.6l220.5-127.1c3.3-2,8.3-3.4,11.7-1.4L479.9,272&#10;&#9;c7,4.1,8.2,15.4,1.2,19.5L272,410.9C263.1,416.1,252,416.1,243,411.1z"/>
<g id="plant_credit-card-2-56">
	
		<linearGradient id="SVGID_1_-credit-card-2-56" gradientUnits="userSpaceOnUse" x1="368.5446" y1="172.1345" x2="419.5246" y2="214.7745" gradientTransform="matrix(1 0 0 -1 0 502)">
		<stop offset="0" style="stop-color:#000000;stop-opacity:0"/>
		<stop offset="0.99" style="stop-color:#297600"/>
	</linearGradient>
	<polyline class="st1_credit-card-2-56" points="455.1,285.2 368,334.6 345,321.8 430.6,274.1 &#9;"/>
	<polyline class="st2_credit-card-2-56 targetColor" points="421.2,260.7 421.2,281.7 455.1,281.7 455.1,260.7 &#9;" style="fill: rgb(255, 246, 222);"/>
	<ellipse class="st2_credit-card-2-56 targetColor" cx="438.1" cy="260.7" rx="17" ry="8.3" style="fill: rgb(255, 246, 222);"/>
	<ellipse class="st3_credit-card-2-56" cx="438.1" cy="260.7" rx="17" ry="8.3"/>
	<ellipse class="st2_credit-card-2-56 targetColor" cx="438.1" cy="282.5" rx="17" ry="8.3" style="fill: rgb(255, 246, 222);"/>
	<path class="st4_credit-card-2-56" d="M457.1,212c-3.6-1.5-8.5-6.3-12.9-6.2c-1.6,4-2.1,8.8-2.6,12.9c-0.8,7.1-1,14.3-0.5,21.5&#10;&#9;&#9;c0.1,1.6,0.2,3.2,0.4,4.8c0,0.5,0.2,0.9,0.4,1.4c0,5.5,0,11.1,0,16.6c0,0.3,0.2,0.5,0.5,0.5c0.3,0,0.5-0.2,0.5-0.5v-16&#10;&#9;&#9;c1.7-0.6,3.3-1.3,4.9-2.2c3.2-2,5.6-5,6.8-8.6c2.7-7.6,1-16.1,3.6-23.7C457.9,212.3,457.5,212.1,457.1,212z"/>
	<path class="st5_credit-card-2-56" d="M449.8,199.5c-2,1.2-3.7,2.9-4.8,4.9c-0.3,0.5-0.6,1-0.8,1.5l-0.1,0.3l0,0c-0.3,0.9-0.6,1.7-0.8,2.6&#10;&#9;&#9;c0.4-0.7,1-1.2,1.8-1.4c0.9-0.4,1.9-0.5,2.8-0.3c0.9,0.3,1.8,0.8,2.6,1.4c1.2,0.7,2.4,1.6,3.6,2.3c5.6,3.6,13.1,3.9,17.4-1.3&#10;&#9;&#9;c0.1-0.2,0.1-0.4,0.1-0.6C472.2,205.5,462.2,192.3,449.8,199.5z"/>
	<path class="st4_credit-card-2-56" d="M469,211.9c0.2-0.2,0.5-0.3,0.7-0.5c0-0.2,0-0.3-0.1-0.4c-3.4-3.5-7-6.9-11.7-8.6c-3.3-1.3-6.9-1.6-10.4-1&#10;&#9;&#9;c-0.4,0.4-0.7,0.9-1.1,1.4c3.8-1.3,8.6-0.5,12,1c4.1,1.8,7.4,4.9,10.4,8C468.9,211.8,468.9,211.8,469,211.9z"/>
	<path class="st4_credit-card-2-56" d="M412.1,219.4c-5,2.6-8,7.9-7.6,13.6c0.4,10,16.9,0.2,21.3-8.2s5.1,3.6,5.1,3.6"/>
	<path class="st5_credit-card-2-56" d="M426.9,216c-3.1-0.1-6.2,0.4-9.1,1.3c-2,0.5-3.9,1.2-5.7,2.2c1,0.7,2.1,1.3,3.3,1.8c2.1,0.8,4.2,1.9,5.3,3.8&#10;&#9;&#9;c0.3,0.5,0.5,1,0.6,1.5c1,3.3,0.1,7.3,1.5,10.6s4.1,6.2,8,6.5c4.6,0.3,6.8-4.2,7.7-8s2.2-9.1,0.7-13.1&#10;&#9;&#9;C437.5,217.8,431.3,216.2,426.9,216z"/>
	<path class="st4_credit-card-2-56" d="M433,231.6c-2-6.3-6.1-12.3-12.1-15.1h-0.2c-0.1,0-0.2,0.1-0.3,0.1c-0.4,0.1-0.7,0.2-1.1,0.3&#10;&#9;&#9;c7,2.6,11.5,9.6,13.3,16.6c2.3,9.1,1.5,18.9,1.5,28.2c0,0.3,0.2,0.5,0.5,0.5s0.5-0.2,0.5-0.5C435.1,251.8,436,241.2,433,231.6z"/>
</g>
<g id="cc_credit-card-2-56">
	<path class="st6_credit-card-2-56" d="M197.5,115.7c0,0,1.5-4.6,1.1-6.3s-1.6-4.7-1.9-5.8s1.6-0.6,2.4,1s0.5,2.8,2,2.3s6.5-2.9,9.5-2.7&#10;&#9;&#9;s1.9,1.5,1.4,2.7s-3.5,2.7-5.1,3.6s-4.5,8.1-4.5,8.1"/>
	<path class="st7_credit-card-2-56" d="M180,252.1c-0.3,1.3,0.1,2.7,0.9,3.8c1.4,1.5,6.9,6.4,7.4,7.4s1.2,3.9,0,4.9s-3.7,1.1-6.6,0&#10;&#9;&#9;s-10.1-5.7-11.4-7.2s0-16.2,0-16.2s7.7-1.9,10.2,0L180,252.1z"/>
	<path class="st7_credit-card-2-56" d="M159.9,262c-0.3,1.3,0.1,2.7,0.9,3.8c1.4,1.5,6.9,6.4,7.4,7.4s1.2,3.9,0,4.9s-3.7,1.1-6.6,0&#10;&#9;&#9;s-10.1-5.7-11.4-7.1s0-16.2,0-16.2s7.7-1.9,10.2,0L159.9,262z"/>
	<path class="st8_credit-card-2-56" d="M181,156.8c0,0,3.9,17.4,4.2,33.6s-1.7,59.8-1.7,59.8s-4.5,4.3-14.4,2.8v-60.5c0,0-3.4,1.3-3.4,3.8&#10;&#9;&#9;s-3.1,64.4-3.1,64.4s-1.8,3.3-14.7-1.7c0,0-1.3-82.1,8.2-98"/>
	<path class="st5_credit-card-2-56" d="M156,161.1c2.3-0.1,8.6,1.5,12.9,1.2c4.2-0.2,8.3-0.9,12.3-2.2c0.2-0.8,0.3-1.6,0.4-2.4&#10;&#9;&#9;c2.9-22.1,2.1-37.7,0-41.2s-14.7-6.3-20.4-4.7s-14.3,8.3-14.3,8.3s2.4,18.8,6.6,32.2C154.7,155.9,154.7,155.9,156,161.1z"/>
	<path class="st5_credit-card-2-56" d="M164,114.3c3.1,0.6,6.9,0.2,8.1-2.2c0.6-1.1,1.2-3.2-0.2-4c-0.9-0.5-10.3-0.6-11.8,0.1c-2.3,1-1.6,3.8,0.2,4.9&#10;&#9;&#9;C161.5,113.7,162.7,114.2,164,114.3z"/>
	<path class="st7_credit-card-2-56" d="M158.2,90.4c1.8-0.3,1.8-3.4,5.1-4.8s7.4,0.6,8.9,1.7s2.6-1.1,4.2,0.6s0.6,4.2,1.5,5.2c0,0,0.1,0.1,0.1,0.1&#10;&#9;&#9;c0.8,1.4,0.9,3.1,0.1,4.6c-0.7,1-1.6,1.9-2.6,2.6l-15.2,7.9c-1.8-1.3-5.4-13.5-5.2-15C155.4,91.8,156.7,90.6,158.2,90.4z"/>
	<path class="st6_credit-card-2-56" d="M174.9,95.1c0.7,0.7-1.6,15.4-6,15.9s-9.7-5.4-10.2-7.1s-0.2-11.1,1.6-12S170.8,90.6,174.9,95.1z"/>
	<path class="st7_credit-card-2-56" d="M172.9,90.8c0,0,0.9,3.4-4.5,4.1s-5.7,1.8-6.3,3.7c-1.2,3.5-4.9,7.6-6.2-3c-0.1-0.5,3.8-7.7,7.9-8.3&#10;&#9;&#9;S172.9,90.8,172.9,90.8z"/>
	<path class="st6_credit-card-2-56" d="M161.6,100.5c0,0-1.7-2.9-3-1.5s-0.4,4.6,1.4,5.6"/>
	<path class="st5_credit-card-2-56" d="M181.7,116.4c2.6,4.6,4.7,9.4,6.3,14.4c0,0,7-16.7,8.3-16.5s6,3.1,6.4,5.1s-6.9,27.7-15.9,30s-14-17.6-14-17.6&#10;&#9;&#9;"/>
	<path class="st2_credit-card-2-56 targetColor" d="M147.8,189.7l66.6-39c4.3-2.5,9.5-2.5,13.8-0.1L346.9,218c4.5,2.5,6,8.2,3.5,12.7c-0.8,1.4-2,2.6-3.5,3.5&#10;&#9;&#9;l-65.1,37.3c-6.3,3.6-14.1,3.6-20.4-0.1l-113.6-66.7c-4.1-2.4-5.5-7.7-3.1-11.9C145.5,191.6,146.5,190.5,147.8,189.7z" style="fill: rgb(255, 246, 222);"/>
	<path class="st9_credit-card-2-56" d="M147.8,189.7l66.6-39c4.3-2.5,9.5-2.5,13.8-0.1L346.9,218c4.5,2.5,6,8.2,3.5,12.7c-0.8,1.4-2,2.6-3.5,3.5&#10;&#9;&#9;l-65.1,37.3c-6.3,3.6-14.1,3.6-20.4-0.1l-113.6-66.7c-4.1-2.4-5.5-7.7-3.1-11.9C145.5,191.6,146.5,190.5,147.8,189.7z"/>
	<path class="st2_credit-card-2-56 targetColor" d="M147.8,184.1l66.6-39c4.3-2.5,9.5-2.5,13.8-0.1l118.7,67.4c4.5,2.5,6,8.2,3.5,12.7c-0.8,1.4-2,2.6-3.5,3.5&#10;&#9;&#9;l-65.1,37.3c-6.3,3.6-14.1,3.6-20.4-0.1L147.8,199c-4.1-2.4-5.5-7.7-3.1-11.9C145.5,185.9,146.5,184.8,147.8,184.1z" style="fill: rgb(255, 246, 222);"/>
	
		<linearGradient id="SVGID_00000126289758226794720330000010874703146761460369_-credit-card-2-56" gradientUnits="userSpaceOnUse" x1="100.963" y1="188.4564" x2="151.933" y2="231.0964" gradientTransform="matrix(1 0 0 -1 0 502)">
		<stop offset="0" style="stop-color:#FEC902;stop-opacity:0"/>
		<stop offset="0.99" style="stop-color:#297600"/>
	</linearGradient>
	
		<polyline style="opacity:0.32;fill:url(#SVGID_00000126289758226794720330000010874703146761460369_);enable-background:new    ;" points="&#10;&#9;&#9;187.5,268.9 100.4,318.3 77.4,305.5 163,257.8 &#9;"/>
	
		<linearGradient id="SVGID_00000161631998802161864830000016678540224786573735_-credit-card-2-56" gradientUnits="userSpaceOnUse" x1="270.8121" y1="110.9774" x2="321.7921" y2="153.6174" gradientTransform="matrix(1 0 0 -1 0 502)">
		<stop offset="0" style="stop-color:#FEC902;stop-opacity:0"/>
		<stop offset="0.99" style="stop-color:#297600"/>
	</linearGradient>
	
		<polyline style="opacity:0.32;fill:url(#SVGID_00000161631998802161864830000016678540224786573735_);enable-background:new    ;" points="&#10;&#9;&#9;357.4,346.4 270.3,395.8 247.3,383 332.8,335.3 &#9;"/>
	<path class="st12_credit-card-2-56" d="M218.4,156.7l0.1,0.1c0.5,0.2,0.9,0.7,1.1,1.2c0.1,0.4,0,0.9-0.4,1.2l-1.2-0.8c0.1-0.2,0.1-0.4,0-0.6&#10;&#9;&#9;c-0.1-0.2-0.3-0.4-0.5-0.5h-0.1c-0.3-0.2-0.7-0.3-1.1-0.3c-0.4,0-0.8,0.2-1.2,0.4c-0.4,0.2-0.6,0.5-0.6,0.8s0.2,0.5,0.5,0.7l0,0&#10;&#9;&#9;c0.3,0.1,0.5,0.2,0.8,0.3c0.3,0.1,0.6,0.1,0.9,0l1.3,0.8c-0.6,0.3-1.3,0.3-2,0.3c-0.7-0.1-1.3-0.2-1.9-0.6l-0.1-0.1&#10;&#9;&#9;c-0.4-0.2-0.8-0.5-1-0.9c-0.2-0.3-0.2-0.7-0.1-1c0.2-0.4,0.5-0.7,0.8-0.9c0.4-0.3,0.9-0.5,1.4-0.6c1-0.2,2.1,0,3,0.5L218.4,156.7z"/>
	<path class="st12_credit-card-2-56" d="M222.8,162.1c-0.4,0-0.9-0.1-1.3-0.2l-0.5,1.8l-1.3-0.8l0.6-1.7L220,161l-1.6,1.1l-1.2-0.7l4.3-2.8l2,1.2&#10;&#9;&#9;c0.3,0.2,0.6,0.4,0.8,0.7c0.1,0.2,0.2,0.4,0.1,0.7c-0.1,0.2-0.3,0.4-0.5,0.6C223.6,161.9,223.2,162,222.8,162.1z M222.7,161.1&#10;&#9;&#9;c0.2-0.1,0.2-0.2,0.2-0.4s-0.1-0.3-0.4-0.4l-0.7-0.4l-1.1,0.7l0.7,0.4l0,0c0.2,0.1,0.4,0.2,0.6,0.2&#10;&#9;&#9;C222.2,161.2,222.4,161.1,222.7,161.1"/>
	<path class="st12_credit-card-2-56" d="M244.3,172.1L244.3,172.1c0.6,0.2,1,0.7,1.2,1.2c0.1,0.4,0,0.9-0.4,1.2l-1.3-0.7c0.1-0.2,0.1-0.4,0-0.6&#10;&#9;&#9;c-0.1-0.2-0.3-0.4-0.5-0.5l0,0c-0.3-0.2-0.7-0.3-1.1-0.2c-0.4,0-0.9,0.2-1.2,0.4c-0.4,0.2-0.6,0.5-0.6,0.8c0,0.3,0.2,0.6,0.5,0.7&#10;&#9;&#9;h0.1c0.2,0.1,0.5,0.2,0.8,0.2c0.3,0.1,0.6,0.1,0.9,0l1.2,0.7c-0.6,0.2-1.3,0.3-1.9,0.3c-0.6-0.1-1.3-0.2-1.8-0.6l-0.2,0&#10;&#9;&#9;c-0.4-0.2-0.8-0.5-1-0.9c-0.2-0.3-0.2-0.7-0.1-1c0.2-0.4,0.5-0.7,0.8-0.9c0.4-0.3,0.9-0.5,1.4-0.6c0.5-0.1,1.1-0.1,1.6,0&#10;&#9;&#9;C243.3,171.7,243.8,171.8,244.3,172.1z"/>
	<g>
		<polygon class="st12_credit-card-2-56" points="234.7,166.4 235.9,167.1 231.6,169.9 230.4,169.2 &#9;&#9;"/>
		<polygon class="st12_credit-card-2-56" points="236.4,167.4 240.2,169.7 239.4,170.2 238.1,169.4 234.6,171.7 233.4,171 236.9,168.8 235.5,168 &#9;&#9;&#10;&#9;&#9;&#9;"/>
	</g>
	<path class="st12_credit-card-2-56" d="M232.7,166.5c-0.2,0.4-0.4,0.7-0.8,0.9c-0.4,0.3-0.9,0.5-1.4,0.5c-0.5,0.1-1.1,0.1-1.6,0&#10;&#9;&#9;c-0.5-0.1-1-0.3-1.5-0.6l-0.1-0.1l-1.8-1.1l4.3-2.8l1.9,1.1c0.4,0.2,0.8,0.6,1.1,1C232.7,165.8,232.8,166.2,232.7,166.5z&#10;&#9;&#9; M230.7,166.7c0.4-0.2,0.6-0.5,0.5-0.8s-0.3-0.6-0.8-0.9l-0.6-0.3l-2.4,1.6l0.6,0.3l0.1,0.1c0.4,0.2,0.8,0.4,1.3,0.4&#10;&#9;&#9;C229.9,167.1,230.3,166.9,230.7,166.7"/>
	<polygon class="st12_credit-card-2-56" points="225.9,161.2 228.9,163 228.1,163.5 226.2,162.4 225.3,163 227,164 226.2,164.5 224.6,163.5 &#10;&#9;&#9;223.6,164.1 225.5,165.2 224.6,165.8 221.6,164 &#9;"/>
	<path class="st12_credit-card-2-56" d="M259.9,182.7c-0.2,0.4-0.4,0.7-0.8,0.9c-0.4,0.3-0.9,0.5-1.4,0.5c-0.5,0.1-1.1,0.1-1.6,0&#10;&#9;&#9;c-0.5-0.1-1-0.3-1.5-0.6l-0.1-0.1l-1.9-1.1l4.3-2.8l1.9,1.1c0.4,0.2,0.8,0.6,1.1,1C259.9,182,260,182.4,259.9,182.7z M257.9,182.9&#10;&#9;&#9;c0.4-0.3,0.6-0.5,0.5-0.8s-0.3-0.6-0.8-0.9l-0.6-0.3l-2.4,1.6l0.6,0.3h0.1c0.4,0.2,0.9,0.4,1.3,0.4&#10;&#9;&#9;C257,183.2,257.5,183.1,257.9,182.9"/>
	<g>
		<path class="st12_credit-card-2-56" d="M250.1,175.6l-2.4,3.8l-1.3-0.8l0.5-0.7l-1.9-1l-1.1,0.3l-1.2-0.7l6-1.7L250.1,175.6z M246.1,176.6l1.2,0.7&#10;&#9;&#9;&#9;l1-1.4L246.1,176.6"/>
		<path class="st12_credit-card-2-56" d="M253.8,180.5c-0.4,0-0.9,0-1.3-0.2l-0.5,1.8l-1.3-0.8l0.6-1.7l-0.3-0.2l-1.6,1.1l-1.2-0.7l4.3-2.8l2,1.2&#10;&#9;&#9;&#9;c0.3,0.2,0.6,0.4,0.8,0.7c0.1,0.2,0.2,0.4,0.1,0.7c-0.1,0.2-0.3,0.5-0.5,0.6C254.5,180.3,254.1,180.5,253.8,180.5z M253,179.6&#10;&#9;&#9;&#9;c0.2,0,0.4-0.1,0.6-0.2c0.2-0.1,0.3-0.2,0.2-0.4s-0.1-0.3-0.4-0.4l-0.7-0.4l-1.1,0.7l0.7,0.4l0.1,0.1&#10;&#9;&#9;&#9;C252.6,179.5,252.8,179.6,253,179.6"/>
	</g>
	<path class="st12_credit-card-2-56" d="M201,180.5l0.1,0.1c0.4,0.2,0.7,0.5,0.9,0.8c0.2,0.2,0.2,0.5,0.1,0.8c-0.1,0.3-0.3,0.5-0.5,0.6&#10;&#9;&#9;c-0.4,0.2-0.8,0.4-1.3,0.4c-0.5,0-1-0.1-1.4-0.3l0,0c0.3,0.3,0.5,0.6,0.6,1c0,0.3-0.1,0.6-0.5,0.8c-0.5,0.3-1.1,0.5-1.7,0.4&#10;&#9;&#9;c-0.7,0-1.3-0.2-1.9-0.6l-0.1-0.1c-0.6-0.3-1-0.7-1.2-1.3c-0.1-0.4,0.1-0.9,0.6-1.3l1,0.6c-0.3,0.2-0.4,0.4-0.4,0.7&#10;&#9;&#9;c0,0.2,0.2,0.5,0.6,0.7h0.1c0.3,0.2,0.6,0.3,1,0.3c0.3,0,0.7,0,0.9-0.2c0.3-0.2,0.4-0.4,0.3-0.7c-0.2-0.4-0.6-0.7-1-0.9l-0.2-0.1&#10;&#9;&#9;l0.8-0.5l0.2,0.1l0.2,0.1c0.6,0.5,1.5,0.6,2.2,0.2c0.3-0.2,0.4-0.4,0.3-0.6s-0.2-0.4-0.5-0.6l0,0c-0.7-0.4-1.5-0.4-2.1,0l-1-0.6&#10;&#9;&#9;c0.6-0.3,1.3-0.5,1.9-0.5C199.8,180,200.4,180.2,201,180.5z"/>
	<path class="st12_credit-card-2-56" d="M194.7,176.8l0.1,0.1c0.6,0.4,1,0.8,1,1.2s-0.2,0.8-0.7,1.1c-0.5,0.3-1.1,0.5-1.7,0.6&#10;&#9;&#9;c-0.8,0.1-1.5,0.1-2.3,0.1c-0.8,0-1.6-0.1-2.3-0.2l3.1,1.8l-0.8,0.5l-4.5-2.7l0.7-0.4c1.4,0.2,2.8,0.3,4.1,0.3&#10;&#9;&#9;c0.9,0,1.7-0.1,2.5-0.5c0.2-0.1,0.4-0.3,0.4-0.6c0-0.2-0.2-0.4-0.5-0.6h-0.1c-0.3-0.2-0.7-0.3-1.1-0.3c-0.4,0-0.9,0.2-1.2,0.4&#10;&#9;&#9;l-1-0.6c0.7-0.4,1.4-0.6,2.2-0.6C193.4,176.3,194.1,176.5,194.7,176.8z"/>
	<polygon class="st12_credit-card-2-56" points="188.4,173.2 190.4,174.4 184.8,178.1 183.6,177.4 188.5,174.3 187.5,173.7 &#9;"/>
	<path class="st12_credit-card-2-56" d="M205.6,188l0.9,0.5l-0.8,0.5l-0.9-0.6l-1.2,0.8l-1.1-0.6l1.2-0.8l-3.3-2l0.8-0.5l7-0.5l1.1,0.7L205.6,188z&#10;&#9;&#9; M204.6,187.4l2.6-1.7l-4.9,0.3L204.6,187.4"/>
	<path class="st12_credit-card-2-56" d="M218.4,191l4.2,2.5l-0.8,0.5l-3.2-1.9l-1.7,1.1c0.3,0,0.7,0,1,0.1c0.3,0.1,0.6,0.2,0.9,0.4c0,0,0.1,0,0.1,0.1&#10;&#9;&#9;c0.4,0.2,0.7,0.5,0.9,0.8c0.1,0.3,0.1,0.6,0,0.8c-0.2,0.3-0.4,0.6-0.7,0.7c-0.6,0.4-1.3,0.6-2,0.6c-0.7,0-1.5-0.2-2.1-0.6l-0.1-0.1&#10;&#9;&#9;c-0.5-0.3-1-0.7-1.2-1.3c-0.1-0.5,0.1-1,0.6-1.2l1,0.6c-0.2,0.2-0.3,0.4-0.3,0.7c0.1,0.3,0.3,0.5,0.6,0.7h0.1&#10;&#9;&#9;c0.4,0.2,0.8,0.3,1.2,0.3c0.4,0,0.8-0.2,1.2-0.4c0.3-0.1,0.5-0.4,0.5-0.7c0-0.3-0.2-0.5-0.6-0.7l-0.1-0.1c-0.3-0.1-0.5-0.2-0.8-0.3&#10;&#9;&#9;c-0.3-0.1-0.6-0.1-0.9,0l-1-0.6L218.4,191z"/>
	<polygon class="st12_credit-card-2-56" points="231.1,198.6 235.4,201.1 234.7,201.6 227.2,203.4 226.1,202.8 233.5,201 230.3,199.1 &#9;"/>
	<path class="st12_credit-card-2-56" d="M226.5,198.9c0,0.4-0.3,0.9-0.9,1.2c-0.4,0.2-0.8,0.4-1.2,0.5c-0.5,0.1-1,0.1-1.4,0c-0.5-0.1-1-0.3-1.4-0.5&#10;&#9;&#9;l-0.1-0.1c-1-0.6-1.3-1.1-1.2-1.7c0.3-0.7,0.9-1.3,1.6-1.7c0.9-0.6,1.8-1,2.9-1.1c0.9-0.1,1.7,0.1,2.5,0.5l0.1,0.1&#10;&#9;&#9;c0.6,0.4,1,0.8,1,1.2c0,0.5-0.2,0.9-0.6,1.2l-1-0.6c0.5-0.5,0.5-0.9-0.2-1.3h-0.1c-0.5-0.3-1-0.4-1.5-0.3c-0.7,0.1-1.3,0.4-1.9,0.8&#10;&#9;&#9;l-0.3,0.2c0.4-0.1,0.9-0.2,1.3-0.1c0.4,0.1,0.9,0.2,1.2,0.4l0.1,0.1C226.2,198.1,226.5,198.5,226.5,198.9z M224.7,199.6&#10;&#9;&#9;c0.4-0.2,0.6-0.5,0.5-0.8c-0.1-0.3-0.3-0.6-0.6-0.8h-0.1c-0.4-0.2-0.8-0.3-1.2-0.4c-0.4,0-0.9,0.1-1.2,0.3&#10;&#9;&#9;c-0.3,0.2-0.5,0.4-0.5,0.8c0,0.3,0.2,0.6,0.7,0.8h0.1c0.4,0.2,0.8,0.3,1.2,0.3C223.9,199.9,224.3,199.8,224.7,199.6"/>
	<path class="st12_credit-card-2-56" d="M238.4,206.9c-0.1,0.3-0.3,0.6-0.6,0.8c-0.6,0.4-1.3,0.5-2,0.4c-0.7-0.1-1.4-0.3-2.1-0.7l-0.2-0.1&#10;&#9;&#9;c-0.6-0.3-1-0.8-1.3-1.4c-0.1-0.5,0.1-0.9,0.6-1.2c0.4-0.2,0.8-0.4,1.2-0.4c0.5,0,1,0,1.5,0.2c-0.2-0.2-0.4-0.5-0.3-0.8&#10;&#9;&#9;c0.1-0.3,0.3-0.6,0.5-0.7c0.3-0.2,0.6-0.3,1-0.3c0.4,0,0.9,0,1.3,0.1c0.4,0.1,0.9,0.3,1.3,0.5l0.2,0.1c0.4,0.2,0.7,0.5,1,0.9&#10;&#9;&#9;c0.2,0.2,0.3,0.5,0.2,0.8c-0.1,0.3-0.2,0.5-0.5,0.6c-0.3,0.2-0.7,0.3-1.1,0.4c-0.4,0-0.8,0-1.2-0.1&#10;&#9;&#9;C238.2,206.2,238.4,206.6,238.4,206.9z M236.8,207c0.3-0.2,0.5-0.5,0.4-0.7c-0.2-0.3-0.4-0.6-0.8-0.8l-0.1-0.1&#10;&#9;&#9;c-0.4-0.2-0.8-0.3-1.2-0.4c-0.4-0.1-0.8,0-1.1,0.3c-0.3,0.2-0.5,0.4-0.4,0.7c0.1,0.4,0.4,0.6,0.8,0.8l0.1,0.1&#10;&#9;&#9;c0.4,0.2,0.8,0.4,1.2,0.4C236.1,207.4,236.5,207.3,236.8,207 M236.8,203.8c-0.3,0.2-0.4,0.4-0.3,0.6c0.1,0.3,0.4,0.6,0.6,0.7h0.1&#10;&#9;&#9;c0.3,0.2,0.7,0.3,1.1,0.3c0.4,0,0.7-0.1,1-0.2c0.3-0.2,0.4-0.4,0.3-0.6c-0.1-0.3-0.4-0.6-0.6-0.7l-0.1-0.1c-0.3-0.2-0.6-0.3-1-0.3&#10;&#9;&#9;C237.4,203.5,237.1,203.6,236.8,203.8"/>
	<path class="st12_credit-card-2-56" d="M253.5,212.7c-0.3,0.7-0.9,1.3-1.6,1.7c-0.9,0.6-1.8,1-2.9,1.2c-0.9,0.1-1.7-0.1-2.5-0.5l-0.1-0.1&#10;&#9;&#9;c-0.6-0.4-1-0.8-1-1.2c0-0.5,0.2-0.9,0.6-1.2l1,0.6c-0.2,0.2-0.4,0.4-0.4,0.7c0,0.2,0.2,0.4,0.6,0.6l0,0c0.4,0.3,1,0.4,1.5,0.3&#10;&#9;&#9;c0.7-0.1,1.3-0.4,1.9-0.8l0.3-0.2c-0.4,0.1-0.9,0.2-1.3,0.1c-0.4-0.1-0.9-0.2-1.3-0.4l-0.1-0.1c-0.6-0.4-1-0.8-1-1.2&#10;&#9;&#9;s0.3-0.9,0.9-1.2c0.4-0.2,0.8-0.4,1.2-0.5c0.5-0.1,1-0.1,1.4,0c0.5,0.1,0.9,0.2,1.3,0.5l0.1,0.1&#10;&#9;&#9;C253.2,211.6,253.6,212.1,253.5,212.7z M251.7,213.2c0.3-0.2,0.5-0.4,0.5-0.8c0-0.3-0.2-0.6-0.7-0.8h-0.1c-0.3-0.2-0.7-0.3-1.1-0.3&#10;&#9;&#9;c-0.4,0-0.8,0.1-1.2,0.3c-0.4,0.2-0.6,0.5-0.5,0.8s0.2,0.5,0.6,0.8h0.1c0.5,0.3,1.1,0.4,1.6,0.4&#10;&#9;&#9;C251.2,213.4,251.4,213.3,251.7,213.2"/>
	<path class="st12_credit-card-2-56" d="M263.8,218.9c-0.3,0.7-0.9,1.3-1.6,1.7c-0.8,0.5-1.7,0.9-2.7,1c-0.9,0.1-1.8-0.1-2.5-0.5l-0.1-0.1&#10;&#9;&#9;c-0.9-0.5-1.2-1.1-1.1-1.6c0.3-0.7,0.9-1.3,1.6-1.7c0.8-0.5,1.7-0.9,2.7-1.1c0.9-0.1,1.7,0.1,2.5,0.5l0.1,0.1&#10;&#9;&#9;C263.6,217.9,263.9,218.4,263.8,218.9z M261.2,220c0.5-0.3,0.9-0.7,1.2-1.1c0.2-0.3,0-0.7-0.5-1h0c-0.5-0.3-1-0.4-1.5-0.3&#10;&#9;&#9;c-0.6,0.2-1.2,0.4-1.8,0.8c-0.5,0.3-0.9,0.7-1.2,1.1c-0.2,0.3,0,0.7,0.6,1h0.1c0.5,0.3,1,0.4,1.5,0.2&#10;&#9;&#9;C260,220.6,260.6,220.4,261.2,220"/>
	<polygon class="st12_credit-card-2-56" points="256.1,213.5 258.2,214.8 252.5,218.4 251.4,217.8 256.2,214.6 255.2,214.1 &#9;"/>
	<path class="st12_credit-card-2-56" d="M270.5,222.9c-0.3,0.7-0.9,1.3-1.6,1.7c-0.8,0.5-1.7,0.9-2.7,1.1c-0.9,0.1-1.8-0.1-2.5-0.5l-0.1-0.1&#10;&#9;&#9;c-0.9-0.5-1.2-1.1-1.1-1.6c0.3-0.7,0.9-1.3,1.6-1.7c0.8-0.5,1.7-0.9,2.7-1c0.9-0.1,1.7,0.1,2.5,0.5l0.1,0.1&#10;&#9;&#9;C270.2,221.8,270.6,222.4,270.5,222.9z M267.9,224c0.5-0.3,0.9-0.7,1.2-1.1c0.2-0.3,0-0.7-0.5-1h0c-0.5-0.3-1-0.4-1.5-0.3&#10;&#9;&#9;c-0.6,0.2-1.2,0.4-1.8,0.8c-0.5,0.3-0.9,0.7-1.2,1.1c-0.2,0.3,0,0.7,0.5,1l0.1,0.1c0.5,0.3,1,0.4,1.5,0.2&#10;&#9;&#9;C266.7,224.7,267.3,224.4,267.9,224"/>
	<polygon class="st12_credit-card-2-56" points="180.6,183.6 181.5,184.2 177.3,186.9 179.2,188 178.6,188.4 175.9,186.7 &#9;"/>
	<polygon class="st12_credit-card-2-56" points="185.8,186.8 189.4,188.9 188.8,189.2 182.6,190 185.3,191.6 184.7,192 181,189.8 181.6,189.4 &#10;&#9;&#9;187.8,188.7 185.2,187.2 &#9;"/>
	<path class="st12_credit-card-2-56" d="M196.4,196.4c0,0.3-0.2,0.5-0.4,0.7c-0.4,0.3-0.9,0.4-1.4,0.3c-0.5,0-1.1-0.2-1.5-0.5l-0.1-0.1l-2.2-1.3&#10;&#9;&#9;l4.8-3.1l2.1,1.3c0.5,0.2,0.8,0.5,1,1c0.1,0.3-0.1,0.6-0.4,0.8c-0.3,0.2-0.6,0.3-1,0.3c-0.4,0-0.7,0-1.1-0.2&#10;&#9;&#9;C196.3,195.9,196.4,196.2,196.4,196.4z M195.2,196.5c0.2-0.1,0.3-0.3,0.3-0.5c-0.1-0.3-0.3-0.5-0.6-0.6l-1.1-0.7l-1.5,1l1.1,0.7&#10;&#9;&#9;h0.1c0.3,0.2,0.6,0.3,0.9,0.3C194.6,196.7,194.9,196.7,195.2,196.5 M195.8,193.4l-1.4,0.9l1.1,0.6l0,0c0.3,0.1,0.5,0.2,0.8,0.3&#10;&#9;&#9;c0.3,0,0.5-0.1,0.8-0.2c0.2-0.1,0.3-0.3,0.3-0.5s-0.2-0.4-0.6-0.6L195.8,193.4"/>
	<path class="st12_credit-card-2-56" d="M192.8,191l-2.7,4.2l-0.9-0.6l0.6-0.9l-2.3-1.4l-1.4,0.4l-0.9-0.6l6.7-1.8L192.8,191z M188.3,192.1l1.8,1.1&#10;&#9;&#9;l1.3-2L188.3,192.1"/>
	<polygon class="st12_credit-card-2-56" points="184.1,185.7 184.9,186.2 180.2,189.3 179.3,188.8 &#9;"/>
	<polygon class="st12_credit-card-2-56" points="176.6,181.3 179.8,183.1 179.1,183.5 176.9,182.2 175.5,183.1 177.5,184.3 176.9,184.7 174.9,183.5 &#10;&#9;&#9;173.4,184.5 175.6,185.8 175,186.2 171.9,184.4 &#9;"/>
	<polygon class="st12_credit-card-2-56" points="208.4,200.2 209.3,200.7 207.3,202 209.8,203.5 211.8,202.2 212.7,202.8 208,205.9 207.1,205.3 &#10;&#9;&#9;209.2,203.9 206.6,202.4 204.5,203.8 203.6,203.3 &#9;"/>
	<polygon class="st12_credit-card-2-56" points="203.8,197.5 207.7,199.8 207.1,200.2 205.6,199.3 201.5,202 200.6,201.5 204.7,198.8 203.2,197.9 &#9;&#10;&#9;&#9;"/>
	<polygon class="st12_credit-card-2-56" points="200.3,195.4 203.4,197.2 202.8,197.6 200.5,196.3 199.1,197.2 201.1,198.4 200.5,198.8 198.5,197.6 &#10;&#9;&#9;197,198.6 199.2,199.9 198.6,200.3 195.5,198.4 &#9;"/>
	<polygon class="st12_credit-card-2-56" points="245,222 246.7,223 242,226.1 241.1,225.6 245.1,222.9 244.3,222.5 &#9;"/>
	<path class="st12_credit-card-2-56" d="M249.5,224.6L249.5,224.6c0.6,0.4,0.9,0.7,1,1.1s-0.1,0.6-0.6,0.9c-0.4,0.3-0.9,0.4-1.4,0.5&#10;&#9;&#9;c-0.6,0.1-1.3,0.1-1.9,0.1c-0.6,0-1.3-0.1-1.9-0.2l2.6,1.5l-0.6,0.4l-3.8-2.2l0.6-0.4c1.1,0.2,2.3,0.2,3.5,0.2&#10;&#9;&#9;c0.7,0,1.5-0.1,2.1-0.5c0.2-0.1,0.3-0.3,0.4-0.5c0-0.2-0.2-0.4-0.4-0.5h-0.1c-0.3-0.2-0.6-0.2-0.9-0.2c-0.4,0-0.7,0.1-1,0.3&#10;&#9;&#9;l-0.9-0.5c0.6-0.3,1.2-0.5,1.8-0.5C248.5,224.1,249,224.3,249.5,224.6z"/>
	<polygon class="st12_credit-card-2-56" points="255.3,226.1 256.2,226.6 246.5,230.3 245.7,229.8 &#9;"/>
	<path class="st12_credit-card-2-56" d="M259.6,230.6l3.5,2.1l-0.7,0.4l-2.7-1.6l-1.4,0.9c0.3,0,0.6,0,0.9,0.1c0.3,0.1,0.6,0.2,0.8,0.3h0.1&#10;&#9;&#9;c0.3,0.2,0.6,0.4,0.7,0.7c0.1,0.2,0.1,0.5,0,0.7c-0.1,0.3-0.3,0.5-0.6,0.6c-0.5,0.3-1.1,0.5-1.7,0.5c-0.6,0-1.2-0.2-1.7-0.4&#10;&#9;&#9;l-0.1-0.1c-0.5-0.2-0.8-0.6-1-1.1c-0.1-0.4,0.1-0.8,0.5-1l0.9,0.5c-0.2,0.1-0.3,0.4-0.2,0.6c0.1,0.2,0.3,0.4,0.5,0.6h0.1&#10;&#9;&#9;c0.3,0.2,0.6,0.3,1,0.2c0.4,0,0.7-0.1,1-0.3c0.3-0.2,0.4-0.4,0.4-0.6s-0.2-0.4-0.5-0.6h-0.1c-0.2-0.1-0.4-0.2-0.7-0.2&#10;&#9;&#9;c-0.2-0.1-0.5-0.1-0.8,0l-0.9-0.5L259.6,230.6z"/>
	<path class="st12_credit-card-2-56" d="M256.8,228.9l0.1,0.1c0.4,0.2,0.7,0.6,0.9,1c0.1,0.3-0.1,0.6-0.6,0.9c-0.4,0.3-0.9,0.4-1.4,0.5&#10;&#9;&#9;c-0.6,0.1-1.3,0.1-1.9,0.1c-0.7,0-1.3-0.1-1.9-0.2l2.6,1.5l-0.6,0.4l-3.8-2.2l0.6-0.4c1.1,0.2,2.3,0.2,3.5,0.2&#10;&#9;&#9;c0.7,0,1.4-0.1,2.1-0.4c0.2-0.1,0.4-0.3,0.4-0.5s-0.1-0.4-0.4-0.5h-0.1c-0.3-0.2-0.6-0.2-0.9-0.2c-0.4,0-0.7,0.2-1,0.3l-0.9-0.5&#10;&#9;&#9;c0.6-0.3,1.2-0.5,1.8-0.5C255.7,228.5,256.3,228.6,256.8,228.9z"/>
	<path class="st12_credit-card-2-56" d="M314.4,217.4c0,0.3-0.2,0.5-0.4,0.6c-0.4,0.2-0.8,0.4-1.3,0.3c-0.5,0-1-0.2-1.4-0.4l-0.1-0.1l-2.1-1.2&#10;&#9;&#9;l4.3-2.8l2.1,1.2c0.5,0.3,0.8,0.6,0.9,0.9s0,0.5-0.4,0.8c-0.3,0.2-0.6,0.3-0.9,0.3c-0.3,0-0.7,0-1-0.2&#10;&#9;&#9;C314.2,216.9,314.4,217.2,314.4,217.4z M313.1,217.4c0.2-0.1,0.3-0.3,0.2-0.4s-0.2-0.3-0.5-0.4l-0.9-0.6l-1.2,0.8l0.9,0.6h0&#10;&#9;&#9;c0.2,0.1,0.5,0.2,0.7,0.2C312.7,217.5,312.9,217.5,313.1,217.4 M313.7,214.8l-1.1,0.7l0.9,0.5h0c0.2,0.1,0.4,0.2,0.7,0.2&#10;&#9;&#9;c0.2,0,0.4,0,0.6-0.1c0.2-0.1,0.3-0.2,0.2-0.4s-0.2-0.3-0.4-0.4L313.7,214.8"/>
	<path class="st12_credit-card-2-56" d="M320.3,218l-2.4,3.8l-1-0.6l0.5-0.8l-2-1.2l-1.2,0.4l-1-0.6l6-1.7L320.3,218z M316.3,219l1.4,0.9l1.1-1.6&#10;&#9;&#9;L316.3,219"/>
	<g>
		<polygon class="st12_credit-card-2-56" points="322.6,219.3 323.6,219.9 322.9,223.1 325.8,221.2 326.8,221.8 322.5,224.6 321.5,224 322.3,220.8 &#10;&#9;&#9;&#9;319.4,222.7 318.4,222.1 &#9;&#9;"/>
		<polygon class="st12_credit-card-2-56" points="327.7,222.3 328.7,222.9 326.7,224.1 330.5,224 331.7,224.7 327.5,224.8 327.4,227.5 326.2,226.8 &#10;&#9;&#9;&#9;326.3,224.4 324.4,225.7 323.4,225.1 &#9;&#9;"/>
	</g>
	<polygon class="st6_credit-card-2-56" points="211.5,175.2 214.7,177.2 214.5,177.3 214.4,177.4 211.1,175.4 &#9;"/>
	<path class="st0_credit-card-2-56" d="M209.5,176.5l1.7-1.1l3.2,1.9c-1.2,0.6-2.5,0.5-3.6-0.1h-0.1L209.5,176.5z"/>
	<path class="st0_credit-card-2-56" d="M220.8,170.7c1.1,0.7,1.2,1.7,0.3,2.4l-6.5,4.2h-0.1l0.3-0.2l-3.3-1.9l2.9-1.9l-2.7-1.6l-2.9,1.9l-2.4-1.4&#10;&#9;&#9;l4.1-2.7l2.8,1.7l4-2.6L220.8,170.7z"/>
	<path class="st0_credit-card-2-56" d="M197.7,169.5c-1.1-0.6-1.2-1.6-0.4-2.3l8.3,5l-1.7,1L197.7,169.5z"/>
	<polygon class="st6_credit-card-2-56" points="206,172 206.4,172.2 208.8,173.6 208.4,173.8 206,172.4 205.7,172.2 197.3,167.2 197.4,167.1 &#10;&#9;&#9;197.6,167 &#9;"/>
	<g>
		<path class="st0_credit-card-2-56" d="M213.1,167.3l-10.5-3l-0.5-0.3l1.9-1.2c1.2-0.6,2.6-0.6,3.8,0h0.1l6.5,3.9l-0.2-0.1L213.1,167.3z"/>
		<polygon class="st0_credit-card-2-56" points="216.9,168.3 216.8,168.4 213.6,167.5 214.5,166.9 217.1,168.4 &#9;&#9;"/>
		<polygon class="st0_credit-card-2-56" points="210.5,169.1 202.6,164.4 213.1,167.3 &#9;&#9;"/>
		<polygon class="st6_credit-card-2-56" points="202.1,164.1 202.6,164.4 210.5,169.1 210.1,169.3 201.8,164.3 &#9;&#9;"/>
		<polygon class="st0_credit-card-2-56" points="210.9,169.3 213.6,167.5 216.8,168.4 213.2,170.7 &#9;&#9;"/>
		<polygon class="st6_credit-card-2-56" points="217.1,168.5 217.3,168.6 213.3,171.2 210.5,169.5 210.9,169.3 213.2,170.7 216.8,168.4 216.9,168.3 &#10;&#9;&#9;&#9;217.1,168.4 &#9;&#9;"/>
		<polygon class="st0_credit-card-2-56" points="201.8,164.3 210.1,169.3 206,172 197.6,167 197.4,167.1 &#9;&#9;"/>
		<polygon class="st6_credit-card-2-56" points="214.3,166.8 214.5,166.9 213.6,167.5 210.9,169.3 210.5,169.5 206.4,172.2 206,172 210.1,169.3 &#10;&#9;&#9;&#9;210.5,169.1 213.1,167.3 214.1,166.7 &#9;&#9;"/>
		<polygon class="st6_credit-card-2-56" points="204,173.3 205.7,172.2 206,172.4 204.4,173.5 204.2,173.4 &#9;&#9;"/>
		<polygon class="st0_credit-card-2-56" points="204.4,173.5 206,172.4 208.4,173.8 206.8,174.9 204.2,173.4 &#9;&#9;"/>
		<polygon class="st0_credit-card-2-56" points="211.7,172.2 213.6,173.3 209.1,176.3 207,175 207.2,175.1 &#9;&#9;"/>
		<polygon class="st6_credit-card-2-56" points="211.7,171.7 214.4,173.3 211.5,175.2 211.1,175.4 209.5,176.5 209.3,176.4 209.2,176.4 209.1,176.3 &#10;&#9;&#9;&#9;213.6,173.3 211.7,172.2 207.2,175.1 207,175 206.8,174.9 208.4,173.8 208.8,173.6 &#9;&#9;"/>
	</g>
	<ellipse class="st6_credit-card-2-56" cx="260" cy="247.5" rx="9.3" ry="5.7"/>
	<ellipse class="st0_credit-card-2-56" cx="268.5" cy="252.1" rx="9.3" ry="5.7"/>
	<path class="st6_credit-card-2-56" d="M306.8,221.5c0,0-5.1-5.4-6-8s0.6-11.6-0.6-12.3s-2.8,2.8-2.6,3.9c0,0.1,0,0.1-0.1,0c-0.1-0.1-0.2-0.3-0.3-0.5&#10;&#9;&#9;c-0.4-0.7-0.8-1.3-1.2-2c-0.5-0.9-1-1.7-1.6-2.6c-0.5-0.8-1-1.5-1.5-2.2c-0.2-0.3-0.7-1-1.1-0.9c-0.1,0-0.2,0.1-0.2,0.2&#10;&#9;&#9;c0,0.6,0.1,1.2,0.4,1.8c0.2,0.6,0.4,1.1,0.6,1.7s0.3,0.9,0.5,1.4c0,0.1,0.2,0.5,0,0.5c0,0-0.1,0-0.1-0.1c-0.6-0.5-1.1-1.1-1.5-1.7&#10;&#9;&#9;c-0.7-0.8-1.5-1.7-2.3-2.5c-0.4-0.4-0.8-0.8-1.2-1.1c-0.3-0.3-0.7-0.6-1.1-0.7c-1.2-0.2,0.5,2.4,0.7,2.6c0.5,0.9,1.1,1.8,1.6,2.7&#10;&#9;&#9;c0.1,0.1,0.8,1.3,0.5,1.4c0,0-0.1,0-0.1,0c-0.4-0.2-0.7-0.4-1-0.7c-0.4-0.4-0.9-0.8-1.3-1.1s-0.9-0.8-1.3-1.2&#10;&#9;&#9;c-0.3-0.3-0.7-0.5-1.1-0.7c-0.2-0.1-0.5-0.1-0.6,0.1c0,0.2,0,0.4,0.1,0.5c0.2,0.4,0.4,0.8,0.6,1.1c0.6,1,1.3,1.9,2,2.8&#10;&#9;&#9;c0.3,0.4,0.6,0.8,0.9,1.2c0.2,0.3,0.4,0.6,0.5,0.9c0,0,0,0.1,0,0.1c0,1.1-2.4-1.8-3.5-1.3s2.5,4.1,4.5,5.6c2,1.5,3.9,3,5.8,4.8&#10;&#9;&#9;c0.6,0.8,5.2,9.1,7.8,11.3"/>
	<path class="st6_credit-card-2-56" d="M356.2,320c0.5,1.3,2.9,18.8,2.8,22.3s-5.4,3.8-7,3.6s-4.7-1.6-6.7-1.7s-13-2.1-12.6-5s2.2-5.7,4.7-5.9&#10;&#9;&#9;s9.2,0.3,9.2,0.3l-0.7-15.9"/>
	<path class="st8_credit-card-2-56" d="M358.4,337.5c-5.3,1.8-11,1.7-16.2-0.2c-2-0.7-3.6-2.1-4.4-4h-0.3c-2.5,0.1-4.4,2.9-4.7,5.8s10.6,5.1,12.6,5.1&#10;&#9;&#9;s5.1,1.6,6.7,1.7s6.8-0.1,7-3.6c0-1.7-0.1-3.3-0.3-5L358.4,337.5z"/>
	<path class="st8_credit-card-2-56" d="M324.9,192.1c0,0-4.8,4.3-4,9.2c0,0,6.1,12.1,12.7,14.1s10.4-11,8.5-12.9S324.9,192.1,324.9,192.1z"/>
	<path class="st8_credit-card-2-56" d="M354,237.1c3.1,6,4.9,12.6,5,19.3c0.2,8.3,0.6,74.9,0.6,74.9s-7,4.1-20.3,0.3c-1.9-0.6-4.4-57.4-4.4-57.4&#10;&#9;&#9;l4.5-29.3"/>
	<path class="st6_credit-card-2-56" d="M329.1,340.2c0.5,1.3,2,19,1.6,22.4s-5.5,3.5-7.1,3.3s-4.6-1.8-6.6-2s-12.8-2.8-12.4-5.7s2.5-5.6,5-5.6&#10;&#9;&#9;s9.1,0.8,9.1,0.8l0.1-15.9"/>
	<path class="st8_credit-card-2-56" d="M335.1,320.1c0.1-0.3,0.2-0.6,0.3-0.9c1.2-8.6,3.6-17,7-25c0.8-4.6,1.4-7.6,1.4-7.8c3.9-15.8,1-20,2-43.9&#10;&#9;&#9;l-17.1,0.9c0,0-9.4,31.1-12.9,59.2C315,309.3,314,346,314,346s8.5,5.8,18.7,2.5l0.3-1.9C330.9,337.8,332.8,328.7,335.1,320.1z"/>
	<path class="st13_credit-card-2-56" d="M327.7,226c-0.5-6.6-2.8-10.1-1.3-16.4c4.8-5.2,13.7-11.4,14.6-11.6l5,1.2c4.4,1,7.5,4.8,7.6,9.3&#10;&#9;&#9;c0.3,10.2,0.7,27.3,0.2,28.6s-10.4,10-25.2,6.2C328.3,237.6,328.1,231.8,327.7,226z"/>
	<path class="st6_credit-card-2-56" d="M329.6,187.1c0,0-2.1,15.3,3.6,16.6s11.9-5.4,12.1-8.6S337.1,181.6,329.6,187.1z"/>
	<path class="st7_credit-card-2-56" d="M331.4,179.2c-0.6,0.2-5.8,3.4-5.5,5.5s1.2,6.8,2.7,6.1s1.5-3.6,2.7-1.5s2.3,3.7,3.5,3.2&#10;&#9;&#9;c0.8-0.3,1.7-0.3,2.4,0.1c0,0,0,11.1,1.3,10.3s6.7-3,8.6-6.4c1.2-2.1,1.5-6,1.2-9.2c-0.1-1.5-0.5-3-1.2-4.3&#10;&#9;&#9;C345.7,180.8,335.6,177.6,331.4,179.2z"/>
	<path class="st7_credit-card-2-56" d="M347.2,183c0,0,6.1,7.9,5.6,17.7s-18,11.2-18,11.2l2.4-19.4"/>
	<path class="st13_credit-card-2-56" d="M296.9,219.7c0.8-2.7,2.8-4.9,5.4-5.9c4.8,4.6,10.7,9.5,12.6,8.7c2.8-1.1,8.5-14.3,16.5-15s7.8,10.4,7.8,10.4&#10;&#9;&#9;s-14,21.6-21.6,22c-6.1,0.3-17.2-10.4-21.6-15.6C296.2,222.7,296.5,221.2,296.9,219.7z"/>
	<path class="st8_credit-card-2-56" d="M326.7,357c-5.1,1.1-10.7,1.9-14.6-2.4c-0.5-0.6-1-1.3-1.3-2c-0.5,0-0.9,0-1.2,0c-2.5,0-4.5,2.7-5,5.6&#10;&#9;&#9;s10.4,5.5,12.4,5.7s5,1.8,6.6,2s6.8,0.1,7.1-3.3c0.1-1.9,0-3.9-0.1-5.8C329.3,357,328,357.1,326.7,357z"/>
	<path class="st13_credit-card-2-56" d="M351.1,257.9c0.1-0.7-1-1.1-1.1-0.3c-4.3,30.2-20,58.7-17.7,89.8c0.1,0.8,1.2,0.8,1.2,0&#10;&#9;&#9;C331.1,316.5,346.8,288.1,351.1,257.9z"/>
	<path class="st6_credit-card-2-56" d="M322.8,194.9c0.2-0.3-1.7-1.9-1.9-2c-0.6-0.6-1.2-1.1-1.8-1.5c-0.7-0.4-1.5-0.6-2.3-0.7&#10;&#9;&#9;c-2-0.5-4.1-0.9-6.1-1.1c-0.8,0-1.5,0-2.3,0c-0.3,0-1.3,0.2-1.5,0l14.4,8.4L322.8,194.9z"/>
	<path class="st6_credit-card-2-56" d="M321.1,198.2c0-0.1,0.1-0.2,0.1-0.4l-4.7-4.3c0,0-6.6-1.4-6.6-0.7s-0.4,1,2,1.8c2,0.6,3.9,1.3,5.7,2.2&#10;&#9;&#9;c1,0.7,2.1,1.3,3.3,1.7C321,198.5,321.1,198.3,321.1,198.2z"/>
	<path class="st6_credit-card-2-56" d="M158.7,170l4.7,1.6c0,0,4.1,1.3,4.3,2.4s-4.6,0.1-5.6,0s4.5,5.2,4.5,6.1s-0.9,1-1.5,0.8s0.9,1.5-0.4,1.9&#10;&#9;&#9;c-0.8,0.2-1.7-0.2-2.2-0.9c0,0-0.1,1.8-1.4,1.5s-7-6.7-7.5-9S156.3,169.1,158.7,170z"/>
	<path class="st6_credit-card-2-56" d="M153.5,175c0,0,2.2,6.9,3.4,6.8s1.6-3,1.6-3s-3.5-5.2-4.4-5.6S153.5,175,153.5,175z"/>
	<path class="st5_credit-card-2-56" d="M147.1,119.8c0,0-14.6,21.1-14.6,27.3c-0.1,8.9,19.1,28.7,19.1,28.7l7.1-5.8c0,0-13.6-18.5-11.8-20.3&#10;&#9;&#9;s10.2-18.3,10.2-18.3"/>
</g>
</svg>