<svg version="1.1" id="Layer_1" xmlns="http://www.w3.org/2000/svg" xmlns:xlink="http://www.w3.org/1999/xlink" x="0px" y="0px" viewBox="0 0 500 500" style="width: 166px;" xml:space="preserve" data-imageid="data-processing-1-94" imageName="Data Processing 1" class="illustrations_image">
<style type="text/css">
	.st0_data-processing-1-94{fill:#FFFFFF;}
	.st1_data-processing-1-94{fill:#231F20;}
	.st2_data-processing-1-94{fill:#68E1FD;}
	.st3_data-processing-1-94{fill:#D1D3D4;}
</style>
<g id="Character_data-processing-1-94">
	<path class="st0_data-processing-1-94" d="M291,229.8c0,0,17.6-20.2,20.6-29.3s11.1-24.7,13.2-21.7s-4.6,19.2-4.6,19.2s16.9-25.4,22.2-22.1&#10;&#9;&#9;s9.7,13.6,5.4,19.7S313,237.3,313,237.3L291,229.8L291,229.8z"/>
	<path class="st1_data-processing-1-94" d="M313,238.2c-0.1,0-0.2,0-0.3,0l-22-7.5c-0.3-0.1-0.5-0.3-0.5-0.6c-0.1-0.3,0-0.6,0.2-0.8&#10;&#9;&#9;c0.2-0.2,17.6-20.2,20.4-29c2.5-7.5,9.5-22.1,13.1-22.6c0.6-0.1,1.3,0.2,1.6,0.7c1.4,2.1-0.4,8.6-2.1,13.7&#10;&#9;&#9;c5.6-7.7,15.2-19.5,19.5-16.8c3.3,2.1,6.2,6.6,7.2,11.2c0.5,2.6,0.7,6.4-1.5,9.6c-4.2,6.1-33.6,40.3-34.9,41.8&#10;&#9;&#9;C313.5,238.1,313.3,238.2,313,238.2L313,238.2z M292.4,229.4l20.3,6.9c3.5-4,30.5-35.5,34.4-41.2c1.9-2.7,1.7-6,1.2-8.4&#10;&#9;&#9;c-0.9-4.2-3.5-8.4-6.4-10.2c-1.9-1.2-9.7,4.8-21.1,21.9c-0.2,0.4-0.8,0.5-1.1,0.3c-0.3-0.2-0.5-0.7-0.3-1c2.7-6.5,6-16.6,4.7-18.4&#10;&#9;&#9;l0,0c-1.8,0-8.6,12-11.8,21.5C309.7,208.9,296,225.3,292.4,229.4L292.4,229.4z"/>
	<path class="st1_data-processing-1-94" d="M222.1,377.5l3,21.7c0,0-132.8,1.6-131.2,0s0-33.4,0-33.4L222.1,377.5z"/>
	<path class="st1_data-processing-1-94" d="M126.1,400.7c-32.6,0-32.8-0.5-33-1.2c-0.1-0.3-0.1-0.7,0.2-1c0.8-1.5,0.5-18-0.2-32.8c0-0.5,0.3-0.8,0.8-0.9&#10;&#9;&#9;c0,0,0.1,0,0.1,0l128.2,11.7c0.4,0,0.7,0.3,0.8,0.7l3,21.7c0,0.2,0,0.5-0.2,0.6c-0.2,0.2-0.4,0.3-0.6,0.3c-0.3,0-33,0.4-65.4,0.6&#10;&#9;&#9;C145.8,400.6,134.9,400.7,126.1,400.7L126.1,400.7z M94.8,398.6c8.2,0.9,80.3,0.3,129.2-0.2l-2.8-20.1L94.7,366.7&#10;&#9;&#9;C95.2,377.4,95.8,393.9,94.8,398.6L94.8,398.6z"/>
	<path class="st0_data-processing-1-94" d="M175.6,115.6c-0.3-0.5-0.6-1-0.9-1.5c-6-9.2-16.4-14.5-27.4-14c-4.5,0.2-8.9,0.8-13.2,2&#10;&#9;&#9;c-4.4,1.2-5.9,5.1-9.6,7c-0.8,0.3-1.6,0.5-2.5,0.5c-2.7,0.2-5.4,0.9-7.9,2c-6.8,3-11.4,12.4-13.8,19c-4.8,12.8-7.2,26.4-8.5,40&#10;&#9;&#9;c-1.1,12.7-2.6,26.7,2.2,38.8c4.7,11.9,11.2,23.5,19.8,32.9c15.8,17.4,39.6,27.7,63,25.8c13.9-1.1,27.2-6.3,39.6-12.9&#10;&#9;&#9;c7.1-3.8,14.1-8.2,18.9-14.6c9.1-12.1,8.3-30.4-1.4-42c-10.5-12.6-27.1-18-37.6-30.9C184.7,153.6,185.1,131.5,175.6,115.6&#10;&#9;&#9;L175.6,115.6z"/>
	<path class="st1_data-processing-1-94" d="M171.5,269.2c-21.3,0-43.2-9.8-58.2-26.3c-8.1-8.9-14.8-20-20-33.2c-4.7-11.9-3.4-25.6-2.3-37.8l0.1-1.4&#10;&#9;&#9;c1.4-15.4,4.2-28.6,8.5-40.2c2.7-7.2,7.4-16.5,14.3-19.4c2.6-1.1,5.3-1.8,8.1-2h0.2c0.7,0,1.3-0.1,1.9-0.4c1.4-0.8,2.7-1.8,3.8-3&#10;&#9;&#9;c1.6-1.6,3.3-3.3,6-4c4.4-1.2,8.9-1.9,13.4-2.1c11.2-0.5,21.9,5,28.1,14.3c0.3,0.5,0.6,1,1,1.5l0,0c4.3,7.2,6.7,15.8,8.9,24.1&#10;&#9;&#9;c2.7,9.9,5.5,20.2,11.8,27.9c5.3,6.4,12.2,11.1,18.9,15.6s13.4,9,18.7,15.3c10,11.9,10.6,30.8,1.4,43c-5.1,6.8-12.6,11.3-19.2,14.8&#10;&#9;&#9;c-14.5,7.8-27.6,12-39.9,13C175.3,269.2,173.4,269.2,171.5,269.2L171.5,269.2z M148.4,101c-0.4,0-0.8,0-1.1,0&#10;&#9;&#9;c-4.4,0.2-8.8,0.9-13,2c-2.3,0.6-3.7,2.1-5.2,3.6c-1.2,1.3-2.6,2.5-4.2,3.3c-0.8,0.4-1.7,0.5-2.6,0.6h-0.2&#10;&#9;&#9;c-2.6,0.2-5.2,0.9-7.6,1.9c-6.4,2.8-10.8,11.6-13.4,18.5c-4.3,11.5-7,24.5-8.4,39.7l-0.1,1.3c-1.1,12-2.3,25.6,2.2,37.1&#10;&#9;&#9;c5.1,12.9,11.7,23.9,19.7,32.7c16,17.6,39.9,27.3,62.4,25.5c12.1-1,24.9-5.2,39.3-12.8c6.5-3.4,13.7-7.9,18.6-14.3&#10;&#9;&#9;c8.8-11.6,8.2-29.6-1.4-41c-5.1-6.1-11.8-10.6-18.4-14.9c-6.8-4.6-13.9-9.3-19.3-15.9c-6.5-7.9-9.3-18.4-12.1-28.5&#10;&#9;&#9;c-2.2-8.2-4.5-16.7-8.8-23.7l0,0c-0.3-0.5-0.6-1-0.9-1.5C168.3,106,158.7,100.9,148.4,101L148.4,101z"/>
	<path class="st2_data-processing-1-94 targetColor" d="M87.8,385.5c-4.8-30.8-22.8-157.5-2-177.8c23.7-23.1,88.8-22.1,100.7-1.2c6.5,11.3,24.7,30.4,26.1,55.2&#10;&#9;&#9;c2,35.2,12.5,101.3,15,123.9L87.8,385.5L87.8,385.5z" style="fill: rgb(255, 253, 235);"/>
	<polygon class="st1_data-processing-1-94" points="140.4,385.5 125.8,206.5 162.8,210.4 182.9,385.5 &#9;"/>
	<path class="st1_data-processing-1-94" d="M182.9,386.4h-42.6c-0.4,0-0.8-0.3-0.8-0.8l-14.5-179c0-0.5,0.3-0.9,0.8-0.9c0.1,0,0.1,0,0.2,0l37,3.9&#10;&#9;&#9;c0.4,0,0.7,0.3,0.7,0.7l20.1,175.1c0,0.5-0.3,0.9-0.7,0.9C183,386.4,183,386.4,182.9,386.4L182.9,386.4z M141.1,384.7H182&#10;&#9;&#9;l-19.9-173.5l-35.3-3.7L141.1,384.7L141.1,384.7z"/>
	<path class="st0_data-processing-1-94" d="M160.7,187.3l2.1,23.1c0,0-7,8.1-16.5,8.8c-15.4,1.2-20.5-12.7-20.5-12.7c-0.6-10.7-1.3-21.4-1.9-32.1&#10;&#9;&#9;c-0.4-7.3-4.3-22.3,2.7-27.2c1.9-1.4,4.2-2.2,6.2-3.5c6.1-3.9,9.4-10.9,8.6-18c2.6,3.2,5.4,6.4,9.1,8c3.1,1.3,6.6,1.3,10,1.2&#10;&#9;&#9;s7.4-0.7,10.7-0.1c3.5,0.7,2.4,0,3.3,3c1.1,3.6,0.6,8.6,0.8,12.4c0.4,6.9,1,13.8,1,20.7C175.6,183.2,160.7,187.2,160.7,187.3&#10;&#9;&#9;L160.7,187.3z"/>
	<path class="st1_data-processing-1-94" d="M144.4,220.1c-14.4,0-19.3-13.2-19.4-13.4c0-0.1,0-0.2-0.1-0.2c-0.3-4.8-0.5-9.6-0.8-14.5&#10;&#9;&#9;c-0.3-5.9-0.7-11.8-1-17.6c-0.1-1.5-0.3-3.4-0.6-5.4c-1-7.8-2.3-18.4,3.6-22.5c1.1-0.7,2.3-1.4,3.6-2c0.9-0.4,1.8-0.9,2.7-1.4&#10;&#9;&#9;c5.8-3.7,8.9-10.4,8.2-17.2c-0.1-0.5,0.3-0.9,0.7-0.9c0.3,0,0.6,0.1,0.8,0.3c2.4,2.9,5.1,6.2,8.8,7.8c3,1.2,6.5,1.2,9.6,1.2&#10;&#9;&#9;c1.1,0,2.2-0.1,3.4-0.2c2.5-0.3,5-0.3,7.5,0.1l1.3,0.2c1.7,0.3,2,0.5,2.3,1.9c0.1,0.4,0.2,0.8,0.4,1.4c0.7,2.9,0.9,5.8,0.8,8.8&#10;&#9;&#9;c0,1.4,0,2.7,0.1,3.9c0.1,1.6,0.2,3.2,0.3,4.9c0.4,5.2,0.7,10.6,0.7,15.9c-0.6,11.3-12.5,15.8-15.6,16.8l2.1,22.4&#10;&#9;&#9;c0,0.2-0.1,0.4-0.2,0.6c-0.3,0.3-7.4,8.3-17,9.1C145.8,220.1,145.1,220.2,144.4,220.1L144.4,220.1z M126.7,206.3&#10;&#9;&#9;c0.5,1.4,5.5,13.2,19.6,12.1c8-0.6,14.4-6.9,15.7-8.3l-2.1-22.8c0-0.4,0.2-0.8,0.6-0.9c0.1,0,14.4-4,15-15.4&#10;&#9;&#9;c0-5.2-0.4-10.6-0.7-15.7c-0.1-1.6-0.2-3.3-0.3-4.9c-0.1-1.2-0.1-2.6-0.1-4c0-2.9,0-5.9-0.7-8.3c-0.2-0.7-0.3-1.2-0.4-1.6&#10;&#9;&#9;c0-0.2-0.1-0.4-0.1-0.5c-0.3,0-0.6,0-0.8-0.1c-0.4-0.1-0.8-0.1-1.3-0.2c-2.3-0.3-4.7-0.3-7-0.1c-1.2,0.1-2.4,0.2-3.5,0.2&#10;&#9;&#9;c-3.3,0-7,0.1-10.3-1.3s-5.7-3.8-7.9-6.3c-0.2,6.6-3.6,12.7-9.1,16.2c-0.9,0.6-1.9,1.1-2.8,1.5c-1.2,0.6-2.3,1.2-3.4,1.9&#10;&#9;&#9;c-5.1,3.6-3.8,13.6-2.9,21c0.3,2,0.5,3.9,0.6,5.5c0.3,5.9,0.7,11.8,1,17.6C126.1,196.8,126.4,201.6,126.7,206.3L126.7,206.3z"/>
	<path class="st0_data-processing-1-94" d="M133.4,161.3c-1.8-4.9-8.2-8.4-13.3-7.1c-6.6,1.7-5.8,9.3-3.2,14c3.3,5.9,10.7,8.1,16.7,4.8&#10;&#9;&#9;c0.1,0,0.1-0.1,0.2-0.1"/>
	<path class="st1_data-processing-1-94" d="M127.6,175.3c-1.2,0-2.4-0.2-3.5-0.5c-3.4-1-6.2-3.2-7.9-6.3c-1.6-2.9-2.9-7.5-1.3-11.1c0.9-2.1,2.8-3.6,5-4.1&#10;&#9;&#9;c5.4-1.4,12.4,2.3,14.3,7.7c0.2,0.4,0,0.9-0.4,1.1c-0.4,0.2-0.9,0-1.1-0.4c0,0,0-0.1,0-0.1c-1.6-4.6-7.6-7.8-12.3-6.6&#10;&#9;&#9;c-1.7,0.4-3.2,1.5-3.9,3.1c-1.2,2.9-0.3,6.9,1.2,9.6c3.1,5.5,10,7.5,15.6,4.5c0,0,0.1,0,0.1-0.1c0.4-0.2,0.9,0,1.1,0.4&#10;&#9;&#9;c0.2,0.4,0.1,0.8-0.3,1.1C132.1,174.7,129.9,175.3,127.6,175.3L127.6,175.3z"/>
	<path class="st0_data-processing-1-94" d="M158.6,147.1c0,0,9.7,10.9,8.1,13.3s-7.2,1.7-7.2,1.7"/>
	<path class="st1_data-processing-1-94" d="M161.3,162.9c-0.6,0-1.2,0-1.8-0.1c-0.5-0.1-0.8-0.5-0.7-0.9c0,0,0,0,0,0c0-0.5,0.4-0.8,0.9-0.7c0,0,0,0,0,0&#10;&#9;&#9;c1.3,0.1,5.3,0.2,6.4-1.4c0.7-1-3.2-6.8-8-12.2c-0.3-0.3-0.3-0.9,0-1.2s0.9-0.3,1.2,0c0,0,0,0,0.1,0.1c3,3.4,9.9,11.7,8.1,14.3&#10;&#9;&#9;C166.1,162.6,163.2,162.9,161.3,162.9L161.3,162.9z"/>
	<path class="st1_data-processing-1-94" d="M160.7,187.3c0,0-8.6,2.4-19.7-3.4c0,0,5.4,15.9,20.9,15.9L160.7,187.3L160.7,187.3z"/>
	<path class="st1_data-processing-1-94" d="M161.8,200.6L161.8,200.6c-15.9,0-21.6-16.3-21.7-16.5c-0.1-0.4,0.1-0.9,0.5-1.1c0.2-0.1,0.5-0.1,0.7,0.1&#10;&#9;&#9;c10.7,5.6,19,3.4,19.1,3.3c0.2-0.1,0.5,0,0.7,0.1c0.2,0.1,0.3,0.4,0.4,0.6l1.1,12.5c0,0.2-0.1,0.5-0.2,0.6&#10;&#9;&#9;C162.3,200.5,162.1,200.6,161.8,200.6L161.8,200.6z M142.6,185.6c2,4.1,7.5,12.8,18.3,13.3l-1-10.6&#10;&#9;&#9;C157.5,188.8,150.9,189.4,142.6,185.6L142.6,185.6z"/>
	<ellipse class="st1_data-processing-1-94" cx="146.1" cy="149.1" rx="1.6" ry="3.7"/>
	
		<ellipse transform="matrix(0.9984 -5.617002e-02 5.617002e-02 0.9984 -7.994 9.6363)" class="st1_data-processing-1-94" cx="167.4" cy="147" rx="1.6" ry="3.7"/>
	<path class="st1_data-processing-1-94" d="M155.5,179.5c-0.4,0-0.9,0-1.3-0.1c-1.2-0.2-2.3-0.9-3-2c-2.4-3.8-0.4-11.8-0.3-12.1c0.1-0.4,0.6-0.7,1-0.6&#10;&#9;&#9;c0,0,0,0,0,0l12.6,2.6c0.4,0.1,0.7,0.5,0.6,0.9c-0.4,3.2-2.4,7.6-5.4,9.9C158.5,179,157,179.5,155.5,179.5L155.5,179.5z&#10;&#9;&#9; M152.4,166.4c-0.6,2.6-1.3,7.7,0.2,10.1c0.4,0.7,1.1,1.1,1.9,1.3c1.5,0.3,3.1-0.1,4.3-1.1c2.4-1.8,4.1-5.2,4.6-8L152.4,166.4&#10;&#9;&#9;L152.4,166.4z"/>
	<path class="st2_data-processing-1-94 targetColor" d="M242.9,264.5c6.1-3,54.2-55.7,54.2-55.7l27.9,23.4c-0.5,3.8-44.5,95.8-70.2,91.1s-81-37.6-81-37.6l12.6-79.2&#10;&#9;&#9;C186.4,206.5,236.8,267.5,242.9,264.5L242.9,264.5z" style="fill: rgb(255, 253, 235);"/>
	<path class="st1_data-processing-1-94" d="M225,366.6c-0.4,0-0.8-0.3-0.8-0.7l-21.9-126.8c-0.1-0.5,0.2-0.9,0.7-1c0.5-0.1,0.9,0.2,1,0.7l21.9,126.8&#10;&#9;&#9;c0.1,0.4-0.2,0.9-0.6,1c0,0,0,0-0.1,0L225,366.6z"/>
	<path class="st0_data-processing-1-94" d="M151.8,329.8c0.1-0.8,6.5-1.7,7.4-2c3.2-1,6.6-1.6,9.9-2.2c6.4-1.3,13.3-2.7,19.9-2.1c11.6,1-2.6,8.4-2.6,8.4&#10;&#9;&#9;s26.8-6.8,25.2,0s-14.2,13.1-22.1,15.2s-39.9,0-39.9,0S151.8,329.8,151.8,329.8L151.8,329.8z"/>
	<path class="st1_data-processing-1-94" d="M175.6,348.9c-11.5,0-25.2-0.9-26.1-0.9c-0.2,0-0.4-0.1-0.6-0.3c-0.1-0.2-0.2-0.4-0.2-0.6&#10;&#9;&#9;c0,0,2.2-17.2,2.2-17.3l0,0c0.1-1,1.3-1.4,6.4-2.3c0.8-0.1,1.4-0.2,1.6-0.3c2.8-0.8,5.7-1.4,8.6-2l1.8-0.4&#10;&#9;&#9;c6.5-1.3,13.2-2.6,19.8-2.1c2.1,0.2,4.9,0.7,5.2,2.6c0.3,1.6-1.4,3.3-3.2,4.7c6.7-1.4,17.8-3.2,20.6-0.5c0.7,0.7,1,1.7,0.7,2.6&#10;&#9;&#9;c-1.7,7.2-14.3,13.6-22.7,15.9C187,348.6,181.6,348.9,175.6,348.9L175.6,348.9z M150.5,346.4c5.2,0.3,31.9,1.8,38.8,0&#10;&#9;&#9;c8.1-2.2,20-8.4,21.5-14.6c0.1-0.4,0-0.7-0.2-1c-2.4-2.4-16,0-24,2c-0.4,0.1-0.9-0.2-1-0.6c-0.1-0.4,0.1-0.8,0.4-0.9&#10;&#9;&#9;c3.4-1.8,6.9-4.4,6.7-5.6c-0.1-0.4-1.1-1-3.8-1.3c-6.3-0.6-12.9,0.8-19.3,2l-1.8,0.4c-2.8,0.6-5.7,1.1-8.4,1.9&#10;&#9;&#9;c-0.3,0.1-0.9,0.2-1.8,0.4c-1.7,0.3-3.4,0.7-5.1,1.2C152.3,332.1,150.9,343.1,150.5,346.4L150.5,346.4z"/>
	<path class="st2_data-processing-1-94 targetColor" d="M82.4,213c-0.6,1.4-50.7,120.6-25.3,136.2s104.7,9.6,104.7,9.6l-3.2-35.3L95,314.9L82.4,213z" style="fill: rgb(255, 253, 235);"/>
	<path class="st1_data-processing-1-94" d="M155.7,324.3h-0.1L81,312.5c-0.5-0.1-0.8-0.5-0.7-1c0.1-0.5,0.5-0.8,1-0.7l0,0l74.7,11.8&#10;&#9;&#9;c0.5,0.1,0.8,0.5,0.7,0.9C156.5,324,156.2,324.3,155.7,324.3L155.7,324.3z"/>
	<path class="st1_data-processing-1-94" d="M91.2,312.5c-0.5,0-0.8-0.4-0.8-0.8c-0.2-19.7,5.2-69.5,5.3-70c0.1-0.5,0.5-0.8,0.9-0.7&#10;&#9;&#9;c0.5,0.1,0.8,0.5,0.7,0.9c0,0,0,0,0,0c0,0.5-5.5,50.1-5.3,69.8C92,312.1,91.6,312.4,91.2,312.5C91.2,312.4,91.2,312.4,91.2,312.5&#10;&#9;&#9;L91.2,312.5L91.2,312.5z"/>
	<polygon class="st0_data-processing-1-94" points="242.6,329.2 148.2,329.2 164.6,270.7 259.1,270.7 &#9;"/>
	<path class="st1_data-processing-1-94" d="M242.6,330.1h-94.4c-0.3,0-0.5-0.1-0.7-0.3c-0.2-0.2-0.2-0.5-0.1-0.7l16.4-58.6c0.1-0.4,0.4-0.6,0.8-0.6h94.4&#10;&#9;&#9;c0.3,0,0.5,0.1,0.7,0.3c0.2,0.2,0.2,0.5,0.1,0.7l-16.4,58.6C243.3,329.8,243,330.1,242.6,330.1L242.6,330.1z M149.3,328.4H242&#10;&#9;&#9;l16-56.9h-92.7L149.3,328.4L149.3,328.4z"/>
	<rect x="122.8" y="329.2" class="st0_data-processing-1-94" width="120.7" height="4.8"/>
	<path class="st1_data-processing-1-94" d="M243.6,334.9H122.8c-0.5,0-0.8-0.4-0.8-0.8v-4.8c0-0.5,0.4-0.8,0.8-0.8h120.7c0.5,0,0.8,0.4,0.8,0.8v4.8&#10;&#9;&#9;C244.4,334.5,244,334.9,243.6,334.9z M123.7,333.2h119v-3.2h-119L123.7,333.2z"/>
	<rect x="122.8" y="329.2" class="st0_data-processing-1-94" width="26.8" height="4.8"/>
	<path class="st1_data-processing-1-94" d="M149.6,334.9h-26.8c-0.5,0-0.8-0.4-0.8-0.8v-4.8c0-0.5,0.4-0.8,0.8-0.8h26.8c0.5,0,0.8,0.4,0.8,0.8v4.8&#10;&#9;&#9;C150.4,334.5,150.1,334.9,149.6,334.9z M123.7,333.2h25.1v-3.2h-25.1L123.7,333.2z"/>
	<path class="st0_data-processing-1-94" d="M175.6,334.2c5.9-1.9,11-5.5,16.3-8.6c4.3-2.5,8.9-4.9,13.9-5.6c1.9-0.3,3.7,0.1,5.6,0c1.6-0.1,3.9-0.7,5.1,1&#10;&#9;&#9;c2.2,3.1,0.5,11-11.7,19"/>
	<path class="st1_data-processing-1-94" d="M204.8,340.9c-0.5,0-0.8-0.4-0.8-0.8c0-0.3,0.1-0.5,0.4-0.7c6.7-4.4,11.1-9.5,11.9-13.9&#10;&#9;&#9;c0.4-1.3,0.2-2.7-0.5-3.9c-0.6-0.9-1.8-0.8-3.3-0.7c-0.4,0-0.7,0.1-1,0.1c-0.8,0-1.6,0-2.4-0.1c-1-0.1-2.1-0.1-3.1,0&#10;&#9;&#9;c-5,0.7-9.6,3.2-13.6,5.5c-1.1,0.6-2.2,1.3-3.3,2c-4.1,2.6-8.4,5.2-13.2,6.7c-0.4,0.2-0.9-0.1-1.1-0.5c-0.2-0.4,0.1-0.9,0.5-1.1&#10;&#9;&#9;c0,0,0.1,0,0.1,0c4.6-1.5,8.8-4,12.8-6.5c1.1-0.7,2.2-1.4,3.3-2c4.1-2.4,8.9-5,14.2-5.7c1.2-0.1,2.3-0.1,3.5,0&#10;&#9;&#9;c0.7,0.1,1.5,0.1,2.2,0.1c0.3,0,0.6,0,0.9-0.1c1.5-0.1,3.7-0.3,4.9,1.4c0.9,1.6,1.2,3.4,0.8,5.2c-0.6,2.9-2.9,8.6-12.7,15&#10;&#9;&#9;C205.1,340.9,205,340.9,204.8,340.9L204.8,340.9z"/>
	<path class="st1_data-processing-1-94" d="M323.1,209.6L323.1,209.6c-0.5,0-0.8-0.4-0.8-0.9c0,0,0,0,0,0c0.4-7.1-2.6-10-2.6-10.1c-0.3-0.3-0.3-0.8,0-1.2&#10;&#9;&#9;c0,0,0,0,0,0c0.3-0.3,0.8-0.3,1.2,0c0.1,0.1,3.5,3.4,3.1,11.4C324,209.3,323.6,209.7,323.1,209.6L323.1,209.6z"/>
</g>
<g id="Screen_data-processing-1-94">
	<polygon class="st0_data-processing-1-94" points="297.6,165.5 217.3,165.5 225.7,137.3 306,137.3 &#9;"/>
	<path class="st1_data-processing-1-94" d="M297.6,166.3h-80.3c-0.3,0-0.5-0.1-0.7-0.3c-0.2-0.2-0.2-0.5-0.1-0.7l8.4-28.2c0.1-0.3,0.4-0.6,0.8-0.6H306&#10;&#9;&#9;c0.3,0,0.5,0.1,0.7,0.3c0.2,0.2,0.2,0.5,0.1,0.7l-8.4,28.2C298.3,166.1,298,166.3,297.6,166.3z M218.4,164.7H297l7.9-26.6h-78.6&#10;&#9;&#9;L218.4,164.7z"/>
	<polygon class="st0_data-processing-1-94" points="293.7,157 295.7,150.3 230.5,150.3 228.5,157 &#9;"/>
	<path class="st1_data-processing-1-94" d="M293.7,157.9h-65.2c-0.3,0-0.5-0.1-0.7-0.3c-0.2-0.2-0.2-0.5-0.1-0.7l2-6.7c0.1-0.3,0.4-0.6,0.8-0.6h65.2&#10;&#9;&#9;c0.3,0,0.5,0.1,0.7,0.3c0.2,0.2,0.2,0.5,0.1,0.7l-2,6.7C294.4,157.6,294.1,157.9,293.7,157.9z M229.6,156.2h63.5l1.5-5.1h-63.5&#10;&#9;&#9;L229.6,156.2z"/>
	<polygon class="st1_data-processing-1-94" points="260.6,157 262.6,150.3 230.5,150.3 228.5,157 &#9;"/>
	<path class="st1_data-processing-1-94" d="M260.6,157.9h-32.2c-0.3,0-0.5-0.1-0.7-0.3c-0.2-0.2-0.2-0.5-0.1-0.7l2-6.7c0.1-0.4,0.4-0.6,0.8-0.6h32.2&#10;&#9;&#9;c0.3,0,0.5,0.1,0.7,0.3c0.2,0.2,0.2,0.5,0.1,0.7l-2,6.7C261.3,157.6,261,157.9,260.6,157.9L260.6,157.9z M229.6,156.2H260l1.5-5&#10;&#9;&#9;h-30.4L229.6,156.2z"/>
	<path class="st1_data-processing-1-94" d="M391.7,303H260c-0.3,0-0.5-0.1-0.7-0.3c-0.2-0.2-0.2-0.5-0.1-0.7l57.5-178.4c0.1-0.3,0.4-0.6,0.8-0.6h131.7&#10;&#9;&#9;c0.3,0,0.5,0.1,0.7,0.3c0.2,0.2,0.2,0.5,0.1,0.7l-57.5,178.4C392.4,302.8,392.1,303,391.7,303z M261.2,301.3h129.9l57-176.7H318.2&#10;&#9;&#9;L261.2,301.3z"/>
	<path class="st3_data-processing-1-94" d="M370,150.1h-44.1c-0.4,0-0.6-0.3-0.6-0.7c0-0.1,0-0.1,0-0.2l5.2-16.2c0.1-0.3,0.3-0.4,0.6-0.4h44.1&#10;&#9;&#9;c0.4,0,0.6,0.3,0.6,0.7c0,0.1,0,0.1,0,0.2l-5.2,16.2C370.5,149.8,370.3,150,370,150.1L370,150.1z M326.7,148.8h42.8l4.8-14.9h-42.8&#10;&#9;&#9;L326.7,148.8z"/>
	<path class="st3_data-processing-1-94" d="M429.9,133.9h-43.2c-0.4,0-0.6-0.3-0.6-0.6c0-0.4,0.3-0.7,0.6-0.7l0,0h43.2c0.4,0,0.6,0.3,0.6,0.7&#10;&#9;&#9;C430.5,133.6,430.3,133.9,429.9,133.9z"/>
	<path class="st3_data-processing-1-94" d="M426.6,144.1h-43.2c-0.4,0-0.6-0.3-0.6-0.6c0-0.4,0.3-0.7,0.6-0.7l0,0h43.2c0.4,0,0.6,0.3,0.6,0.7&#10;&#9;&#9;C427.2,143.8,426.9,144.1,426.6,144.1z"/>
	<path class="st3_data-processing-1-94" d="M423.3,154.4H380c-0.4,0-0.6-0.3-0.6-0.6c0-0.4,0.3-0.7,0.6-0.7l0,0h43.2c0.4,0,0.6,0.3,0.6,0.7&#10;&#9;&#9;C423.9,154.1,423.6,154.4,423.3,154.4z"/>
	<path class="st3_data-processing-1-94" d="M420,164.6h-43.2c-0.4,0-0.6-0.3-0.6-0.6c0-0.4,0.3-0.7,0.6-0.7l0,0H420c0.4,0,0.6,0.3,0.6,0.7&#10;&#9;&#9;C420.6,164.3,420.4,164.6,420,164.6z"/>
	<path class="st3_data-processing-1-94" d="M372.7,209.4h-7.4c-0.4,0-0.6-0.3-0.6-0.7c0-0.1,0-0.1,0-0.2l4.6-14.2c0.1-0.3,0.3-0.4,0.6-0.4h7.4&#10;&#9;&#9;c0.4,0,0.6,0.3,0.6,0.7c0,0.1,0,0.1,0,0.2l-4.6,14.2C373.3,209.3,373,209.4,372.7,209.4z M366.2,208.1h6.1l4.2-12.9h-6.1&#10;&#9;&#9;L366.2,208.1z"/>
	<path class="st3_data-processing-1-94" d="M390,209.4h-7.4c-0.4,0-0.6-0.3-0.6-0.7c0-0.1,0-0.1,0-0.2l8.5-26.2c0.1-0.3,0.3-0.4,0.6-0.4h7.4&#10;&#9;&#9;c0.4,0,0.6,0.3,0.6,0.7c0,0.1,0,0.1,0,0.2l-8.5,26.3C390.5,209.2,390.3,209.4,390,209.4z M383.5,208.1h6.1l8-25h-6.1L383.5,208.1z"/>
	<path class="st3_data-processing-1-94" d="M407.2,209.4h-7.4c-0.4,0-0.6-0.3-0.6-0.7c0-0.1,0-0.1,0-0.2l11.2-34.8c0.1-0.3,0.3-0.4,0.6-0.4h7.4&#10;&#9;&#9;c0.4,0,0.6,0.3,0.6,0.7c0,0.1,0,0.1,0,0.2L407.8,209C407.7,209.3,407.4,209.4,407.2,209.4z M400.6,208.1h6.1l10.8-33.5h-6.1&#10;&#9;&#9;L400.6,208.1z"/>
	<path class="st3_data-processing-1-94" d="M413.6,209.4h-54.8c-0.4,0-0.6-0.3-0.6-0.6c0-0.4,0.3-0.7,0.6-0.7h54.8c0.4,0,0.6,0.3,0.6,0.7&#10;&#9;&#9;C414.3,209.1,414,209.4,413.6,209.4z"/>
	<path class="st3_data-processing-1-94" d="M304.1,286H282c-0.4,0-0.6-0.3-0.6-0.7c0-0.1,0-0.1,0-0.2l15.3-47.5c0.1-0.3,0.3-0.4,0.6-0.4h22.1&#10;&#9;&#9;c0.4,0,0.6,0.3,0.6,0.7c0,0.1,0,0.1,0,0.2l-15.3,47.5C304.6,285.8,304.3,286,304.1,286L304.1,286z M282.9,284.7h20.7l14.9-46.2&#10;&#9;&#9;h-20.7L282.9,284.7z"/>
	<path class="st3_data-processing-1-94" d="M357.7,283.8c-7.2,0-13.2-2.8-16.9-7.8c-3.9-5.4-4.7-12.6-2.2-20.3l0,0c4.9-15.3,21.3-27.7,36.6-27.7&#10;&#9;&#9;c0.4,0,0.6,0.3,0.6,0.7c0,0.1,0,0.1,0,0.2l-8.5,26.4h26.3c0.4,0,0.6,0.3,0.6,0.7c0,0.1,0,0.1,0,0.2&#10;&#9;&#9;C389.4,271.3,373,283.8,357.7,283.8L357.7,283.8z M339.9,256.1c-2.4,7.3-1.6,14.1,2,19.1c3.4,4.7,9,7.2,15.8,7.2&#10;&#9;&#9;c14.5,0,30-11.6,35.1-25.9h-26.3c-0.4,0-0.6-0.3-0.6-0.7c0-0.1,0-0.1,0-0.2l8.5-26.4C359.9,229.8,344.6,241.6,339.9,256.1&#10;&#9;&#9;L339.9,256.1L339.9,256.1z"/>
	<path class="st3_data-processing-1-94" d="M399.4,252.5h-27.2c-0.4,0-0.6-0.3-0.6-0.7c0-0.1,0-0.1,0-0.2l8.8-27.2c0.1-0.3,0.3-0.5,0.6-0.5&#10;&#9;&#9;c7.2,0,13.2,2.8,16.9,7.8c3.9,5.4,4.7,12.6,2.2,20.3C400,252.3,399.7,252.5,399.4,252.5z M373.1,251.2H399&#10;&#9;&#9;c2.2-7.1,1.4-13.8-2.1-18.7c-3.3-4.6-8.8-7.1-15.4-7.2L373.1,251.2L373.1,251.2z"/>
	<path class="st3_data-processing-1-94" d="M328.4,284.7h-15.2c-0.4,0-0.7-0.3-0.7-0.6s0.3-0.7,0.6-0.7c0,0,0,0,0,0h15.2c0.4,0,0.6,0.3,0.6,0.7&#10;&#9;&#9;C329.1,284.4,328.8,284.7,328.4,284.7z"/>
	<path class="st3_data-processing-1-94" d="M325,275.7h-8.9c-0.4,0-0.6-0.3-0.6-0.7c0-0.4,0.3-0.6,0.6-0.6h8.9c0.4,0,0.6,0.3,0.6,0.7&#10;&#9;&#9;C325.6,275.4,325.4,275.7,325,275.7z"/>
	<path class="st3_data-processing-1-94" d="M326.2,215.1c-6.6,0-12.2-2.5-15.5-7.1c-3.6-4.9-4.3-11.6-2-18.7c4.5-14,19.6-25.4,33.6-25.4&#10;&#9;&#9;c6.6,0,12.2,2.5,15.5,7.1c3.6,4.9,4.3,11.6,2,18.7l0,0C355.3,203.7,340.2,215.1,326.2,215.1z M342.3,165.1c-13.5,0-28,11-32.4,24.5&#10;&#9;&#9;c-2.2,6.7-1.5,12.9,1.8,17.5c3.1,4.3,8.2,6.6,14.5,6.6c13.5,0,28-11,32.4-24.5l0,0c2.2-6.7,1.5-12.9-1.8-17.5&#10;&#9;&#9;C353.7,167.5,348.5,165.1,342.3,165.1z M359.2,189.5L359.2,189.5z"/>
	<path class="st1_data-processing-1-94" d="M311.4,386.1h-67.8c-0.3,0-0.5-0.1-0.7-0.3c-0.2-0.2-0.2-0.5-0.1-0.7l18.1-56.1c0.1-0.3,0.4-0.6,0.8-0.6h67.8&#10;&#9;&#9;c0.3,0,0.5,0.1,0.7,0.3c0.2,0.2,0.2,0.5,0.1,0.7l-18.1,56.1C312,385.9,311.7,386.1,311.4,386.1L311.4,386.1z M244.7,384.5h66.1&#10;&#9;&#9;l17.5-54.4h-66.1L244.7,384.5z"/>
	<path class="st1_data-processing-1-94" d="M325.9,340.9h-67.7c-0.5,0-0.8-0.4-0.8-0.8c0-0.5,0.4-0.8,0.8-0.8h67.7c0.5,0,0.8,0.4,0.8,0.8&#10;&#9;&#9;C326.7,340.5,326.3,340.9,325.9,340.9L325.9,340.9z"/>
	<path class="st3_data-processing-1-94" d="M422.8,310.9h-64c-0.4,0-0.6-0.3-0.6-0.7c0-0.4,0.3-0.6,0.6-0.6h64c0.4,0,0.6,0.3,0.6,0.7&#10;&#9;&#9;C423.5,310.6,423.2,310.9,422.8,310.9z"/>
	<path class="st3_data-processing-1-94" d="M420,320.5h-13.1c-0.4,0-0.6-0.3-0.6-0.7c0-0.4,0.3-0.6,0.6-0.6H420c0.4,0,0.6,0.3,0.6,0.7&#10;&#9;&#9;C420.6,320.2,420.4,320.5,420,320.5z"/>
	<path class="st3_data-processing-1-94" d="M397.7,320.5h-16c-0.4,0-0.6-0.3-0.6-0.7c0-0.4,0.3-0.6,0.6-0.6h16c0.4,0,0.6,0.3,0.6,0.7&#10;&#9;&#9;C398.4,320.2,398.1,320.5,397.7,320.5z"/>
	<path class="st3_data-processing-1-94" d="M371,320.5h-15c-0.4,0-0.6-0.3-0.6-0.7c0-0.4,0.3-0.6,0.6-0.6h15c0.4,0,0.6,0.3,0.6,0.7&#10;&#9;&#9;C371.6,320.2,371.4,320.5,371,320.5L371,320.5z"/>
	<path class="st3_data-processing-1-94" d="M416.8,331h-48.3c-0.4,0-0.7-0.3-0.7-0.6s0.3-0.7,0.6-0.7c0,0,0,0,0,0h48.3c0.4,0,0.6,0.3,0.6,0.7&#10;&#9;&#9;C417.5,330.7,417.2,331,416.8,331z"/>
	<path class="st3_data-processing-1-94" d="M359.6,331h-6.8c-0.4,0-0.7-0.3-0.7-0.6s0.3-0.7,0.6-0.7c0,0,0,0,0,0h6.8c0.4,0,0.6,0.3,0.6,0.7&#10;&#9;&#9;C360.3,330.7,360,331,359.6,331z"/>
	<path class="st3_data-processing-1-94" d="M412.7,341.5h-17.2c-0.4,0-0.6-0.3-0.6-0.7c0-0.4,0.3-0.6,0.6-0.6h17.2c0.4,0,0.6,0.3,0.6,0.7&#10;&#9;&#9;C413.3,341.2,413,341.5,412.7,341.5L412.7,341.5z"/>
	<path class="st3_data-processing-1-94" d="M382.2,341.5h-33.5c-0.4,0-0.6-0.3-0.6-0.7c0-0.4,0.3-0.6,0.6-0.6h33.5c0.4,0,0.6,0.3,0.6,0.7&#10;&#9;&#9;C382.9,341.2,382.6,341.5,382.2,341.5z"/>
	<path class="st3_data-processing-1-94" d="M258.6,144.3h-25.8c-0.4,0-0.6-0.3-0.6-0.7c0-0.4,0.3-0.6,0.6-0.6h25.8c0.4,0,0.6,0.3,0.6,0.6&#10;&#9;&#9;C259.3,144,259,144.3,258.6,144.3z"/>
	<path class="st1_data-processing-1-94" d="M416.2,358.1h-81.8c-0.3,0-0.5-0.1-0.7-0.3c-0.2-0.2-0.2-0.5-0.1-0.7l21.8-67.6c0.1-0.3,0.4-0.6,0.8-0.6H438&#10;&#9;&#9;c0.3,0,0.5,0.1,0.7,0.3c0.2,0.2,0.2,0.5,0.1,0.7L417,357.5C416.9,357.9,416.6,358.1,416.2,358.1z M335.6,356.4h80l21.3-65.9h-80&#10;&#9;&#9;L335.6,356.4z"/>
	<path class="st1_data-processing-1-94" d="M283.5,345.7c0.8-0.2,1.6-0.5,2.5-0.7l1.3-0.3c0.5-0.2,1,0.1,1.2,0.5c0,0,0,0,0,0c0.2,0.5,0.3,1.1,0.5,1.7&#10;&#9;&#9;c0.1,0.3,0.2,0.6,0.3,0.9c0.1,0.2,0.3,0.4,0.5,0.4c0.9,0.2,1.9,0.4,2.8,0.5c0.4,0,0.7-0.1,1-0.4l1.9-1.7c0.2-0.2,0.5-0.4,0.8-0.6&#10;&#9;&#9;c0.2-0.1,0.4-0.1,0.6-0.1c1.1,0.5,2.2,1.2,3.1,2.1c0.3,0.3,0.3,0.8,0.1,1.1c-0.4,0.8-0.8,1.5-1.3,2.3c-0.4,0.5-0.4,1.1-0.1,1.6&#10;&#9;&#9;c0.4,0.6,0.7,1.3,1.1,2c0.2,0.2,0.4,0.4,0.7,0.4c0.5,0,1.1,0,1.6,0s0.9,0,1.4,0c0.4,0,0.8,0.2,0.8,0.6c0,0,0,0,0,0.1&#10;&#9;&#9;c0.1,1.2,0.2,2.3,0.2,3.5c0,0.5-0.3,0.9-0.8,1.1c-0.6,0.3-1.3,0.5-1.9,0.8c-0.3,0.1-0.6,0.3-0.9,0.4c-0.4,0.2-0.7,0.5-0.8,0.9&#10;&#9;&#9;c-0.3,0.8-0.6,1.6-0.9,2.5c-0.2,0.4-0.1,0.9,0.2,1.3c0.5,0.6,1,1.1,1.5,1.7c0.4,0.4,0.4,1,0,1.4c0,0-0.1,0.1-0.1,0.1&#10;&#9;&#9;c-0.7,0.9-1.5,1.9-2.2,2.8c-0.3,0.6-1.1,0.8-1.7,0.6c-0.5-0.1-0.9-0.4-1.4-0.5s-0.7-0.2-1-0.3c-0.3-0.1-0.7,0-1,0.2&#10;&#9;&#9;c-0.8,0.5-1.6,1-2.4,1.5c-0.4,0.3-0.7,0.7-0.8,1.2c-0.1,0.5-0.1,1.1-0.2,1.6c0,0.3-0.1,0.7-0.2,1c-0.1,0.5-0.5,0.9-1,1l-3.4,0.8&#10;&#9;&#9;c-0.2,0-0.3,0-0.5,0c-0.4,0.1-0.7-0.2-0.8-0.5c-0.2-0.7-0.4-1.4-0.5-2c0,0,0-0.1,0-0.1c-0.1-0.6-0.6-1.1-1.2-1&#10;&#9;&#9;c-0.6-0.1-1.2-0.2-1.9-0.3c-0.6-0.1-1.2,0.1-1.7,0.6c-0.6,0.6-1.2,1.1-1.8,1.6s-1,0.6-1.6,0.2c-0.9-0.6-1.7-1.1-2.5-1.7&#10;&#9;&#9;c-0.5-0.3-0.5-0.7-0.2-1.3s0.7-1.2,1-1.8c0.7-1.3,0.7-1.5,0.1-2.6l-0.7-1.3c-0.2-0.4-0.7-0.7-1.2-0.6c-0.6,0-1.3,0.1-1.9,0.1&#10;&#9;&#9;c-0.3,0-0.7,0-1-0.1c-0.3,0-0.5-0.3-0.5-0.6c-0.1-1.1-0.1-2.2-0.2-3.4c0-0.2,0-0.3,0.1-0.5c0.1-0.4,0.3-0.8,0.7-0.9l2.2-1l0.7-0.3&#10;&#9;&#9;c0.4-0.2,0.6-0.5,0.8-0.9l0.8-2.4c0.2-0.4,0.1-0.9-0.2-1.2c-0.5-0.5-0.9-1-1.3-1.5l0-0.1c-0.5-0.7-0.5-1,0.1-1.8s1.5-1.8,2.2-2.7&#10;&#9;&#9;c0.3-0.5,0.9-0.7,1.4-0.5c0.6,0.2,1.3,0.5,1.9,0.7c0.6,0.3,1.4,0.2,2-0.3c0.7-0.5,1.4-0.9,2.1-1.4c0.3-0.2,0.5-0.5,0.6-0.8&#10;&#9;&#9;c0.1-0.8,0.2-1.5,0.4-2.3c0-0.5,0.2-1,0.6-1.4L283.5,345.7L283.5,345.7z M289.4,368.2c3.8-2.3,5.5-6.8,3.9-10.2&#10;&#9;&#9;c-1.3-2.8-5.7-4.2-9.8-1.7c-3.7,2.3-5.5,6.8-3.9,10.1C281.5,370.3,286.5,370.3,289.4,368.2z"/>
	<path class="st1_data-processing-1-94" d="M285.2,380.7c-0.7,0.1-1.4-0.4-1.6-1.1l-0.5-2c0-0.1,0-0.1,0-0.2c0-0.2-0.1-0.4-0.5-0.4s-0.9-0.1-1.4-0.2&#10;&#9;&#9;l-0.6-0.1c-0.4-0.1-0.8,0.1-1,0.4c-0.6,0.6-1.2,1.1-1.9,1.7c-0.7,0.7-1.8,0.9-2.6,0.3c-0.9-0.6-1.7-1.1-2.6-1.7&#10;&#9;&#9;c-0.8-0.5-1-1.6-0.5-2.3c0,0,0,0,0,0c0.2-0.5,0.5-1,0.8-1.5l0.2-0.3c0.4-0.5,0.4-1.2,0.1-1.8l-0.7-1.3c-0.1-0.2-0.3-0.2-0.4-0.2&#10;&#9;&#9;l-0.6,0l-1.3,0.1c-0.4,0-0.8,0-1.1-0.1c-0.7-0.1-1.2-0.7-1.2-1.4l-0.1-1.1c0-0.8-0.1-1.5-0.1-2.2c0-0.2,0-0.4,0.1-0.6&#10;&#9;&#9;c0.1-0.7,0.6-1.3,1.2-1.6l2.2-1c0.2-0.1,0.4-0.2,0.6-0.3c0.2-0.1,0.3-0.2,0.4-0.4c0.2-0.7,0.5-1.5,0.8-2.2l0.1-0.2&#10;&#9;&#9;c0.1-0.2,0-0.3,0-0.4l-1-1.1l-0.4-0.4c-0.8-0.7-0.9-2-0.1-2.8c0,0,0.1-0.1,0.1-0.1c0.7-0.9,1.5-1.9,2.3-2.8c0.5-0.8,1.5-1,2.3-0.7&#10;&#9;&#9;c0.7,0.2,1.3,0.5,2,0.8c0.4,0.2,0.8,0.1,1.1-0.2c0.4-0.3,0.9-0.6,1.3-0.9l0.8-0.5c0.2-0.1,0.2-0.2,0.2-0.3l0.1-0.9&#10;&#9;&#9;c0.1-0.5,0.1-0.9,0.2-1.4c0.1-0.7,0.3-1.3,0.8-1.9l0.2-0.1l0.3-0.2l0.2-0.1l0.7-0.2l1.8-0.5c0.4-0.1,0.9-0.2,1.3-0.3&#10;&#9;&#9;c0.9-0.3,1.9,0.2,2.1,1.1c0.1,0.4,0.2,0.8,0.3,1.2l0.2,0.8c0,0.2,0.1,0.3,0.1,0.5c0.8,0.2,1.8,0.4,2.7,0.5c0.1,0,0.2-0.1,0.3-0.2&#10;&#9;&#9;l0.8-0.7c0.4-0.3,0.7-0.6,1.1-1c0.3-0.3,0.6-0.5,1-0.7c0.4-0.2,0.9-0.3,1.4-0.1c1.2,0.5,2.4,1.3,3.3,2.2c0.5,0.6,0.6,1.4,0.2,2.1&#10;&#9;&#9;l-0.5,0.8c-0.3,0.5-0.5,1-0.8,1.5s-0.2,0.6-0.1,0.8c0.2,0.4,0.5,0.9,0.7,1.3l0.4,0.7c0.3-0.1,0.6-0.1,0.9-0.1h0.9h1.1&#10;&#9;&#9;c0.9-0.1,1.6,0.6,1.6,1.5c0,0,0,0,0,0c0.1,1.2,0.2,2.4,0.2,3.5c0,0.8-0.5,1.6-1.2,1.9c-0.4,0.2-0.9,0.4-1.3,0.6l-0.6,0.3l-0.8,0.4&#10;&#9;&#9;c-0.2,0.1-0.4,0.2-0.4,0.5l-0.2,0.6c-0.2,0.6-0.5,1.3-0.7,1.9c-0.1,0.3,0,0.4,0,0.5c0.2,0.3,0.5,0.6,0.7,0.8s0.5,0.6,0.8,0.9&#10;&#9;&#9;c0.7,0.7,0.7,1.8,0,2.5c-0.7,0.9-1.5,1.9-2.2,2.8c-0.6,0.9-1.6,1.2-2.6,0.9c-0.3-0.1-0.6-0.2-0.9-0.3l-0.5-0.2&#10;&#9;&#9;c-0.3-0.1-0.6-0.2-1-0.3c-0.1,0-0.2,0-0.3,0.1l-0.5,0.3c-0.6,0.4-1.3,0.8-1.9,1.2c-0.2,0.1-0.4,0.4-0.4,0.6l-0.1,0.7l-0.1,0.9&#10;&#9;&#9;c0,0.4-0.1,0.7-0.2,1.1c-0.2,0.8-0.8,1.4-1.6,1.6c-1.1,0.3-2.2,0.6-3.4,0.8C285.7,380.6,285.5,380.6,285.2,380.7L285.2,380.7&#10;&#9;&#9;L285.2,380.7z M285.1,379l0.1,0.8V379c0.1,0,0.2,0,0.3,0l3.3-0.8c0.2,0,0.4-0.2,0.4-0.4c0.1-0.3,0.1-0.6,0.2-0.9l0.1-0.9l0.1-0.7&#10;&#9;&#9;c0.1-0.7,0.5-1.4,1.1-1.8c0.6-0.4,1.3-0.8,1.9-1.2l0.5-0.3c0.5-0.3,1.1-0.4,1.6-0.3c0.4,0.1,0.7,0.2,1.1,0.4l0.6,0.2l0.8,0.3&#10;&#9;&#9;c0.3,0.1,0.4,0.1,0.8-0.3c0.8-0.9,1.5-1.8,2.2-2.8c0.2-0.3,0.2-0.3,0.1-0.4c-0.2-0.3-0.5-0.6-0.7-0.8s-0.5-0.6-0.8-0.9&#10;&#9;&#9;c-0.5-0.6-0.7-1.4-0.3-2.2c0.2-0.6,0.5-1.2,0.7-1.9l0.2-0.6c0.2-0.6,0.7-1.1,1.2-1.4c0.3-0.2,0.6-0.3,0.9-0.4l0.7-0.3&#10;&#9;&#9;c0.4-0.2,0.8-0.3,1.2-0.5c0.2-0.1,0.3-0.2,0.3-0.4c0-1.2-0.1-2.3-0.2-3.5c-0.4,0-0.7,0.1-1.1,0.1h-0.9h-1c-0.6,0-1.1-0.3-1.5-0.8&#10;&#9;&#9;l-0.4-0.7c-0.2-0.4-0.5-0.8-0.7-1.2c-0.5-0.8-0.4-1.7,0.1-2.5c0.3-0.5,0.5-1,0.8-1.4l0.5-0.8c0,0,0.1-0.1,0.1-0.1&#10;&#9;&#9;c-0.8-0.7-1.7-1.4-2.7-1.8c-0.3,0.1-0.5,0.3-0.7,0.5l-1.1,0.9l-0.8,0.8c-0.4,0.4-1.1,0.7-1.7,0.6c-1-0.1-1.9-0.3-2.9-0.5&#10;&#9;&#9;c-0.5-0.1-0.8-0.4-1-0.9c-0.1-0.3-0.2-0.6-0.3-0.9l-0.2-0.8c-0.1-0.4-0.2-0.7-0.3-1c0,0-0.1,0-0.2,0l-1.2,0.3l-1.8,0.5l-0.6,0.2&#10;&#9;&#9;c-0.2,0.3-0.3,0.6-0.3,0.9l-0.4,2.3c-0.1,0.6-0.4,1.1-0.9,1.4l-0.8,0.5c-0.4,0.3-0.9,0.6-1.3,0.9c-0.8,0.6-1.8,0.7-2.8,0.3&#10;&#9;&#9;c-0.6-0.3-1.2-0.5-1.8-0.7c-0.2-0.1-0.3-0.1-0.5,0.2c-0.8,0.9-1.5,1.8-2.2,2.7c-0.1,0.1-0.2,0.3-0.3,0.5l0,0&#10;&#9;&#9;c0.1,0.1,0.1,0.2,0.2,0.3l0.4,0.4l1,1.1c0.5,0.5,0.7,1.4,0.4,2.1l-0.1,0.2c-0.3,0.7-0.5,1.5-0.8,2.2c-0.2,0.6-0.6,1.1-1.2,1.3&#10;&#9;&#9;c-0.2,0.1-0.5,0.2-0.7,0.4l-2.2,1c-0.1,0-0.2,0.2-0.2,0.3c0,0.1,0,0.2,0,0.3c0,0.8,0.1,1.5,0.1,2.2l0,0.9c0.2,0,0.4,0,0.7,0&#10;&#9;&#9;c0.4,0,0.8,0,1.2-0.1h0.6c0.8-0.1,1.6,0.3,2,1l0.7,1.3c0.8,1.4,0.7,2-0.1,3.4l-0.2,0.4c-0.3,0.5-0.5,1-0.8,1.4&#10;&#9;&#9;c0,0.1-0.1,0.2-0.1,0.3c0.9,0.6,1.7,1.1,2.5,1.7c0.1,0,0.1,0.1,0.2,0.1c0.2-0.1,0.3-0.2,0.4-0.3c0.6-0.5,1.2-1.1,1.8-1.6&#10;&#9;&#9;c0.6-0.6,1.5-0.9,2.4-0.8l0.6,0.1c0.4,0.1,0.8,0.1,1.2,0.2c1,0,1.8,0.7,2,1.7l0.6,2.1C285.2,379.1,285.2,379,285.1,379L285.1,379z&#10;&#9;&#9; M285,370.4c-0.7,0-1.3-0.1-2-0.2c-1.8-0.4-3.3-1.7-4.1-3.4c-1.8-3.6,0.1-8.7,4.2-11.2c2.1-1.3,4.6-1.8,7-1.1&#10;&#9;&#9;c1.7,0.4,3.1,1.6,3.9,3.2c1.8,3.8,0,8.7-4.2,11.3C288.4,369.9,286.7,370.4,285,370.4L285,370.4z M287.9,355.9&#10;&#9;&#9;c-1.4,0-2.7,0.4-3.9,1.1c-3.3,2-5,6.2-3.6,9c0.6,1.2,1.7,2.2,3.1,2.5c1.9,0.4,3.9,0.1,5.5-1l0,0c3.5-2.1,5-6.1,3.6-9.1&#10;&#9;&#9;c-0.6-1.1-1.7-2-2.9-2.3C289.1,355.9,288.5,355.8,287.9,355.9L287.9,355.9z"/>
</g>
</svg>