<svg version="1.1" id="Layer_1" xmlns="http://www.w3.org/2000/svg" xmlns:xlink="http://www.w3.org/1999/xlink" x="0px" y="0px" viewBox="0 0 500 500" style="width: 166px;" xml:space="preserve" data-imageid="team-presentation-6-18" imageName="Team Presentation 6" class="illustrations_image">
<style type="text/css">
	.st0_team-presentation-6-18{fill:#FFFFFF;}
	.st1_team-presentation-6-18{fill:#231F20;}
	.st2_team-presentation-6-18{fill:#D1D3D4;}
	.st3_team-presentation-6-18{fill:#68E1FD;}
</style>
<g id="Screen_team-presentation-6-18">
	<rect x="123.7" y="103.4" class="st0_team-presentation-6-18" width="271.5" height="203.7"/>
	<path class="st1_team-presentation-6-18" d="M395.2,307.9H123.7c-0.4,0-0.7-0.3-0.7-0.7l0,0V103.4c0-0.4,0.3-0.7,0.7-0.7l0,0h271.5c0.4,0,0.7,0.3,0.7,0.7&#10;&#9;&#9;l0,0v203.7C396,307.5,395.6,307.9,395.2,307.9L395.2,307.9L395.2,307.9z M124.4,306.4h270.1V104.2H124.4L124.4,306.4L124.4,306.4z"/>
	<path class="st2_team-presentation-6-18" d="M192.4,288.9h-20.9c-0.4,0-0.7-0.3-0.7-0.7l0,0v-99.6c0-0.4,0.3-0.7,0.7-0.7h20.9c0.4,0,0.7,0.3,0.7,0.7v99.6&#10;&#9;&#9;C193,288.6,192.7,288.9,192.4,288.9L192.4,288.9z M172.1,287.6h19.6v-98.2h-19.6V287.6z"/>
	<path class="st2_team-presentation-6-18" d="M230.9,288.9H210c-0.4,0-0.7-0.3-0.7-0.7l0,0v-58.4c0-0.4,0.3-0.7,0.7-0.7h20.9c0.4,0,0.7,0.3,0.7,0.7v58.4&#10;&#9;&#9;C231.6,288.6,231.3,288.9,230.9,288.9L230.9,288.9z M210.7,287.6h19.6v-57h-19.6V287.6z"/>
	<path class="st2_team-presentation-6-18" d="M269.4,288.9h-20.9c-0.4,0-0.7-0.3-0.7-0.7l0,0V203c0-0.4,0.3-0.7,0.7-0.7h20.9c0.4,0,0.7,0.3,0.7,0.7v0v85.2&#10;&#9;&#9;C270.1,288.6,269.8,288.9,269.4,288.9C269.4,288.9,269.4,288.9,269.4,288.9z M249.2,287.6h19.5v-83.9h-19.6L249.2,287.6&#10;&#9;&#9;L249.2,287.6z"/>
	<path class="st2_team-presentation-6-18" d="M308,288.9h-20.9c-0.4,0-0.7-0.3-0.7-0.7v0v-36.6c0-0.4,0.3-0.7,0.7-0.7l0,0H308c0.4,0,0.7,0.3,0.7,0.7v0v36.6&#10;&#9;&#9;C308.7,288.6,308.4,288.9,308,288.9L308,288.9z M287.8,287.6h19.5v-35.2h-19.6L287.8,287.6z"/>
	<path class="st2_team-presentation-6-18" d="M346.5,288.9h-20.9c-0.4,0-0.7-0.3-0.7-0.7v0V203c0-0.4,0.3-0.7,0.7-0.7l0,0h20.9c0.4,0,0.7,0.3,0.7,0.7v0&#10;&#9;&#9;v85.2C347.1,288.6,346.9,288.9,346.5,288.9L346.5,288.9L346.5,288.9z M326.3,287.6h19.5v-83.9h-19.5V287.6z"/>
	<path class="st2_team-presentation-6-18" d="M346,154.6h-35.4c-0.4,0-0.7-0.3-0.7-0.7c0-0.4,0.3-0.7,0.7-0.7H346c0.4,0,0.7,0.3,0.7,0.7&#10;&#9;&#9;S346.4,154.6,346,154.6C346,154.6,346,154.6,346,154.6z"/>
	<path class="st2_team-presentation-6-18" d="M346,162.4h-35.4c-0.4,0-0.7-0.3-0.7-0.7s0.3-0.7,0.7-0.7c0,0,0,0,0,0H346c0.4,0,0.7,0.3,0.7,0.7&#10;&#9;&#9;C346.7,162.1,346.4,162.4,346,162.4z"/>
	<path class="st2_team-presentation-6-18" d="M333.7,170.2h-23.1c-0.4,0-0.7-0.3-0.7-0.7c0-0.4,0.3-0.7,0.7-0.7h23.1c0.4,0,0.7,0.3,0.7,0.7&#10;&#9;&#9;S334.1,170.2,333.7,170.2C333.7,170.2,333.7,170.2,333.7,170.2z"/>
	<path class="st2_team-presentation-6-18" d="M208.6,137.1h-35.3c-0.4,0-0.7-0.3-0.7-0.7s0.3-0.7,0.7-0.7c0,0,0,0,0,0h35.3c0.4,0,0.7,0.3,0.7,0.7&#10;&#9;&#9;C209.2,136.8,208.9,137.1,208.6,137.1z"/>
	<path class="st2_team-presentation-6-18" d="M196.3,144.9h-23c-0.4,0-0.7-0.3-0.7-0.7s0.3-0.7,0.7-0.7c0,0,0,0,0,0h23c0.4,0,0.7,0.3,0.7,0.7&#10;&#9;&#9;C197,144.6,196.7,144.9,196.3,144.9z"/>
	<path class="st2_team-presentation-6-18" d="M300.1,216.3c-10.9,0-20.5-12.3-28.3-22.2c-5.2-6.6-10.1-12.9-13.5-12.9h-0.1c-3.8,0.1-8.8,3.1-14.2,6.1&#10;&#9;&#9;c-7.1,4.1-15.2,8.8-22.8,8.4c-14.2-0.8-40.9-32.3-42.1-33.6c-0.2-0.3-0.1-0.7,0.2-0.9c0.2-0.1,0.5-0.1,0.8,0.1&#10;&#9;&#9;c0.3,0.3,27.6,32.4,41.1,33.1c7.2,0.4,15.1-4.2,22.1-8.2c5.5-3.2,10.7-6.2,14.8-6.3h0.1c4.1,0,8.8,5.9,14.6,13.4&#10;&#9;&#9;c7.6,9.7,17,21.7,27.2,21.7c0.2,0,0.4,0,0.6,0c9.2-0.4,13.5-8.3,18.1-16.6c4.3-7.8,8.7-15.8,17.4-17.4c0.4-0.1,0.7,0.2,0.8,0.5&#10;&#9;&#9;c0.1,0.4-0.2,0.7-0.5,0.8c-8.1,1.5-12.3,9.3-16.5,16.8c-4.5,8.3-9.2,16.9-19.2,17.3L300.1,216.3L300.1,216.3z"/>
	<path class="st2_team-presentation-6-18" d="M364.4,288.9H154.6c-0.4,0-0.7-0.3-0.7-0.7c0-0.4,0.3-0.7,0.7-0.7h209.8c0.4,0,0.7,0.3,0.7,0.7&#10;&#9;&#9;S364.7,288.9,364.4,288.9C364.4,288.9,364.4,288.9,364.4,288.9z"/>
	<path class="st2_team-presentation-6-18" d="M180.1,165.7c-2.3,0-4.2-1.9-4.2-4.2c0-2.3,1.9-4.2,4.2-4.2c2.3,0,4.2,1.9,4.2,4.2S182.4,165.7,180.1,165.7&#10;&#9;&#9;L180.1,165.7z M180.1,158.7c-1.6,0-2.8,1.3-2.8,2.8s1.3,2.8,2.8,2.8c1.6,0,2.8-1.3,2.8-2.8C182.9,160,181.7,158.7,180.1,158.7&#10;&#9;&#9;L180.1,158.7z"/>
	<path class="st2_team-presentation-6-18" d="M336.3,185.7c-2.3,0-4.2-1.9-4.2-4.2s1.9-4.2,4.2-4.2c2.3,0,4.2,1.9,4.2,4.2S338.6,185.7,336.3,185.7&#10;&#9;&#9;L336.3,185.7z M336.3,178.7c-1.6,0-2.8,1.3-2.8,2.8c0,1.6,1.3,2.8,2.8,2.8c1.6,0,2.8-1.3,2.8-2.8&#10;&#9;&#9;C339.1,180,337.9,178.7,336.3,178.7L336.3,178.7z"/>
	<rect x="123.7" y="103.4" class="st0_team-presentation-6-18" width="271.5" height="16.4"/>
	<path class="st1_team-presentation-6-18" d="M395.2,120.6H123.7c-0.4,0-0.7-0.3-0.7-0.7l0,0v-16.4c0-0.4,0.3-0.7,0.7-0.7l0,0h271.5c0.4,0,0.7,0.3,0.7,0.7&#10;&#9;&#9;l0,0v16.5C396,120.3,395.6,120.6,395.2,120.6C395.2,120.6,395.2,120.6,395.2,120.6z M124.4,119.2h270.1v-15H124.4L124.4,119.2&#10;&#9;&#9;L124.4,119.2z"/>
	<rect x="242.9" y="90.8" class="st0_team-presentation-6-18" width="115.7" height="81.2"/>
	<path class="st1_team-presentation-6-18" d="M358.6,172.8H242.9c-0.4,0-0.7-0.3-0.7-0.7l0,0V90.8c0-0.4,0.3-0.7,0.7-0.7l0,0h115.7c0.4,0,0.7,0.3,0.7,0.7&#10;&#9;&#9;l0,0v81.2C359.4,172.5,359,172.8,358.6,172.8L358.6,172.8z M243.6,171.3h114.3V91.6H243.6L243.6,171.3z"/>
	<path class="st3_team-presentation-6-18 targetColor" d="M276.2,112.2c7.1,7.1,14.2,14.2,21.3,21.3c0.2,0.2,0.5,0.4,0.9,0.4H331c-0.6,17.4-15.2,31-32.6,30.4&#10;&#9;&#9;c-17.4-0.6-31-15.2-30.4-32.6c0.3-7.3,3-14.3,7.9-19.7L276.2,112.2L276.2,112.2z" style="fill: rgb(104, 225, 253);"/>
	<path class="st2_team-presentation-6-18" d="M300.7,101.2v30.4h0.3l29.4-0.1c0.6,0,0.6,0,0.6-0.7c-0.7-11.8-8-22.2-18.8-27c-3.2-1.4-6.7-2.3-10.2-2.6&#10;&#9;&#9;L300.7,101.2z"/>
	<path class="st2_team-presentation-6-18" d="M298.4,131.2v-30c-3.5,0.2-7,0.9-10.3,2.2c-4,1.6-7.6,3.9-10.6,6.8L298.4,131.2L298.4,131.2z"/>
	<path class="st2_team-presentation-6-18" d="M346.7,149.2h-13.5c-0.4,0-0.7-0.3-0.7-0.7c0-0.4,0.3-0.7,0.7-0.7h13.5c0.4,0,0.7,0.3,0.7,0.7&#10;&#9;&#9;C347.4,148.9,347.1,149.2,346.7,149.2z"/>
	<path class="st2_team-presentation-6-18" d="M346.7,155.2h-13.5c-0.4,0-0.7-0.3-0.7-0.7c0-0.4,0.3-0.7,0.7-0.7h13.5c0.4,0,0.7,0.3,0.7,0.7&#10;&#9;&#9;C347.4,154.9,347.1,155.2,346.7,155.2z"/>
	<path class="st2_team-presentation-6-18" d="M342.7,161.2h-9.4c-0.4,0-0.7-0.3-0.7-0.7s0.3-0.7,0.7-0.7c0,0,0,0,0,0h9.4c0.4,0,0.7,0.3,0.7,0.7&#10;&#9;&#9;S343.1,161.2,342.7,161.2C342.7,161.2,342.7,161.2,342.7,161.2z"/>
	<path class="st2_team-presentation-6-18" d="M275.1,99.3h-14.5c-0.4,0-0.7-0.3-0.7-0.7c0-0.4,0.3-0.7,0.7-0.7h14.5c0.4,0,0.7,0.3,0.7,0.7&#10;&#9;&#9;C275.8,99,275.5,99.3,275.1,99.3z"/>
	<path class="st2_team-presentation-6-18" d="M275.1,103.2h-14.5c-0.4,0-0.7-0.3-0.7-0.7c0-0.4,0.3-0.7,0.7-0.7h14.5c0.4,0,0.7,0.3,0.7,0.7&#10;&#9;&#9;C275.8,102.8,275.5,103.2,275.1,103.2z"/>
	<path class="st2_team-presentation-6-18" d="M270.8,107h-10.1c-0.4,0-0.7-0.3-0.7-0.7c0-0.4,0.3-0.7,0.7-0.7h10.1c0.4,0,0.7,0.3,0.7,0.7&#10;&#9;&#9;C271.5,106.7,271.1,107,270.8,107L270.8,107z"/>
	<circle class="st3_team-presentation-6-18 targetColor" cx="133.5" cy="111.2" r="2.2" style="fill: rgb(104, 225, 253);"/>
	<circle class="st3_team-presentation-6-18 targetColor" cx="140.5" cy="111.2" r="2.2" style="fill: rgb(104, 225, 253);"/>
	<circle class="st3_team-presentation-6-18 targetColor" cx="147.5" cy="111.2" r="2.2" style="fill: rgb(104, 225, 253);"/>
	<rect x="171.5" y="251.7" class="st0_team-presentation-6-18" width="80.9" height="69.6"/>
	<path class="st1_team-presentation-6-18" d="M252.4,322h-80.9c-0.4,0-0.7-0.3-0.7-0.7l0,0v-69.6c0-0.4,0.3-0.7,0.7-0.7l0,0h80.9c0.4,0,0.7,0.3,0.7,0.7l0,0&#10;&#9;&#9;v69.6C253.1,321.6,252.8,322,252.4,322C252.4,322,252.4,322,252.4,322z M172.2,320.6h79.5v-68.1h-79.5V320.6z"/>
	<path class="st2_team-presentation-6-18" d="M238.1,311.2h-55c-0.4,0-0.7-0.3-0.7-0.7l0,0V265c0-0.4,0.3-0.7,0.7-0.7c0.4,0,0.7,0.3,0.7,0.7v44.9h54.3&#10;&#9;&#9;c0.4,0,0.7,0.3,0.7,0.7S238.5,311.2,238.1,311.2C238.1,311.2,238.1,311.2,238.1,311.2L238.1,311.2z"/>
	<path class="st2_team-presentation-6-18" d="M188.4,307.3c-0.4,0-0.7-0.3-0.7-0.7c0-0.2,0.1-0.4,0.3-0.5l47-36.1c0.3-0.2,0.7-0.2,0.9,0.1&#10;&#9;&#9;c0.2,0.3,0.2,0.7-0.1,0.9c0,0,0,0,0,0l-47,36.1C188.7,307.3,188.6,307.3,188.4,307.3z"/>
	<path class="st2_team-presentation-6-18" d="M234.2,277.7h-0.1c-0.4-0.1-0.6-0.4-0.5-0.8l1.1-5.8l-6.8-0.4c-0.4,0-0.6-0.3-0.6-0.7c0,0,0,0,0,0&#10;&#9;&#9;c0-0.4,0.3-0.6,0.7-0.6l7.5,0.4c0.4,0,0.7,0.4,0.6,0.7c0,0,0,0,0,0.1l-1.2,6.5C234.8,277.5,234.5,277.8,234.2,277.7L234.2,277.7z"/>
</g>
<path id="Floor_team-presentation-6-18" class="st1_team-presentation-6-18" d="M461.2,363.3h-402c-0.4,0-0.7-0.3-0.7-0.7c0-0.4,0.3-0.7,0.7-0.7h402c0.4,0,0.7,0.3,0.7,0.7&#10;&#9;C461.9,363,461.6,363.3,461.2,363.3z"/>
<g id="Character_Male_team-presentation-6-18">
	<path class="st0_team-presentation-6-18" d="M129,373.1c0,0,0.8,17,1.6,17.5s11.8,1.4,13.8-1.5l1.4-12.2L129,373.1z"/>
	<path class="st1_team-presentation-6-18" d="M136.2,391.8c-2,0.1-4-0.1-5.9-0.6c-0.4-0.2-1.1-0.6-1.9-18.1c0-0.2,0.1-0.4,0.3-0.6c0.2-0.1,0.4-0.2,0.6-0.1&#10;&#9;&#9;l16.7,3.8c0.4,0.1,0.6,0.4,0.6,0.8l-1.4,12.2c0,0.1-0.1,0.2-0.1,0.3C143.7,391.3,139.7,391.8,136.2,391.8L136.2,391.8z M131.1,390&#10;&#9;&#9;c1.6,0.4,10.8,1,12.6-1.2l1.3-11.3l-15.2-3.4C130.1,380.2,130.6,388.5,131.1,390z"/>
	<path class="st0_team-presentation-6-18" d="M75.5,383.7c0,0-1.8,9.3-1.2,9.9s9.6,1.4,11,1s4.6-3.4,4.6-3.4l2.9-11.9L75.5,383.7z"/>
	<path class="st1_team-presentation-6-18" d="M83.8,395.5c-3.1,0-9.2-0.5-10-1.3c-0.3-0.3-0.9-0.9,1-10.6c0.1-0.3,0.3-0.5,0.5-0.6l17.3-4.3&#10;&#9;&#9;c0.4-0.1,0.8,0.1,0.9,0.5c0,0.1,0,0.2,0,0.3l-2.9,11.9c0,0.1-0.1,0.3-0.2,0.4c-0.3,0.3-3.3,3.1-4.9,3.6&#10;&#9;&#9;C85,395.5,84.4,395.5,83.8,395.5L83.8,395.5z M74.9,393.2c1.2,0.5,9,1.1,10.2,0.8c0.9-0.2,2.9-2,4.1-3.1l2.6-10.5l-15.7,3.9&#10;&#9;&#9;C75.4,388,74.8,392.2,74.9,393.2L74.9,393.2z"/>
	<path class="st1_team-presentation-6-18" d="M80.8,254c0,0-3.1,80.6-8.1,129.4c0,0,8.4,5.7,24.1,1c0,0,15.7-61.5,13.5-113c0,0,15.3,67.9,14.8,110.5&#10;&#9;&#9;c0,0,11.8,1,22.6-4.5c0,0-3.3-98.9-9.2-125.6s-6.1-23-6.1-23l-47.9,15.1L80.8,254z"/>
	<path class="st1_team-presentation-6-18" d="M84.9,387c-8,0-12.3-2.8-12.6-3c-0.2-0.1-0.3-0.4-0.3-0.6c4.9-48.3,8-128.6,8.1-129.4c0-0.1,0-0.1,0-0.2&#10;&#9;&#9;l3.7-10.2c0.1-0.2,0.2-0.4,0.4-0.4l47.6-15c0.1-0.2,0.3-0.3,0.5-0.3c0.8,0,1.5-0.1,6.8,23.8c5.8,26.5,9.1,124.8,9.2,125.7&#10;&#9;&#9;c0,0.3-0.1,0.5-0.4,0.6c-7.1,3.4-15,5-22.9,4.6c-0.4,0-0.7-0.3-0.6-0.7c0.4-33.9-9.3-84.2-13.2-103c0.5,49.4-13.6,105-13.8,105.6&#10;&#9;&#9;c-0.1,0.2-0.2,0.4-0.5,0.5C93.1,386.3,89,386.9,84.9,387L84.9,387z M73.4,383.1c1.7,0.9,9.6,4.6,22.8,0.8&#10;&#9;&#9;c1.3-5.3,15.5-63.7,13.4-112.4c0-0.4,0.2-0.7,0.6-0.7c0.4,0,0.7,0.2,0.8,0.5c0.2,0.7,15.1,67.7,14.8,110c2.6,0.1,12.2,0.1,21.2-4.3&#10;&#9;&#9;c-0.2-7.3-3.5-99.6-9.1-125c-3.6-16.5-5.1-21.1-5.6-22.4l-47.2,14.8l-3.6,9.7C81.3,257.6,78.2,335.5,73.4,383.1L73.4,383.1z"/>
	<path class="st0_team-presentation-6-18" d="M95.7,141.3c-0.7-3-2.3-5.4-3-8.4c-0.7-3.3-0.6-6.7,0.4-9.9c0.3-1.3,1-2.5,2-3.5c0.9-0.8,1.9-0.4,3-0.7&#10;&#9;&#9;s1.3-0.8,2.3-1.5c2-1.5,4.4-2.4,6.8-2.7c3.2-0.5,6.4-0.2,9.5,0.8c3.1,1,5.6,3.3,6.9,6.3c1.3,3.2,0.6,6.6,0.6,10&#10;&#9;&#9;c-0.1,3.3-1.4,6.4-3.7,8.8c-2.2,2.3-5.2,3.8-8.3,4.3c-3.1,0.5-6.4,0.4-9.5-0.2c-1.7-0.2-3.3-0.8-4.7-1.6&#10;&#9;&#9;C96.6,141.9,96,142.9,95.7,141.3L95.7,141.3z"/>
	<path class="st1_team-presentation-6-18" d="M108.4,145.7c-2,0-3.9-0.2-5.8-0.6c-1.8-0.2-3.5-0.8-5-1.7c-0.3-0.2-0.6-0.3-1-0.3c-0.8-0.1-1.3-0.4-1.6-1.6&#10;&#9;&#9;c-0.4-1.4-0.8-2.8-1.5-4.1c-0.6-1.4-1.1-2.8-1.5-4.3c-0.8-3.4-0.6-7,0.4-10.3c0.4-1.4,1.2-2.8,2.2-3.8c0.6-0.5,1.5-0.8,2.3-0.8&#10;&#9;&#9;c0.3,0,0.7,0,1-0.1c0.5-0.1,1-0.4,1.3-0.8c0.2-0.2,0.4-0.4,0.7-0.6c2.1-1.6,4.6-2.6,7.2-2.9c3.3-0.5,6.7-0.2,9.8,0.8&#10;&#9;&#9;c3.3,1.1,5.9,3.5,7.3,6.7c1.1,2.6,0.9,5.2,0.8,7.8c0,0.8-0.1,1.6-0.1,2.4c-0.1,3.5-1.4,6.8-3.8,9.3c-2.3,2.4-5.4,4-8.7,4.5&#10;&#9;&#9;C111.1,145.6,109.8,145.7,108.4,145.7L108.4,145.7z M96.6,141.6c0.1,0,0.1,0,0.2,0c0.6,0,1.2,0.2,1.7,0.6c1.4,0.8,2.9,1.3,4.5,1.5&#10;&#9;&#9;c3,0.6,6.2,0.7,9.2,0.2c3-0.5,5.8-1.9,7.9-4.1c2.2-2.2,3.4-5.2,3.5-8.3c0-0.8,0.1-1.7,0.1-2.5c0.2-2.5,0.3-4.9-0.6-7.2&#10;&#9;&#9;c-1.3-2.8-3.6-4.9-6.5-5.9c-2.9-1-6.1-1.2-9.2-0.7c-2.4,0.3-4.6,1.1-6.5,2.6c-0.2,0.2-0.4,0.3-0.6,0.5c-0.5,0.5-1.2,0.9-1.9,1.1&#10;&#9;&#9;c-0.4,0.1-0.9,0.2-1.3,0.2c-0.5-0.1-1,0.1-1.4,0.4c-0.9,0.9-1.5,2-1.8,3.2c-1,3.1-1.1,6.4-0.4,9.6c0.4,1.4,0.8,2.8,1.5,4.1&#10;&#9;&#9;c0.7,1.4,1.2,2.8,1.5,4.3l0,0C96.4,141.3,96.5,141.5,96.6,141.6L96.6,141.6L96.6,141.6z"/>
	<path class="st0_team-presentation-6-18" d="M138.5,241c-3.9-18.4-11.3-78.1-13-78.9c-4.2-1.9-26.7-4.1-31.7,4.5c-1.6,2.7-2.6,61.5-0.6,77.2L138.5,241z"/>
	<path class="st1_team-presentation-6-18" d="M93.2,244.6c-0.4,0-0.7-0.3-0.7-0.6c-2-15.7-1.1-74.7,0.7-77.7c5.5-9.3,28.6-6.6,32.6-4.8&#10;&#9;&#9;c1.1,0.5,2.1,6,6.6,36.8c2.4,16.7,5,34,6.8,42.6c0,0.2,0,0.4-0.1,0.6c-0.1,0.2-0.3,0.3-0.5,0.3L93.2,244.6L93.2,244.6L93.2,244.6z&#10;&#9;&#9; M112.6,161.1c-7.3,0-15.5,1.4-18.1,5.9c-1.4,2.7-2.6,58.7-0.6,76.1l43.8-2.7c-1.8-8.9-4.3-25.6-6.7-41.9&#10;&#9;&#9;c-2.3-15.9-4.9-33.8-5.9-35.7C123.1,161.9,118,161.1,112.6,161.1z"/>
	<polygon class="st1_team-presentation-6-18" points="117,170.7 114.2,177.4 121.1,217.4 116.2,225.7 108.2,219.9 111,177.1 103.9,168.3 &#9;"/>
	<path class="st1_team-presentation-6-18" d="M116.2,226.4c-0.1,0-0.3,0-0.4-0.1l-8-5.8c-0.2-0.1-0.3-0.4-0.3-0.6l2.8-42.6l-6.9-8.6&#10;&#9;&#9;c-0.2-0.2-0.2-0.5-0.1-0.8c0.2-0.3,0.4-0.4,0.7-0.3l13.1,2.4c0.2,0,0.4,0.2,0.5,0.4c0.1,0.2,0.1,0.4,0,0.6l-2.8,6.5l6.9,39.8&#10;&#9;&#9;c0,0.2,0,0.3-0.1,0.5l-4.9,8.3c-0.1,0.2-0.3,0.3-0.5,0.3L116.2,226.4L116.2,226.4z M108.9,219.5l7,5.2l4.4-7.4l-6.9-39.8&#10;&#9;&#9;c0-0.1,0-0.3,0-0.4l2.6-5.9l-10.4-1.9l5.9,7.3c0.1,0.1,0.2,0.3,0.2,0.5L108.9,219.5L108.9,219.5z"/>
	<path class="st3_team-presentation-6-18 targetColor" d="M106,262.2l-6.3-98.7l21.6-0.8l-0.6,97.9h22.8c-3.2-27.9-3.5-94-6.1-96.8c-9.9-10.8-35.4-7.2-35.4-7.2&#10;&#9;&#9;s-18.3,0.9-24.2,11.6c-1.4,2.7-2,84-1.8,95.7L106,262.2L106,262.2z" style="fill: rgb(104, 225, 253);"/>
	<path class="st0_team-presentation-6-18" d="M119.6,156.4l1.2,7.5c0,0-1.2,11-9.5,9.1c-5-1.3-9.3-4.7-11.6-9.4l-1.1-19.9c0,0,6.1-3.3,4.2-16.6&#10;&#9;&#9;c6.8,2.8,14.2,3.8,21.5,2.8c0,0,3,13.7,2,20.1C126,153.4,123.1,156.2,119.6,156.4L119.6,156.4z"/>
	<path class="st1_team-presentation-6-18" d="M113.1,173.9c-0.7,0-1.3-0.1-2-0.2c-5.3-1.3-9.7-4.9-12.1-9.8c0-0.1-0.1-0.2-0.1-0.2l-1.1-19.9&#10;&#9;&#9;c0-0.3,0.1-0.5,0.4-0.7c0,0,5.6-3.3,3.8-15.9c0-0.3,0.1-0.5,0.3-0.7c0.2-0.2,0.5-0.2,0.7-0.1c6.7,2.8,13.9,3.7,21.1,2.7&#10;&#9;&#9;c0.4-0.1,0.7,0.2,0.8,0.6c0.1,0.6,3,13.9,2,20.4c-0.3,3.6-3.1,6.5-6.6,7l1,6.8c0,0.1,0,0.1,0,0.2c0,0.2-0.7,6.1-4.4,8.7&#10;&#9;&#9;C115.8,173.5,114.5,173.9,113.1,173.9L113.1,173.9z M100.4,163.3c0.4,0.9,3.8,7.2,11,8.9c1.6,0.5,3.4,0.2,4.8-0.8&#10;&#9;&#9;c2.9-2.1,3.7-6.9,3.8-7.6l-1.2-7.4c-0.1-0.4,0.2-0.8,0.6-0.8c0,0,0.1,0,0.1,0c3.2-0.2,5.8-2.7,6-5.8c0.8-5.4-1.3-16.4-1.9-19.2&#10;&#9;&#9;c-6.8,0.8-13.7,0-20.1-2.4c1.2,10.9-3,14.8-4.3,15.8l1,19.4L100.4,163.3z"/>
	<path class="st0_team-presentation-6-18" d="M115.3,137.8c0,0,3.9,7.2,2.7,8.3s-4.2,0-4.2,0"/>
	<path class="st1_team-presentation-6-18" d="M116.4,147.3c-0.9,0-1.9-0.2-2.7-0.5c-0.4-0.1-0.5-0.5-0.4-0.9c0.1-0.4,0.5-0.5,0.9-0.4c0,0,0,0,0,0&#10;&#9;&#9;c0.8,0.3,2.8,0.7,3.4,0.1c0.3-0.6-1.1-4.1-2.9-7.4c-0.2-0.3-0.1-0.8,0.2-1c0,0,0,0,0.1,0c0.3-0.2,0.8-0.1,1,0.2c0,0,0,0,0,0&#10;&#9;&#9;c1.9,3.5,3.9,8,2.6,9.1C118,147.1,117.2,147.3,116.4,147.3L116.4,147.3z"/>
	
		<ellipse transform="matrix(0.9991 -4.205003e-02 4.205003e-02 0.9991 -5.6407 4.8047)" class="st1_team-presentation-6-18" cx="111.4" cy="136.5" rx="0.8" ry="1.9"/>
	
		<ellipse transform="matrix(0.9991 -4.205003e-02 4.205003e-02 0.9991 -5.6314 5.2526)" class="st1_team-presentation-6-18" cx="122" cy="136.5" rx="0.8" ry="1.9"/>
	<path class="st0_team-presentation-6-18" d="M103.9,140.2c-0.7-1.3-1.7-2.4-2.8-3.2c-0.6-0.5-1.3-0.8-2.1-0.9c-0.6,0-1.3,0.2-1.8,0.5&#10;&#9;&#9;c-1.6,1-2.8,2.6-3.2,4.4c-0.2,0.9-0.1,1.7,0.1,2.6c0.5,1.3,1.4,2.4,2.6,3.1c1.2,0.7,2.5,1.2,3.8,1.6"/>
	<path class="st1_team-presentation-6-18" d="M100.4,149.1c-0.1,0-0.2,0-0.2,0c-1.4-0.4-2.7-1-3.9-1.7c-1.3-0.8-2.4-2-2.9-3.5c-0.3-1-0.3-2-0.1-3&#10;&#9;&#9;c0.4-2.1,1.7-3.9,3.5-5c0.7-0.4,1.4-0.6,2.2-0.6c0.9,0.1,1.8,0.5,2.5,1.1c1.2,0.9,2.2,2.1,3,3.4c0.2,0.3,0.1,0.8-0.3,1&#10;&#9;&#9;c-0.3,0.2-0.8,0.1-1-0.3c-0.7-1.2-1.6-2.2-2.7-3c-0.5-0.4-1.1-0.7-1.7-0.8c-0.5,0-1,0.2-1.4,0.4c-1.5,0.9-2.5,2.3-2.8,4&#10;&#9;&#9;c-0.2,0.7-0.1,1.5,0.1,2.2c0.4,1.2,1.3,2.1,2.3,2.7c1.1,0.7,2.4,1.2,3.6,1.6c0.4,0.1,0.6,0.5,0.5,0.9&#10;&#9;&#9;C101,148.9,100.7,149.1,100.4,149.1L100.4,149.1z"/>
	<path class="st1_team-presentation-6-18" d="M119.6,156.4c-4.8,0.7-9.6-0.1-13.9-2.3c0,0,7.1,10.9,15,9.4L119.6,156.4z"/>
	<path class="st1_team-presentation-6-18" d="M119.1,164.3c-7.5,0-13.7-9.4-14-9.8c-0.2-0.3-0.1-0.6,0.1-0.9c0.2-0.2,0.6-0.3,0.8-0.2&#10;&#9;&#9;c4.1,2.1,8.8,2.9,13.4,2.2c0.2,0,0.4,0,0.5,0.1c0.2,0.1,0.3,0.3,0.3,0.5l1.1,7.1c0.1,0.4-0.2,0.7-0.6,0.8&#10;&#9;&#9;C120.2,164.2,119.7,164.3,119.1,164.3L119.1,164.3z M107.8,155.8c2.3,2.9,7,7.5,12,7l-0.9-5.7C115.2,157.6,111.4,157.1,107.8,155.8&#10;&#9;&#9;L107.8,155.8z"/>
	<path class="st1_team-presentation-6-18" d="M109,143.3c-3.8,0-6.8-3-6.8-6.8c0-3.8,3-6.8,6.8-6.8c3.8,0,6.8,3,6.8,6.8l0,0&#10;&#9;&#9;C115.8,140.2,112.8,143.3,109,143.3z M109,131.1c-3,0-5.4,2.4-5.4,5.4s2.4,5.4,5.4,5.4s5.4-2.4,5.4-5.4&#10;&#9;&#9;C114.4,133.5,112,131.1,109,131.1z"/>
	<path class="st1_team-presentation-6-18" d="M122.2,143.3c-3.8,0-6.8-3-6.8-6.8c0-3.8,3-6.8,6.8-6.8c3.8,0,6.8,3,6.8,6.8l0,0&#10;&#9;&#9;C129,140.2,125.9,143.3,122.2,143.3z M122.2,131.1c-3,0-5.4,2.4-5.4,5.4s2.4,5.4,5.4,5.4s5.4-2.4,5.4-5.4&#10;&#9;&#9;C127.5,133.5,125.1,131.1,122.2,131.1z"/>
	<path class="st0_team-presentation-6-18" d="M200.8,182.7c0-0.9,4.6-3.5,5.4-4.2c2.8-2.7,5.5-5.4,8.3-8c0.7-0.9,1.8-1.5,2.9-1.7c0.2,0,0.4,0,0.6,0.1&#10;&#9;&#9;c0.5,0.4,0.3,1.2,0,1.7c-1.3,2.2-2.7,4.3-4.2,6.3c4-2.5,8.1-4.9,12.3-7.2c0.6-0.4,1.5-0.7,2.1-0.3c0.4,0.3,0.6,0.7,0.7,1.2&#10;&#9;&#9;c0.2,2-0.2,4-1.4,5.7c-3.1,5.5-8.4,9.2-13.7,12.4c-2.6,1.5-4.8,3.3-7.3,5c-0.5,0.3-5.1,2.8-5,3.3&#10;&#9;&#9;C201.5,197.1,200.9,182.8,200.8,182.7L200.8,182.7z"/>
	<path class="st1_team-presentation-6-18" d="M201.4,197.7c-0.4,0-0.7-0.3-0.7-0.7l-0.6-14.3l0,0c0-0.9,1.2-1.8,4-3.6c0.6-0.3,1.1-0.7,1.6-1.1l5.5-5.3&#10;&#9;&#9;l2.8-2.7c0.8-1.1,2.1-1.8,3.4-2c0.4,0,0.7,0.1,1,0.2c0.8,0.5,0.8,1.6,0.2,2.7s-1.4,2.3-2.1,3.4c3-1.8,6.1-3.6,9.2-5.3&#10;&#9;&#9;c0.8-0.6,1.9-0.7,2.8-0.3c0.6,0.4,0.9,1,1,1.7c0.4,1.8-0.1,3.9-1.4,6.2c-3.2,5.8-8.9,9.6-14,12.7c-1.5,0.9-2.9,1.9-4.4,2.9&#10;&#9;&#9;c-0.9,0.7-1.9,1.4-2.9,2c-0.1,0.1-0.4,0.3-0.9,0.5c-1.4,0.7-2.7,1.6-3.9,2.5C201.9,197.5,201.7,197.7,201.4,197.7L201.4,197.7z&#10;&#9;&#9; M201.5,182.8l0.6,12.6c0.7-0.5,1.7-1.1,3.2-1.9c0.4-0.2,0.7-0.4,0.8-0.4c1-0.6,1.9-1.3,2.8-2c1.4-1,2.9-2.1,4.5-3&#10;&#9;&#9;c4.9-2.9,10.4-6.7,13.4-12.1c1-1.5,1.5-3.4,1.3-5.2c0-0.3-0.2-0.6-0.4-0.8c-0.3-0.2-1.1,0.2-1.4,0.3c-4.1,2.3-8.2,4.7-12.2,7.2&#10;&#9;&#9;c-0.3,0.2-0.8,0.1-1-0.2c-0.2-0.3-0.2-0.6,0-0.9c1.5-2,2.9-4,4.1-6.2c0.2-0.2,0.2-0.5,0.2-0.8h-0.2c-1,0.2-1.9,0.8-2.5,1.6&#10;&#9;&#9;l-2.8,2.7l-5.5,5.3c-0.6,0.5-1.2,0.9-1.9,1.3C203.7,181,202.5,181.8,201.5,182.8L201.5,182.8z"/>
	<path class="st3_team-presentation-6-18 targetColor" d="M137.3,163.8c0,0,23.4,19.2,27.9,21.5s37.8-7.8,37.8-7.8l8.9,15.7c0,0-34.5,17.1-48.3,16.6&#10;&#9;&#9;s-31.2-24.4-31.2-24.4" style="fill: rgb(104, 225, 253);"/>
	<path class="st1_team-presentation-6-18" d="M212.1,185.3c-0.1,0-0.3,0-0.4-0.1c-0.3-0.2-0.4-0.7-0.2-1c3-4.2,1.7-6.8,1.7-6.9c-0.2-0.3-0.1-0.8,0.3-1&#10;&#9;&#9;c0,0,0,0,0,0c0.3-0.2,0.8-0.1,1,0.2c0,0,0,0,0,0c0.1,0.1,1.8,3.5-1.8,8.5C212.6,185.2,212.4,185.3,212.1,185.3L212.1,185.3z"/>
	<path class="st1_team-presentation-6-18" d="M115.5,151.4c-3.2,0-6.2-1.7-7.9-4.4c-0.2-0.3-0.2-0.7,0.1-1c0,0,0,0,0.1,0c0.3-0.2,0.8-0.2,1,0.2c0,0,0,0,0,0&#10;&#9;&#9;c2,3.4,6.2,4.8,9.8,3.2c0.4-0.2,0.8,0,0.9,0.3c0.2,0.4,0,0.8-0.3,0.9C118.1,151.2,116.8,151.4,115.5,151.4L115.5,151.4z"/>
	<path class="st1_team-presentation-6-18" d="M139.9,216.8L139.9,216.8c-0.5,0-0.8-0.4-0.7-0.8c0,0,0,0,0,0l3.6-36.9c0-0.4,0.4-0.7,0.8-0.7&#10;&#9;&#9;c0.4,0,0.7,0.4,0.6,0.8l-3.6,36.8C140.5,216.5,140.2,216.8,139.9,216.8L139.9,216.8z"/>
	<polygon class="st0_team-presentation-6-18" points="99.4,234 108.2,191.7 147.7,194.7 136.8,238 &#9;"/>
	<path class="st1_team-presentation-6-18" d="M136.8,238.7L136.8,238.7l-37.5-4c-0.2,0-0.4-0.1-0.5-0.3c-0.1-0.2-0.2-0.4-0.1-0.6l8.8-42.3&#10;&#9;&#9;c0.1-0.4,0.4-0.6,0.8-0.6l39.4,3c0.2,0,0.4,0.1,0.5,0.3c0.1,0.2,0.2,0.4,0.1,0.6l-10.9,43.3C137.4,238.5,137.1,238.7,136.8,238.7&#10;&#9;&#9;L136.8,238.7z M100.3,233.4l36,3.9l10.5-41.9l-37.9-2.9L100.3,233.4L100.3,233.4z"/>
	<path class="st0_team-presentation-6-18" d="M90.8,214.5c0,0,9.4-6.3,12.8-7.6c4.6-1.7,8.9-2.2,9.5,0.2s-1.1,8.4-3,9.8s-5.9,2.6-8.1,4.8s-11.2,5-11.2,5&#10;&#9;&#9;L90.8,214.5z"/>
	<path class="st1_team-presentation-6-18" d="M90.8,227.4c-0.2,0-0.3-0.1-0.4-0.1c-0.2-0.1-0.3-0.4-0.3-0.6v-12.2c0-0.2,0.1-0.5,0.3-0.6&#10;&#9;&#9;c0.4-0.3,9.5-6.4,13-7.7c2.4-0.9,6.8-2.2,9.1-1c0.7,0.3,1.2,1,1.3,1.7c0.6,2.6-1.1,8.9-3.2,10.5c-1,0.7-2.1,1.3-3.2,1.8&#10;&#9;&#9;c-1.8,0.7-3.4,1.7-4.8,2.9c-2.3,2.3-11.1,5-11.5,5.1C91,227.3,90.9,227.3,90.8,227.4L90.8,227.4z M91.5,214.9v10.8&#10;&#9;&#9;c2.9-1,8.4-3,10-4.5c1.6-1.3,3.3-2.4,5.2-3.2c1-0.5,2-1,2.9-1.6c1.6-1.2,3.3-6.8,2.7-9c-0.1-0.3-0.3-0.6-0.6-0.8&#10;&#9;&#9;c-1.3-0.7-4.2-0.3-7.9,1.1C100.9,208.7,93.2,213.8,91.5,214.9L91.5,214.9z"/>
	<path class="st3_team-presentation-6-18 targetColor" d="M81.4,163.8c0,0-43.3,45.9-43.3,66.1s54.1-1,54.1-1l1-18.9l-27.6,7.7l26.5-26.1L81.4,163.8L81.4,163.8z" style="fill: rgb(104, 225, 253);"/>
	<path class="st1_team-presentation-6-18" d="M59.2,220.3c-0.4,0-0.7-0.3-0.8-0.7c0-0.3,0.2-0.7,0.6-0.7l34-9.5c0.4-0.1,0.8,0.1,0.9,0.5&#10;&#9;&#9;c0.1,0.4-0.1,0.8-0.5,0.9l-34.1,9.5C59.3,220.3,59.2,220.3,59.2,220.3z"/>
	<path class="st1_team-presentation-6-18" d="M72.5,214c-0.4,0-0.7-0.3-0.7-0.7c0-0.2,0.1-0.3,0.2-0.5L88.1,195c0.3-0.3,0.7-0.3,1,0c0.3,0.3,0.3,0.7,0,1&#10;&#9;&#9;l0,0L73,213.8C72.9,213.9,72.7,214,72.5,214z"/>
	<path class="st1_team-presentation-6-18" d="M74.3,393.6c-0.3,2.3-0.4,4.6-0.1,6.9c0.5,2.9,34.7,12.6,35.3,6.3s-19.6-15.5-19.6-15.5S78.1,395.6,74.3,393.6&#10;&#9;&#9;L74.3,393.6z"/>
	<path class="st1_team-presentation-6-18" d="M104.4,409.6c-8.8,0-30.4-5.7-30.9-9c-0.3-2.4-0.2-4.7,0.1-7.1c0-0.2,0.2-0.4,0.4-0.5c0.2-0.1,0.4-0.1,0.6,0&#10;&#9;&#9;c2.9,1.5,11.8-1.2,15-2.4c0.2-0.1,0.4-0.1,0.5,0c2.1,1,20.6,9.6,20,16.2c-0.2,1.7-1.9,2.6-5.2,2.7L104.4,409.6L104.4,409.6z&#10;&#9;&#9; M74.9,394.6c-0.2,1.9-0.2,3.9,0,5.8c1,1.9,23.8,9.1,31.9,7.6c1.3-0.2,2-0.7,2-1.3c0.4-4.7-13.3-12.1-18.9-14.7&#10;&#9;&#9;C87.9,392.7,79.2,395.7,74.9,394.6L74.9,394.6z"/>
	<path class="st1_team-presentation-6-18" d="M130.6,390.6c0,0-3.5,7.5,0,10.6s35.9,8.8,35.1,4.3S144.4,389,144.4,389S134.9,391.7,130.6,390.6L130.6,390.6z&#10;&#9;&#9;"/>
	<path class="st1_team-presentation-6-18" d="M160.4,407.9c-9.4,0-27.4-3.6-30.3-6.1c-3.9-3.5-0.3-11.1-0.2-11.5c0.1-0.3,0.5-0.5,0.8-0.4&#10;&#9;&#9;c4.1,1.1,13.3-1.5,13.4-1.5c0.2-0.1,0.4,0,0.5,0.1c2.1,1.2,20.9,12.3,21.7,17c0.1,0.7-0.3,1.5-1,1.7&#10;&#9;&#9;C163.8,407.8,162.1,408,160.4,407.9L160.4,407.9z M131,391.4c-0.7,1.7-2.6,7,0.1,9.3c3.1,2.8,29.6,7.5,33.8,5.2&#10;&#9;&#9;c0.3-0.1,0.3-0.2,0.2-0.3c-0.5-3-12.9-11.3-20.8-15.9C142.7,390.2,135.2,392.2,131,391.4z"/>
</g>
<g id="Character_Female_team-presentation-6-18">
	<path class="st0_team-presentation-6-18" d="M412.2,328.6c0,0,4.1,45.4,9.3,65c0.9,3.4,12.6,3.6,15.6,1.6s-2.2-63.6-2.3-63.8L412.2,328.6L412.2,328.6z"/>
	<path class="st1_team-presentation-6-18" d="M430.4,397.2c-2.3,0.1-4.6-0.3-6.8-1c-1.2-0.3-2.2-1.2-2.7-2.4c-5.2-19.4-9.3-64.7-9.4-65.1&#10;&#9;&#9;c0-0.2,0.1-0.4,0.2-0.6c0.2-0.2,0.4-0.2,0.6-0.2l22.7,2.9c0.3,0,0.5,0.3,0.6,0.6c0.1,0.6,5.6,62.2,2,64.5&#10;&#9;&#9;C436.2,396.8,433.4,397.2,430.4,397.2L430.4,397.2z M413,329.5c0.6,6.5,4.4,46.2,9.2,64c0.1,0.5,0.8,1,1.8,1.4&#10;&#9;&#9;c3.7,1.4,10.7,1.1,12.7-0.2c2.1-2.8-1.8-54.1-2.5-62.5L413,329.5L413,329.5z"/>
	<path class="st0_team-presentation-6-18" d="M371.1,324.5l-1.4,62.5c0,0,9,6.8,15.8,5.2l8.2-64.5L371.1,324.5z"/>
	<path class="st1_team-presentation-6-18" d="M383.3,393.2c-6.5,0-13.7-5.4-14-5.6c-0.2-0.1-0.3-0.3-0.3-0.6l1.4-62.4c0-0.4,0.3-0.7,0.7-0.7&#10;&#9;&#9;c0,0,0.1,0,0.1,0l22.5,3.1c0.4,0.1,0.7,0.4,0.6,0.8c0,0,0,0,0,0l-8.2,64.5c0,0.3-0.3,0.5-0.6,0.6&#10;&#9;&#9;C384.8,393.1,384.1,393.2,383.3,393.2L383.3,393.2z M370.4,386.6c1.5,1.1,8.7,5.9,14.4,5l8-63.3l-21.1-3L370.4,386.6z"/>
	<path class="st1_team-presentation-6-18" d="M370.9,242.1l-6.1,101.2c0,0,54.6,13.7,77.2,3c0,0-6.6-78.6-19.8-103.7L370.9,242.1L370.9,242.1z"/>
	<path class="st1_team-presentation-6-18" d="M417.5,351.1c-7.6-0.1-15.1-0.6-22.6-1.6c-10.2-1.3-20.2-3.2-30.2-5.5c-0.3-0.1-0.5-0.4-0.5-0.7l6.1-101.2&#10;&#9;&#9;c0-0.4,0.3-0.7,0.7-0.7l0,0l51.4,0.5c0.3,0,0.5,0.1,0.6,0.4c13.1,24.9,19.8,103.2,19.9,104c0,0.3-0.1,0.6-0.4,0.7&#10;&#9;&#9;C436.5,349.7,428.2,351.1,417.5,351.1L417.5,351.1z M365.6,342.7c5.8,1.4,54.6,12.7,75.8,3.2c-0.6-6.6-7.2-78.6-19.5-102.6&#10;&#9;&#9;l-50.3-0.5L365.6,342.7L365.6,342.7z"/>
	<path class="st0_team-presentation-6-18" d="M338.6,235.9c0,0-3.6,2.4-6.2,2.1s-8.5-1.2-8.6,1.9s6.5,13.2,6.5,13.3s15.5-9.1,15.5-9.1L338.6,235.9z"/>
	<path class="st1_team-presentation-6-18" d="M330.1,253.9c-0.1,0-0.1,0-0.2-0.1c-0.1-0.1-0.2-0.2-0.3-0.3l-0.3-0.6c-4.3-6.8-6.3-11.1-6.2-13.1&#10;&#9;&#9;c0-0.7,0.4-1.4,1-1.9c1.8-1.5,5.5-1,7.9-0.7l0.5,0.1c2.3,0.3,5.6-2,5.7-2c0.3-0.2,0.7-0.2,0.9,0.1l7.2,8.2c0.1,0.2,0.2,0.4,0.2,0.6&#10;&#9;&#9;c0,0.2-0.1,0.4-0.3,0.5C332.6,252.7,330.7,253.9,330.1,253.9L330.1,253.9z M328.1,238.4c-1.1-0.1-2.2,0.1-3.1,0.7&#10;&#9;&#9;c-0.3,0.2-0.4,0.6-0.5,0.9c-0.1,1.1,0.9,4.1,6,12.2v0.1c2-1.1,9-5.3,14.2-8.4l-6.2-7.1c-1.1,0.7-3.9,2.2-6.1,1.9l-0.5-0.1&#10;&#9;&#9;C330.6,238.5,329.3,238.4,328.1,238.4L328.1,238.4z"/>
	<path class="st3_team-presentation-6-18 targetColor" d="M377.7,169.8c0,0-16.1,45.5-21.5,47.9s-21.4,16.2-21.4,16.2l9.1,13.9c0,0,19.2-12.1,27.2-19.2&#10;&#9;&#9;S377.7,169.8,377.7,169.8L377.7,169.8z" style="fill: rgb(104, 225, 253);"/>
	
		<rect x="301.3" y="233.2" transform="matrix(0.8766 -0.4811 0.4811 0.8766 -83.2084 184.501)" class="st0_team-presentation-6-18" width="33.9" height="42.7"/>
	<path class="st1_team-presentation-6-18" d="M313.6,282.1c-0.1,0-0.1,0-0.2,0c-0.2-0.1-0.3-0.2-0.4-0.4l-20.5-37.4c-0.2-0.3-0.1-0.8,0.3-1c0,0,0,0,0,0&#10;&#9;&#9;l29.7-16.3c0.2-0.1,0.4-0.1,0.5-0.1c0.2,0.1,0.3,0.2,0.4,0.4l20.6,37.4c0.2,0.3,0.1,0.8-0.3,1c0,0,0,0,0,0L314,282&#10;&#9;&#9;C313.9,282.1,313.8,282.1,313.6,282.1L313.6,282.1z M294.1,244.2l19.9,36.2l28.5-15.6l-19.9-36.2L294.1,244.2L294.1,244.2z"/>
	<path class="st0_team-presentation-6-18" d="M405.4,132.1c3.1,3.2,3.6,5.8,4.7,9.9c1,3.8,2.5,7.5,4.4,11c3.7,7.1,8.3,13.8,11.2,21.4c1.1,2.5,1.6,5.3,1.6,8&#10;&#9;&#9;c-0.2,5-3.3,9.7-7.5,12.4c-4.4,2.6-9.4,3.7-14.5,3.2c-1.9-0.1-3.9-0.6-5.6-1.4c-1.9-1.2-3.6-2.9-4.7-4.9c-2.8-4.4-4.1-9.6-4.9-14.7&#10;&#9;&#9;c-0.8-4.4-1.4-8.9-4.8-12.2c-2.5-2.4-6.1-3.3-9.1-5.2c-4.8-3.1-7.7-8.4-7.9-14.1c-0.2-5.4,2.2-9.1,5-13.4c1.4-2.1,5.1-6.4,7.3-2.1&#10;&#9;&#9;c-0.9-1.8,3-4.7,4.3-5c2.4-0.7,6-0.2,8.4,0.3C397.9,126.4,402.1,128.8,405.4,132.1L405.4,132.1z"/>
	<path class="st1_team-presentation-6-18" d="M407.4,198.8c-0.7,0-1.5,0-2.2-0.1c-2-0.1-4-0.6-5.9-1.5c-2.1-1.2-3.8-3-4.9-5.1c-3-4.9-4.3-10.5-5-14.9&#10;&#9;&#9;l-0.1-0.4c-0.7-4.1-1.4-8.4-4.6-11.4c-1.6-1.4-3.4-2.5-5.3-3.2c-1.2-0.6-2.5-1.2-3.6-1.9c-5-3.2-8-8.7-8.2-14.6&#10;&#9;&#9;c-0.2-5.6,2.3-9.4,5.1-13.8c0.5-0.8,3-4.4,5.7-4.3c0.7,0,1.3,0.3,1.8,0.7c1.1-1.8,2.7-3.1,4.6-3.9c2.5-0.8,6.1-0.3,8.7,0.3&#10;&#9;&#9;c4.7,1,9.1,3.4,12.4,6.9l0,0c3,3.2,3.7,5.9,4.7,9.6l0.2,0.6c1,3.8,2.5,7.4,4.4,10.8c1.3,2.4,2.6,4.8,4,7.2&#10;&#9;&#9;c2.8,4.6,5.2,9.3,7.2,14.3c1.1,2.6,1.7,5.4,1.6,8.3c-0.4,5.3-3.3,10.1-7.8,12.9C416.3,197.7,411.9,198.9,407.4,198.8L407.4,198.8z&#10;&#9;&#9; M378.2,129c-1.4,0-3.3,1.9-4.4,3.6c-2.8,4.2-5.1,7.9-4.9,13.1c0.1,5.5,3,10.6,7.6,13.5c1.1,0.7,2.3,1.2,3.5,1.7&#10;&#9;&#9;c2.1,0.8,4,2,5.7,3.5c3.4,3.3,4.2,7.8,5,12.1l0.1,0.4c0.7,4.3,2,9.7,4.9,14.4c1.1,1.9,2.6,3.5,4.5,4.6c1.7,0.8,3.5,1.3,5.4,1.3&#10;&#9;&#9;c4.9,0.5,9.8-0.6,14.1-3.1c4.2-2.6,6.9-7,7.2-11.9c0-2.7-0.5-5.3-1.6-7.8c-2-4.9-4.4-9.6-7.1-14.1c-1.4-2.4-2.8-4.8-4-7.2&#10;&#9;&#9;c-1.9-3.5-3.4-7.2-4.5-11.1l-0.2-0.6c-0.9-3.7-1.5-6.1-4.4-9c-3.2-3.3-7.3-5.6-11.8-6.6c-2-0.4-5.7-1-8.1-0.3&#10;&#9;&#9;c-1.6,0.7-2.9,1.8-3.8,3.3c-0.2,0.2-0.2,0.6,0,0.8c0.1,0.3,0,0.7-0.3,0.8c-0.3,0.1-0.7,0-0.8-0.3l0,0c-0.5-1-1.1-1.4-1.7-1.5&#10;&#9;&#9;L378.2,129L378.2,129z"/>
	<path class="st3_team-presentation-6-18 targetColor" d="M426.6,246.2c-0.2,1.5-31.8,0.9-34,0.7c-5.8-0.4-17-0.6-21.6-4.8c-3.2-3,0-9.1,0.3-13.5&#10;&#9;&#9;c0.5-6.8-0.2-13.7-0.9-20.5c-0.9-8.8-0.5-17.6,1.1-26.3c1-5.6,2.2-9.6,6.3-12c6.5-3.6,16.1-5.4,23.6-6c3.6-0.3,18.9,7.6,22.3,14.8&#10;&#9;&#9;S426.6,245.1,426.6,246.2L426.6,246.2z" style="fill: rgb(104, 225, 253);"/>
	<path class="st1_team-presentation-6-18" d="M372.2,215.1c-0.3,0-0.6-0.2-0.7-0.5c-6.2-18.7,1.2-40.7,1.3-40.9c0.1-0.4,0.5-0.6,0.9-0.5&#10;&#9;&#9;c0.4,0.1,0.6,0.5,0.5,0.9c0,0,0,0,0,0.1c-0.1,0.2-7.4,21.8-1.3,40c0.1,0.4-0.1,0.8-0.4,0.9C372.4,215,372.3,215,372.2,215.1&#10;&#9;&#9;L372.2,215.1z"/>
	<path class="st1_team-presentation-6-18" d="M399.7,177.2c0,0-10,18.6-12.7,26.8s-8.5,21.8-8.5,21.8s-2.9-30,6.8-54.4L399.7,177.2z"/>
	<path class="st1_team-presentation-6-18" d="M378.6,226.5L378.6,226.5c-0.4,0-0.6-0.3-0.6-0.6c0-0.3-2.9-30.4,6.9-54.7c0.1-0.2,0.2-0.3,0.3-0.3&#10;&#9;&#9;c0.2-0.1,0.3-0.1,0.5,0l14.4,5.8c0.2,0.1,0.3,0.2,0.4,0.4c0.1,0.2,0.1,0.3,0,0.5c-0.1,0.2-10,18.7-12.6,26.7s-8.5,21.8-8.5,21.9&#10;&#9;&#9;C379.1,226.3,378.9,226.5,378.6,226.5L378.6,226.5z M385.7,172.2c-7.7,19.9-7.2,43.4-6.7,51c1.8-4.3,5.5-13.4,7.5-19.4&#10;&#9;&#9;c2.4-7.4,10.6-23,12.4-26.3L385.7,172.2L385.7,172.2z"/>
	<path class="st0_team-presentation-6-18" d="M383.6,167l2,10.6c0,0,2.4,8.1,7.5,6.2c4.4-1.6,7.9-5,9.6-9.4L401,153c-1.2-3.7-1.8-7.6-1.8-11.5&#10;&#9;&#9;c-3.5,0-7.1-0.7-10.2-2.3c-1.3-0.6-8.1-3.1-7.7-4.8c-1,4.4-2.1,8.9-5.1,12.2c-0.5,0.4-0.8,0.9-1.1,1.5c-0.1,0.4-0.2,0.9-0.1,1.3&#10;&#9;&#9;c0.1,4.5,0,9,1.1,13.4C377.5,168.7,383.6,167,383.6,167L383.6,167z"/>
	<path class="st1_team-presentation-6-18" d="M391.6,184.8c-0.7,0-1.4-0.2-2-0.5c-3.1-1.6-4.5-6.3-4.6-6.5l-1.9-10.1c-1.6,0.3-3.4,0.1-4.8-0.7&#10;&#9;&#9;c-1.5-0.9-2.5-2.3-2.8-4c-0.8-3.8-1.2-7.7-1.1-11.7v-1.9c0-0.5,0-1,0.2-1.5c0.2-0.6,0.6-1.1,1.1-1.6l0.2-0.2c3-3.2,4-7.9,4.9-11.9&#10;&#9;&#9;c0.1-0.3,0.4-0.5,0.8-0.5c0.3,0.1,0.5,0.4,0.5,0.7c0,0.2,0.3,1.2,6.4,3.7l0.9,0.4c3.1,1.5,6.5,2.2,9.9,2.2c0.2,0,0.3,0.1,0.5,0.2&#10;&#9;&#9;c0.1,0.1,0.2,0.3,0.2,0.4c0,3.5,0.5,7,1.5,10.4c0.1,0.4,0.2,0.7,0.3,1.1c0,0.2,1.8,21.5,1.8,21.5c0,0.1,0,0.2,0,0.3&#10;&#9;&#9;c-1.8,4.5-5.4,8-10,9.8c-0.6,0.2-1.1,0.3-1.7,0.3L391.6,184.8z M386.3,177.5c0,0,1.3,4.4,3.9,5.6c0.9,0.4,1.9,0.5,2.8,0.1&#10;&#9;&#9;c4.2-1.6,7.5-4.8,9.2-8.9c-1.2-14.2-1.8-21.4-1.8-21.4c-0.1-0.3-0.1-0.5-0.2-0.8c-1-3.3-1.5-6.7-1.5-10.1c-3.4-0.1-6.8-0.9-9.8-2.3&#10;&#9;&#9;l-0.9-0.4c-2.3-0.8-4.4-1.9-6.3-3.3c-0.9,3.7-2.1,7.9-4.9,10.9l-0.2,0.2c-0.3,0.3-0.6,0.7-0.8,1.1c-0.1,0.4-0.1,0.7-0.1,1.1v1.9&#10;&#9;&#9;c-0.1,3.8,0.2,7.6,1,11.4c0.3,1.3,1.1,2.5,2.2,3.2c1.4,0.7,3,0.8,4.5,0.4c0.2,0,0.4,0,0.5,0.1c0.2,0.1,0.3,0.2,0.3,0.4L386.3,177.5&#10;&#9;&#9;L386.3,177.5L386.3,177.5z"/>
	<path class="st1_team-presentation-6-18" d="M385,174.2c2.7-0.9,5.2-2.5,7.1-4.7c3.1-3.5,2.5-6.9,2.5-6.9s-5.3,3.9-11,4.3L385,174.2L385,174.2z"/>
	<path class="st1_team-presentation-6-18" d="M385,174.9c-0.3,0-0.5-0.2-0.6-0.5l-1.4-7.3c0-0.2,0-0.4,0.1-0.5c0.1-0.1,0.3-0.2,0.5-0.2&#10;&#9;&#9;c5.4-0.4,10.6-4.1,10.6-4.2c0.2-0.1,0.4-0.2,0.6-0.1c0.2,0.1,0.3,0.3,0.4,0.5c0,0.1,0.6,3.7-2.6,7.4c-2,2.2-4.6,3.9-7.4,4.9&#10;&#9;&#9;C385.1,174.8,385.1,174.9,385,174.9z M384.4,167.5l1.1,5.9c2.4-0.9,4.5-2.4,6.2-4.2c1.4-1.5,2.2-3.3,2.4-5.3&#10;&#9;&#9;C391.1,165.7,387.8,167,384.4,167.5L384.4,167.5z"/>
	<path class="st0_team-presentation-6-18" d="M385.2,145.2c0,0-3.7,6.1-2.7,7.1s3.6,0.2,3.6,0.2"/>
	<path class="st1_team-presentation-6-18" d="M384.1,153.5c-0.8,0.1-1.5-0.2-2.1-0.7c-1.1-1.1,0.8-4.9,2.6-7.9c0.2-0.3,0.6-0.4,0.9-0.2&#10;&#9;&#9;c0.3,0.2,0.3,0.5,0.2,0.8c-1.7,2.9-3,5.9-2.8,6.4c0.5,0.5,2.2,0.2,3,0c0.3-0.1,0.7,0.2,0.7,0.5c0.1,0.3-0.1,0.6-0.4,0.7&#10;&#9;&#9;C385.6,153.3,384.9,153.4,384.1,153.5L384.1,153.5z"/>
	<ellipse class="st1_team-presentation-6-18" cx="378.3" cy="150.1" rx="0.7" ry="1.3"/>
	
		<ellipse transform="matrix(1 -4.886902e-03 4.886902e-03 1 -0.7126 1.9089)" class="st1_team-presentation-6-18" cx="390.3" cy="146.8" rx="0.7" ry="1.3"/>
	<path class="st0_team-presentation-6-18" d="M396.5,146.8c0.7-2.2,3.5-3.1,5.6-2.8c1.4,0.2,2.6,1.2,3,2.6c0.2,0.8,0.3,1.7,0.1,2.6&#10;&#9;&#9;c-0.2,1.6-0.6,3.1-1.4,4.6c-0.3,0.7-0.8,1.4-1.5,1.9c-0.8,0.6-2,0.5-2.8-0.1"/>
	<path class="st1_team-presentation-6-18" d="M401.2,156.6c-0.6,0-1.3-0.2-1.8-0.6c-0.3-0.2-0.4-0.6-0.3-0.9c0.2-0.3,0.6-0.4,0.9-0.3c0,0,0.1,0,0.1,0.1&#10;&#9;&#9;c0.6,0.5,1.4,0.5,2.1,0.1c0.5-0.4,1-1,1.2-1.6c0.7-1.4,1.1-2.8,1.3-4.4c0.1-0.8,0.1-1.6-0.1-2.3c-0.3-1.1-1.3-2-2.5-2.1&#10;&#9;&#9;c-1.9-0.3-4.3,0.5-4.9,2.4c-0.1,0.3-0.5,0.5-0.8,0.4c-0.3-0.1-0.5-0.5-0.4-0.8c0,0,0,0,0,0c0.8-2.5,3.9-3.6,6.3-3.2&#10;&#9;&#9;c1.7,0.2,3.1,1.4,3.5,3c0.2,0.9,0.3,1.9,0.2,2.8c-0.2,1.7-0.7,3.3-1.4,4.8c-0.4,0.8-0.9,1.6-1.7,2.1&#10;&#9;&#9;C402.4,156.4,401.8,156.6,401.2,156.6L401.2,156.6z"/>
	<path class="st0_team-presentation-6-18" d="M342.1,211.8l2-1.1c1-0.5,1.2-2.1,0.5-3.4l-15.8-29.2c-0.7-1.4-2.1-2-3.1-1.5l-2,1.1c-1,0.5-1.2,2.1-0.5,3.4&#10;&#9;&#9;l15.8,29.2C339.7,211.6,341.1,212.3,342.1,211.8z"/>
	<path class="st1_team-presentation-6-18" d="M341.3,212.6c-1.3-0.1-2.4-0.8-3-2l-15.8-29.2c-0.5-0.9-0.6-1.9-0.4-2.9c0.2-0.6,0.6-1.1,1.2-1.5l2-1.1&#10;&#9;&#9;c1.4-0.7,3.1,0.1,4.1,1.8l15.8,29.2c0.5,0.9,0.6,1.9,0.4,2.9c-0.2,0.6-0.6,1.1-1.2,1.5l-2,1.1C342.1,212.6,341.7,212.7,341.3,212.6&#10;&#9;&#9;L341.3,212.6z M326.4,177.1c-0.1,0-0.3,0-0.4,0.1l-2,1.1c-0.2,0.1-0.4,0.4-0.5,0.6c-0.1,0.6,0,1.3,0.3,1.8l15.8,29.2&#10;&#9;&#9;c0.5,1,1.5,1.5,2.2,1.2l0,0l2-1.1c0.2-0.1,0.4-0.4,0.5-0.6c0.1-0.6,0.1-1.3-0.3-1.8l-15.8-29.2&#10;&#9;&#9;C327.9,177.7,327.2,177.2,326.4,177.1L326.4,177.1z"/>
	<polyline class="st1_team-presentation-6-18" points="325.2,182.2 309.7,153.6 312.7,152.1 &#9;"/>
	<path class="st1_team-presentation-6-18" d="M325.2,182.9c-0.3,0-0.5-0.1-0.6-0.4L309.1,154c-0.1-0.2-0.1-0.4,0-0.5c0.1-0.2,0.2-0.3,0.3-0.4l3-1.6&#10;&#9;&#9;c0.3-0.2,0.8-0.1,1,0.3c0.2,0.3,0.1,0.8-0.3,0.9l-2.4,1.3l15.2,28c0.2,0.3,0.1,0.8-0.2,1c0,0,0,0,0,0c-0.1,0.1-0.2,0.1-0.3,0.1&#10;&#9;&#9;L325.2,182.9z"/>
	
		<ellipse transform="matrix(0.8712 -0.4909 0.4909 0.8712 -40.4002 178.7414)" class="st1_team-presentation-6-18" cx="320.5" cy="166.4" rx="13.1" ry="16.3"/>
	<path class="st1_team-presentation-6-18" d="M323,182.6c-5.6,0-11.5-3.6-14.8-9.8l0,0c-2.4-4.2-3.1-9.3-1.8-14c0.9-3.2,3-5.9,5.9-7.5&#10;&#9;&#9;c6.7-3.6,15.8,0.2,20.3,8.4c2.4,4.2,3.1,9.3,1.8,14c-0.9,3.2-3,5.9-5.9,7.5C326.8,182.2,324.9,182.6,323,182.6L323,182.6z&#10;&#9;&#9; M309.5,172.2c4.1,7.6,12.4,11.1,18.4,7.8c2.6-1.4,4.5-3.8,5.2-6.6c1.2-4.4,0.6-9-1.7-12.9c-4.1-7.6-12.4-11.1-18.4-7.8&#10;&#9;&#9;c-2.6,1.4-4.5,3.8-5.2,6.6C306.6,163.6,307.2,168.3,309.5,172.2z"/>
	
		<ellipse transform="matrix(0.8712 -0.4909 0.4909 0.8712 -41.5715 177.4802)" class="st0_team-presentation-6-18" cx="317.5" cy="168" rx="13.1" ry="16.3"/>
	<path class="st1_team-presentation-6-18" d="M320,184.2c-5.6,0-11.5-3.6-14.8-9.8c-2.4-4.2-3.1-9.3-1.8-14c0.9-3.2,3-5.9,5.9-7.5&#10;&#9;&#9;c6.7-3.6,15.8,0.2,20.3,8.4c2.4,4.2,3.1,9.3,1.8,14c-0.9,3.2-3,5.9-5.9,7.5C323.8,183.8,321.9,184.2,320,184.2L320,184.2z&#10;&#9;&#9; M314.9,153.1c-1.7,0-3.4,0.4-4.9,1.2c-2.6,1.4-4.5,3.8-5.2,6.6c-1.2,4.4-0.6,9,1.7,12.9c4.1,7.6,12.4,11.1,18.4,7.8&#10;&#9;&#9;c2.6-1.4,4.5-3.8,5.2-6.6c1.2-4.4,0.6-9-1.7-12.9C325.4,156.5,320,153.1,314.9,153.1L314.9,153.1z"/>
	
		<ellipse transform="matrix(0.8712 -0.4909 0.4909 0.8712 -41.5715 177.4802)" class="st0_team-presentation-6-18" cx="317.5" cy="168" rx="9.1" ry="11.3"/>
	<path class="st1_team-presentation-6-18" d="M319.2,179.4c-3.9,0-8.1-2.6-10.4-6.9c-1.7-3-2.2-6.5-1.3-9.9c0.6-2.3,2.1-4.2,4.2-5.3&#10;&#9;&#9;c4.8-2.5,11.2,0.1,14.4,5.9c1.7,3,2.2,6.5,1.3,9.9c-0.6,2.3-2.1,4.2-4.2,5.3C322,179.1,320.6,179.5,319.2,179.4L319.2,179.4z&#10;&#9;&#9; M315.7,157.8c-1.1,0-2.3,0.3-3.3,0.8c-1.7,0.9-3,2.6-3.5,4.5c-0.8,3-0.4,6.1,1.1,8.8c2.8,5.1,8.4,7.5,12.5,5.4&#10;&#9;&#9;c1.7-0.9,3-2.6,3.5-4.5c0.8-3,0.4-6.1-1.1-8.8C322.8,160.2,319.1,157.8,315.7,157.8z"/>
	<path class="st0_team-presentation-6-18" d="M345,200.5l11.7,10.2l-10.8,8.9c-5.1-8.6-6-14.5-8.4-14.6c-3.4-0.2-7.6-0.8-8.6-3.9c-0.6-1.9-1.1-3.9-0.5-5.8&#10;&#9;&#9;c0.2-0.7,0.6-1.3,1.2-1.7c0.4-0.1,0.8-0.1,1.2-0.1c2.2,0.1,6.3,0.6,6.5,0.5c0.8-0.5,1.4-1,1.2-1.9&#10;&#9;&#9;C341.5,194.1,342.2,198.3,345,200.5L345,200.5z"/>
	<path class="st1_team-presentation-6-18" d="M345.9,220.3h-0.1c-0.2,0-0.4-0.2-0.5-0.3c-1.7-3-3.3-6.1-4.6-9.2c-1.3-2.9-2.2-5-3.2-5.1&#10;&#9;&#9;c-3.9-0.3-8.1-1-9.2-4.4c-0.7-2-1.2-4.2-0.5-6.2c0.2-0.9,0.8-1.7,1.7-2.1c0.5-0.1,1-0.2,1.4-0.1c1.1,0.1,2.5,0.2,3.8,0.3&#10;&#9;&#9;c1,0.1,2.1,0.2,2.5,0.2c0.7-0.4,0.8-0.7,0.7-1.1c-0.1-0.3,0.1-0.6,0.3-0.7c0.2-0.2,0.5-0.2,0.8,0c1.5,1.2,2.7,2.7,3.6,4.5&#10;&#9;&#9;c0.7,1.5,1.7,2.8,3,3.9l0,0l11.7,10.2c0.2,0.1,0.2,0.3,0.2,0.5c0,0.2-0.1,0.4-0.3,0.5l-10.8,8.9C346.2,220.2,346,220.3,345.9,220.3&#10;&#9;&#9;L345.9,220.3z M330.4,194.2c-0.1,0-0.3,0-0.4,0.1c-0.4,0.2-0.7,0.8-0.8,1.2c-0.6,1.6-0.1,3.5,0.5,5.3c0.9,2.6,4.7,3.2,8,3.4&#10;&#9;&#9;c1.8,0.1,2.8,2.3,4.4,5.9c1.2,2.9,2.6,5.7,4.2,8.4l9.5-7.8l-11-9.7c-1.4-1.2-2.5-2.7-3.3-4.3c-0.6-1.2-1.4-2.3-2.2-3.3&#10;&#9;&#9;c-0.3,0.5-0.8,0.9-1.3,1.2c-0.3,0.2-0.4,0.2-3.2-0.1c-1.2-0.1-2.6-0.3-3.7-0.3L330.4,194.2L330.4,194.2z"/>
	<path class="st3_team-presentation-6-18 targetColor" d="M402.5,188.2c-9.5,11.2-24.7,28.6-24.7,28.6l-30-16.9L334,211.4c0,0,29.9,32.8,46,29.8&#10;&#9;&#9;c16.7-7.1,31-18.9,41-34.1" style="fill: rgb(104, 225, 253);"/>
	<path class="st1_team-presentation-6-18" d="M377.8,242c-16.7,0-43.1-28.9-44.3-30.2c-0.1-0.1-0.2-0.3-0.2-0.5c0-0.2,0.1-0.4,0.2-0.5l13.7-11.5&#10;&#9;&#9;c0.2-0.2,0.5-0.2,0.8-0.1l29.5,16.6c2.4-2.7,15.8-18,24.3-28.1c0.3-0.3,0.7-0.3,1-0.1c0.3,0.3,0.3,0.7,0.1,1l0,0&#10;&#9;&#9;c-9.4,11.1-24.6,28.4-24.7,28.6c-0.2,0.2-0.6,0.3-0.9,0.1l-29.5-16.7l-12.8,10.7c3.9,4.2,30.4,31.8,44.8,29&#10;&#9;&#9;c0.1-0.1,24.7-9.3,40.5-33.8c0.2-0.3,0.6-0.4,1-0.2c0.3,0.2,0.4,0.6,0.2,1c-16.1,24.9-41.1,34.3-41.3,34.4&#10;&#9;&#9;C379.4,241.9,378.6,242,377.8,242L377.8,242z"/>
	<path class="st0_team-presentation-6-18" d="M381.4,157.1l5-1c0,0,1.1,8.3-1.6,7.6S381.4,157.1,381.4,157.1z"/>
	<path class="st1_team-presentation-6-18" d="M385.1,164.4c-0.2,0-0.3,0-0.5-0.1c-3.1-0.8-3.7-6.5-3.8-7.1c0-0.3,0.2-0.6,0.5-0.7l5-1c0.2,0,0.3,0,0.5,0.1&#10;&#9;&#9;c0.1,0.1,0.2,0.3,0.3,0.4c0.1,1.1,0.8,6.5-0.9,8C385.9,164.3,385.5,164.4,385.1,164.4L385.1,164.4z M382.1,157.6&#10;&#9;&#9;c0.2,1.8,1,5.1,2.8,5.5c0.1,0.1,0.3,0,0.4-0.1c0.8-0.7,0.8-3.9,0.5-6.2L382.1,157.6L382.1,157.6z"/>
	<path class="st0_team-presentation-6-18" d="M330.2,238.1c-2.3-0.3-4.6,0.4-6.4,1.9c-0.1,0.1-0.2,0.2-0.2,0.3c0,0.1,0,0.2,0,0.4c0.2,0.7,0.8,1.2,1.5,1.3&#10;&#9;&#9;c0.7,0.1,1.3,0.1,2-0.1l3.9-0.6c-0.2,0.6-0.1,1.2,0.3,1.7c0.4,0.5,0.8,0.9,1.4,1.2c0.8,0.4,1.6,0.8,2.4,1"/>
	<path class="st1_team-presentation-6-18" d="M335.1,245.9c-0.1,0-0.1,0-0.2,0c-0.9-0.2-1.8-0.6-2.6-1.1c-0.6-0.3-1.2-0.8-1.6-1.4c-0.3-0.4-0.4-0.8-0.5-1.3&#10;&#9;&#9;l-3,0.5c-0.8,0.2-1.5,0.2-2.3,0.1c-1-0.2-1.7-0.9-2-1.8c-0.1-0.3,0-0.5,0-0.8c0.1-0.2,0.3-0.4,0.5-0.6c1.9-1.6,4.4-2.3,6.9-2&#10;&#9;&#9;c0.4,0,0.7,0.4,0.6,0.8c0,0.4-0.4,0.7-0.8,0.6l0,0c-2.1-0.2-4.2,0.4-5.8,1.7c0.2,0.4,0.5,0.6,0.9,0.7c0.6,0.1,1.2,0.1,1.8-0.1&#10;&#9;&#9;l3.9-0.6c0.3,0,0.5,0,0.7,0.2c0.2,0.2,0.2,0.5,0.1,0.7c-0.1,0.4,0,0.8,0.2,1.1c0.3,0.4,0.7,0.8,1.2,1c0.7,0.4,1.5,0.7,2.3,0.9&#10;&#9;&#9;c0.4,0.1,0.6,0.5,0.5,0.9C335.7,245.7,335.4,246,335.1,245.9L335.1,245.9z"/>
	<path class="st1_team-presentation-6-18" d="M385.4,392.2c0,0,1.4,9.1,0.2,9.7s-38,3.1-36.9-1.7c0.6-2.6,9.3-8.2,20.9-13.3&#10;&#9;&#9;C373.2,392.9,382.7,391.7,385.4,392.2L385.4,392.2z"/>
	<path class="st1_team-presentation-6-18" d="M364.2,403.8c-8.6,0-13.8-0.7-15.4-2c-0.6-0.4-0.8-1.1-0.7-1.7c0.9-3.4,11.6-9.5,21.3-13.7&#10;&#9;&#9;c0.3-0.1,0.7,0,0.9,0.3c2.6,4.3,8.6,4.5,12.6,4.7c0.9,0,1.8,0.1,2.7,0.2c0.3,0.1,0.5,0.3,0.5,0.6c1.5,9.6,0.2,10.2-0.2,10.5&#10;&#9;&#9;c-0.9,0.4-9.9,1-17.4,1.2C367,403.8,365.6,403.8,364.2,403.8L364.2,403.8z M369.4,387.8c-11.9,5.2-19.4,10.5-20,12.5&#10;&#9;&#9;c0,0,0,0.1,0.1,0.3c3.2,3,33.1,1.2,35.7,0.6c0.4-0.8,0.1-4.9-0.4-8.5c-0.5-0.1-1.2-0.1-2-0.1C378.9,392.5,372.5,392.3,369.4,387.8&#10;&#9;&#9;L369.4,387.8z"/>
	<path class="st1_team-presentation-6-18" d="M421.5,393.6l1,10.5c3.8,2.6,36,7.7,33.1,3.5s-18-15.7-18-15.7C433,395.3,426.9,396,421.5,393.6L421.5,393.6z"/>
	<path class="st1_team-presentation-6-18" d="M451.2,409.9c-8.9,0-26.5-3.4-29.1-5.2c-0.2-0.1-0.3-0.3-0.3-0.5l-1-10.5c0-0.2,0.1-0.5,0.3-0.6&#10;&#9;&#9;c0.2-0.1,0.5-0.2,0.7-0.1c5,2.3,10.9,1.6,15.3-1.7c0.3-0.2,0.6-0.2,0.9,0c0.6,0.5,15.2,11.6,18.2,15.9c0.4,0.5,0.4,1.3-0.1,1.8&#10;&#9;&#9;C455.4,409.6,453.6,409.9,451.2,409.9L451.2,409.9z M423.2,403.7c4.7,2.6,30.4,6.1,31.9,4.3c-2.6-3.7-15-13.4-17.5-15.3&#10;&#9;&#9;c-4.5,3.1-10.2,3.8-15.3,2L423.2,403.7L423.2,403.7z"/>
</g>
</svg>