<svg version="1.1" id="Layer_1" xmlns="http://www.w3.org/2000/svg" xmlns:xlink="http://www.w3.org/1999/xlink" x="0px" y="0px" viewBox="0 0 500 500" style="width: 166px;" xml:space="preserve" data-imageid="social-media-carousel-97" imageName="Social Media Carousel" class="illustrations_image">
<style type="text/css">
	.st0_social-media-carousel-97{fill:#FFFFFF;}
	.st1_social-media-carousel-97{fill:#231F20;}
	.st2_social-media-carousel-97{fill:#D1D3D4;}
	.st3_social-media-carousel-97{fill:#68E1FD;}
</style>
<g id="Left_Hand_social-media-carousel-97">
	<path class="st0_social-media-carousel-97" d="M138.1,373l-60.9-33.4c14-21.4,15.1-33.7,17.4-50.6c7.7-54.4,61.6-89.1,103.5-117.7c3.5-2.5,7.2-4.8,11-6.9&#10;&#9;&#9;c4.4-2.4,16.8-9.8,20.1-3c3.1,6.6-4.6,18.5-8.5,23.3c2.6-3.8,5.4-7.4,8.4-10.8c1-1.3,2.3-2.2,3.8-2.7c2.8-0.6,5.5,2,6,4.9&#10;&#9;&#9;s-0.8,5.7-2.1,8.3c-3.1,6.2-7,11.9-11.6,17.1c3.1-3.5,14.5-16.6,14.2-3.3c-0.2,8.3-3.7,16.3-9.7,22.1c2.6-2.3,5.5-4.4,8.5-6.2&#10;&#9;&#9;c0.9-0.7,1.9-0.9,3-0.8c1.2,0.4,1.8,1.7,2,2.9c1.9,8.5-2.8,14.6-6,21.8c-2.5,5.6-4,11-7.2,16.4c-11.6,19.7-23.6,33.4-36.9,52&#10;&#9;&#9;C189.8,311.1,138.3,373.1,138.1,373z"/>
	<path class="st1_social-media-carousel-97" d="M138.1,373.7c-0.1,0-0.2,0-0.2-0.1l0,0l-61-33.4c-0.2-0.1-0.3-0.3-0.3-0.4c0-0.2,0-0.4,0.1-0.6&#10;&#9;&#9;c13.1-20,14.8-32.1,17-47.4L94,289c7.4-52.6,58.2-87.1,98.9-114.8l4.9-3.3c3.5-2.5,7.2-4.8,11-6.9l1-0.5c4.2-2.3,12-6.6,16.8-5&#10;&#9;&#9;c1.4,0.5,2.6,1.5,3.2,2.9c1.7,3.6,0.5,8.3-1.5,12.7l0.3-0.4c1-1.4,2.5-2.4,4.1-2.9c1.4-0.3,2.8,0,3.9,0.8c1.6,1.1,2.6,2.8,2.9,4.6&#10;&#9;&#9;c0.5,3-0.8,6-2.1,8.7c-1.6,3.1-3.4,6.1-5.3,9c2.1-1.6,4.1-2.4,5.6-1.9s2.4,2.7,2.4,6.3c-0.1,6.2-2,12.2-5.5,17.4&#10;&#9;&#9;c1.1-0.7,2.1-1.4,3.2-2.1c1-0.8,2.3-1.1,3.6-0.9c1.2,0.4,2.1,1.5,2.5,3.4c1.6,7-1.1,12.2-3.9,17.8c-0.7,1.4-1.5,2.9-2.1,4.4&#10;&#9;&#9;c-0.9,2-1.6,3.9-2.4,5.8c-1.3,3.7-2.9,7.2-4.8,10.6c-7.7,13.1-15.6,23.5-23.9,34.5c-4.2,5.5-8.5,11.2-13,17.5&#10;&#9;&#9;c-2.1,3-22.5,27.7-28.7,35.1c-6.7,8-13.2,15.9-18.1,21.8C139.6,372.5,138.6,373.7,138.1,373.7z M78.2,339.4l59.8,32.7&#10;&#9;&#9;c4.2-5,50.8-60.8,54.6-66.1c4.5-6.3,8.8-12,13-17.5c8.3-11,16.2-21.3,23.8-34.4c1.9-3.3,3.5-6.8,4.7-10.4c0.8-1.9,1.5-3.9,2.4-5.9&#10;&#9;&#9;c0.7-1.5,1.4-3,2.2-4.5c2.7-5.4,5.3-10.4,3.8-16.9c-0.2-1-0.6-2.1-1.6-2.4c-0.9-0.1-1.8,0.2-2.5,0.7c-3,1.8-5.8,3.8-8.4,6.1&#10;&#9;&#9;c-0.3,0.3-0.7,0.3-1,0c0,0,0,0,0,0c-0.3-0.3-0.3-0.7,0-1c0,0,0,0,0,0c5.9-5.6,9.3-13.4,9.5-21.6c0.1-2.9-0.4-4.6-1.5-5&#10;&#9;&#9;c-1.9-0.7-5.7,2.2-11.4,8.6l-0.1,0.1l0,0l0,0c-0.3,0.3-0.7,0.3-1,0.1c0,0,0,0,0,0c-0.3-0.2-0.3-0.7-0.1-1c0,0,0,0,0,0&#10;&#9;&#9;c4.5-5.2,8.4-10.9,11.5-17c1.3-2.5,2.4-5.2,2-7.8c-0.2-1.5-1.1-2.8-2.3-3.7c-0.8-0.6-1.8-0.8-2.8-0.6c-1.4,0.5-2.5,1.3-3.4,2.5&#10;&#9;&#9;c-1.8,2-3.5,4.1-5.1,6.2c-1.7,2.6-3.1,4.4-3.3,4.6c-0.2,0.3-0.7,0.4-1,0.1c0,0,0,0,0,0c-0.3-0.2-0.4-0.7-0.2-1c0,0,0,0,0,0&#10;&#9;&#9;c1.1-1.6,2.3-3.2,3.5-4.8c3.6-5.7,7.1-13.2,5-17.8c-0.4-1-1.3-1.8-2.4-2.1c-4.3-1.4-12,2.8-15.7,4.9l-1,0.6&#10;&#9;&#9;c-3.8,2.1-7.4,4.4-10.9,6.9l-4.9,3.3C153,202.7,102.6,237,95.3,289l-0.4,2.9C92.8,307.3,91.1,319.5,78.2,339.4z"/>
	<path class="st1_social-media-carousel-97" d="M152.7,408.5l8.7-52.5c0,0-80.9-31.9-82.2-32.6c-1-0.5-29.6,85.1-29.6,85.1H152.7z"/>
	<path class="st1_social-media-carousel-97" d="M152.7,409.1H49.6c-0.2,0-0.4-0.1-0.6-0.3c-0.1-0.2-0.2-0.4-0.1-0.6c28.3-84.9,29.5-85.4,30-85.6&#10;&#9;&#9;c0.2-0.1,0.4-0.1,0.6,0c1.3,0.7,54.3,21.6,82.2,32.6c0.3,0.1,0.5,0.4,0.4,0.8l-8.7,52.5C153.4,408.9,153.1,409.2,152.7,409.1z&#10;&#9;&#9; M50.5,407.8h101.6l8.5-51.4c-7.2-2.9-74.1-29.2-81.2-32.2C77,329.3,61.2,375.9,50.5,407.8z"/>
</g>
<g id="Smartphone_social-media-carousel-97">
	<path class="st1_social-media-carousel-97" d="M97.4,127.7l120.1-36.5c3.5-1.1,7.3,0.9,8.3,4.4L290.7,309c1.1,3.5-0.9,7.3-4.4,8.3l-120.1,36.5&#10;&#9;&#9;c-3.5,1.1-7.3-0.9-8.3-4.4L92.9,136C91.9,132.5,93.9,128.7,97.4,127.7z"/>
	<path class="st1_social-media-carousel-97" d="M165.9,354.2c-4.4,0-8.3-2.9-9.6-7.1L93,138.8c-1.6-5.3,1.3-10.9,6.6-12.5c0,0,0,0,0.1,0l115-34.9&#10;&#9;&#9;c5.3-1.7,10.9,1.3,12.5,6.5c0,0.1,0,0.1,0.1,0.2l63.3,208.3c1.6,5.3-1.3,10.9-6.6,12.5c0,0,0,0-0.1,0l0,0l-115,34.9&#10;&#9;&#9;C167.9,354,166.9,354.2,165.9,354.2z M217.7,92.2c-0.9,0-1.7,0.1-2.5,0.4l-115,34.9c-4.6,1.4-7.1,6.2-5.8,10.8l63.3,208.3&#10;&#9;&#9;c1.4,4.6,6.2,7.1,10.8,5.8l115-34.9c4.6-1.4,7.1-6.2,5.8-10.8L225.9,98.4C224.8,94.8,221.5,92.3,217.7,92.2z M283.7,318.1&#10;&#9;&#9;L283.7,318.1z"/>
	
		<rect x="128.1" y="123.6" transform="matrix(0.9568 -0.2907 0.2907 0.9568 -54.6704 64.6422)" class="st0_social-media-carousel-97" width="124.3" height="185.5"/>
	<path class="st1_social-media-carousel-97" d="M157.7,323.9c-0.1,0-0.2,0-0.3-0.1c-0.2-0.1-0.3-0.2-0.3-0.4l-53.9-177.5c-0.1-0.2,0-0.4,0.1-0.5&#10;&#9;&#9;c0.1-0.2,0.2-0.3,0.4-0.3l118.9-36.1c0.2-0.1,0.4,0,0.5,0.1c0.2,0.1,0.3,0.2,0.4,0.4l53.9,177.5c0.1,0.4-0.1,0.8-0.5,0.9&#10;&#9;&#9;c0,0,0,0,0,0l-118.9,36.1C157.9,323.8,157.8,323.9,157.7,323.9z M104.7,146.1l53.5,176.2l117.6-35.7l-53.6-176.2L104.7,146.1z"/>
	<path class="st2_social-media-carousel-97" d="M212.9,330.6c-2.3,0-4.3-1.5-5-3.7l-1.7-5.5c-0.8-2.7,0.7-5.6,3.5-6.5c0,0,0,0,0,0l21.7-6.6&#10;&#9;&#9;c1.3-0.4,2.8-0.3,4,0.4c1.2,0.6,2.1,1.8,2.5,3.1l1.7,5.5c0.8,2.7-0.7,5.6-3.4,6.5c0,0,0,0,0,0l-21.7,6.6&#10;&#9;&#9;C213.9,330.5,213.4,330.6,212.9,330.6z M232.9,309.5c-0.4,0-0.7,0.1-1.1,0.2l-21.7,6.6c-2,0.6-3.1,2.7-2.5,4.7l1.7,5.5&#10;&#9;&#9;c0.6,2,2.8,3.1,4.8,2.5l21.7-6.6l0,0c1-0.3,1.8-1,2.2-1.8c0.5-0.9,0.6-1.9,0.3-2.9l-1.7-5.5C236.1,310.6,234.6,309.5,232.9,309.5&#10;&#9;&#9;L232.9,309.5z"/>
	<path class="st2_social-media-carousel-97" d="M133.9,128.3c-0.3,0-0.6-0.2-0.7-0.5c-0.1-0.4,0.1-0.8,0.5-0.9l37.7-11.4c0.4-0.1,0.8,0.1,0.9,0.4&#10;&#9;&#9;s-0.1,0.8-0.4,0.9c0,0,0,0-0.1,0l-37.7,11.5C134,128.3,133.9,128.3,133.9,128.3z"/>
	<path class="st2_social-media-carousel-97" d="M176.8,115.2c-0.4,0-0.7-0.3-0.7-0.7c0-0.3,0.2-0.6,0.5-0.7l5-1.5c0.4-0.1,0.8,0.1,0.9,0.5&#10;&#9;&#9;c0.1,0.4-0.1,0.8-0.4,0.9c0,0,0,0,0,0l-5,1.5C177,115.2,176.9,115.2,176.8,115.2z"/>
	<circle class="st2_social-media-carousel-97" cx="128.1" cy="164.9" r="8.2"/>
	<path class="st2_social-media-carousel-97" d="M141.9,154.6c-0.4,0-0.7-0.3-0.7-0.7c0-0.3,0.2-0.6,0.5-0.7l75.5-22.9c0.4-0.1,0.8,0.1,0.8,0.5&#10;&#9;&#9;c0.1,0.4-0.1,0.7-0.4,0.8L142,154.5L141.9,154.6z"/>
	<path class="st2_social-media-carousel-97" d="M143.8,160.9c-0.3,0-0.6-0.2-0.7-0.5c-0.1-0.4,0.1-0.8,0.4-0.9c0,0,0,0,0,0l75.4-22.9c0.4-0.1,0.8,0.1,0.9,0.4&#10;&#9;&#9;c0,0,0,0,0,0c0.1,0.4-0.1,0.8-0.5,0.9L144,160.9L143.8,160.9z"/>
	<path class="st2_social-media-carousel-97" d="M145.7,167.2c-0.3,0-0.6-0.2-0.7-0.5c-0.1-0.4,0.1-0.8,0.5-0.9l68.4-20.8c0.4-0.1,0.8,0.1,0.9,0.5&#10;&#9;&#9;s-0.1,0.8-0.5,0.9l-68.4,20.8C145.8,167.2,145.8,167.2,145.7,167.2z"/>
	<path class="st2_social-media-carousel-97" d="M161.9,305.4c-0.4,0-0.7-0.3-0.7-0.7c0-0.3,0.2-0.6,0.5-0.7l101.1-30.7c0.4-0.1,0.8,0.1,0.9,0.4&#10;&#9;&#9;c0.1,0.4-0.1,0.8-0.4,0.9c0,0,0,0-0.1,0l-101,30.7C162,305.4,162,305.4,161.9,305.4z"/>
</g>
<g id="Carousel_social-media-carousel-97">
	
		<rect x="135" y="174.4" transform="matrix(0.9568 -0.2907 0.2907 0.9568 -55.2029 60.7245)" class="st3_social-media-carousel-97 targetColor" width="83.5" height="83.5" style="fill: rgb(104, 225, 253);"/>
	<path class="st1_social-media-carousel-97" d="M148.9,269c-0.3,0-0.6-0.2-0.7-0.5l-24.3-80c-0.1-0.4,0.1-0.8,0.5-0.9l79.9-24.3c0.4-0.1,0.8,0.1,0.9,0.5&#10;&#9;&#9;l24.3,79.9c0.1,0.4-0.1,0.8-0.4,0.9c0,0,0,0,0,0l-79.9,24.3L148.9,269z M125.5,188.8l23.9,78.6l78.6-23.9l-23.9-78.6L125.5,188.8z"/>
	
		<rect x="150.2" y="255.7" transform="matrix(0.9568 -0.2907 0.2907 0.9568 -69.1159 67.3176)" class="st0_social-media-carousel-97" width="83.5" height="21.2"/>
	<path class="st1_social-media-carousel-97" d="M155.1,289.3c-0.1,0-0.2,0-0.3-0.1c-0.2-0.1-0.3-0.2-0.3-0.4l-6.2-20.3c-0.1-0.4,0.1-0.8,0.5-0.9l79.9-24.3&#10;&#9;&#9;c0.4-0.1,0.8,0.1,0.9,0.5l6.2,20.3c0.1,0.2,0,0.4-0.1,0.5c-0.1,0.2-0.2,0.3-0.4,0.3l-79.9,24.3L155.1,289.3z M149.8,268.7l5.8,19&#10;&#9;&#9;l78.6-23.9l-5.8-19L149.8,268.7z"/>
	<path class="st2_social-media-carousel-97" d="M159.9,272.1c-0.3,0-0.6-0.2-0.7-0.5c-0.1-0.4,0.1-0.8,0.4-0.9c0,0,0,0,0,0l61.6-18.7c0.4-0.1,0.8,0.1,0.9,0.5&#10;&#9;&#9;c0.1,0.4-0.1,0.8-0.5,0.9L160.1,272C160.1,272.1,160,272.1,159.9,272.1z"/>
	<path class="st2_social-media-carousel-97" d="M162.1,279.2c-0.4,0-0.7-0.3-0.7-0.7c0-0.3,0.2-0.6,0.5-0.7l57.5-17.5c0.4-0.1,0.8,0.1,0.9,0.5c0,0,0,0,0,0&#10;&#9;&#9;c0.1,0.4-0.1,0.8-0.5,0.9l-57.5,17.5L162.1,279.2z"/>
	<path class="st0_social-media-carousel-97" d="M157.1,240.7c-0.3,0-0.6-0.2-0.7-0.5l-9.9-32.7c-0.1-0.2,0-0.4,0.1-0.5c0.1-0.2,0.2-0.3,0.4-0.3l49.2-14.9&#10;&#9;&#9;c0.2-0.1,0.4,0,0.5,0.1c0.2,0.1,0.3,0.2,0.3,0.4l9.9,32.7c0.1,0.2,0,0.4-0.1,0.5c-0.1,0.2-0.2,0.3-0.4,0.4l-49.2,14.9&#10;&#9;&#9;C157.3,240.7,157.2,240.7,157.1,240.7z M148.1,207.8l9.5,31.3l47.9-14.5l-9.5-31.3L148.1,207.8z"/>
	<path class="st0_social-media-carousel-97" d="M157.1,240.7c-0.1,0-0.2,0-0.3-0.1c-0.3-0.2-0.5-0.6-0.3-0.9c0,0,0-0.1,0-0.1l12.5-23.5&#10;&#9;&#9;c0.1-0.2,0.2-0.3,0.4-0.3c0.2-0.1,0.4,0,0.5,0.1l23.5,12.6c0.3,0.2,0.5,0.6,0.3,0.9c-0.2,0.3-0.6,0.5-0.9,0.3l-22.9-12.2&#10;&#9;&#9;l-12.2,22.9C157.6,240.5,157.4,240.7,157.1,240.7z"/>
	<path class="st0_social-media-carousel-97" d="M187,226.4c-0.1,0-0.2,0-0.4-0.1c-0.3-0.2-0.5-0.6-0.3-0.9c0,0,0,0,0-0.1l6-10.6c0.2-0.3,0.6-0.4,0.9-0.3&#10;&#9;&#9;l11.9,5.1c0.4,0.2,0.5,0.6,0.4,0.9s-0.6,0.5-0.9,0.4l0,0l-11.4-4.9l-5.7,10C187.5,226.3,187.3,226.4,187,226.4z"/>
	<path class="st0_social-media-carousel-97" d="M182.6,214.5c-2.8,0-5.1-2.3-5.1-5.1c0-2.8,2.3-5.1,5.1-5.1c2.2,0,4.2,1.5,4.9,3.6l0,0&#10;&#9;&#9;c0.8,2.7-0.7,5.5-3.4,6.3C183.6,214.4,183.1,214.5,182.6,214.5z M182.6,205.8c-0.4,0-0.7,0.1-1.1,0.2c-1.9,0.6-3.1,2.6-2.5,4.6&#10;&#9;&#9;s2.6,3.1,4.6,2.5s3.1-2.6,2.5-4.6c0,0,0,0,0,0l0,0c-0.3-0.9-0.9-1.7-1.8-2.2C183.8,205.9,183.2,205.8,182.6,205.8L182.6,205.8z"/>
	
		<rect x="220.1" y="148.5" transform="matrix(0.9568 -0.2907 0.2907 0.9568 -44.0147 84.3337)" class="st3_social-media-carousel-97 targetColor" width="83.5" height="83.5" style="fill: rgb(104, 225, 253);"/>
	<path class="st1_social-media-carousel-97" d="M234,243.1c-0.1,0-0.2,0-0.3-0.1c-0.2-0.1-0.3-0.2-0.3-0.4l-24.3-79.9c-0.1-0.4,0.1-0.8,0.5-0.9l79.9-24.3&#10;&#9;&#9;c0.2-0.1,0.4,0,0.5,0.1c0.2,0.1,0.3,0.2,0.3,0.4l24.3,80c0.1,0.4-0.1,0.8-0.5,0.9l-79.9,24.2C234.1,243.1,234.1,243.1,234,243.1z&#10;&#9;&#9; M210.6,163l23.9,78.6l78.6-23.9l-23.9-78.6L210.6,163z"/>
	
		<rect x="235.3" y="229.8" transform="matrix(0.9568 -0.2907 0.2907 0.9568 -57.9289 90.9242)" class="st0_social-media-carousel-97" width="83.5" height="21.2"/>
	<path class="st1_social-media-carousel-97" d="M240.2,263.5c-0.1,0-0.2,0-0.3-0.1c-0.2-0.1-0.3-0.2-0.3-0.4l-6.2-20.3c-0.1-0.4,0.1-0.8,0.5-0.9l79.9-24.3&#10;&#9;&#9;c0.4-0.1,0.8,0.1,0.9,0.5l6.2,20.3c0.1,0.2,0.1,0.4,0,0.5c-0.1,0.2-0.2,0.3-0.4,0.3l-79.9,24.3&#10;&#9;&#9;C240.3,263.4,240.3,263.5,240.2,263.5z M234.9,242.9l5.8,19l78.6-23.9l-5.8-19L234.9,242.9z"/>
	<path class="st2_social-media-carousel-97" d="M245,246.3c-0.4,0-0.7-0.3-0.7-0.7c0-0.3,0.2-0.6,0.5-0.7l61.6-18.7c0.4-0.1,0.8,0.1,0.9,0.4c0,0,0,0,0,0&#10;&#9;&#9;c0.1,0.4-0.1,0.8-0.5,0.9l-61.6,18.7L245,246.3z"/>
	<path class="st2_social-media-carousel-97" d="M247.1,253.4c-0.3,0-0.6-0.2-0.7-0.5c-0.1-0.4,0.1-0.8,0.5-0.9l49.6-15c0.4-0.1,0.8,0.1,0.9,0.4c0,0,0,0,0,0&#10;&#9;&#9;c0.1,0.4-0.1,0.8-0.5,0.9l-49.6,15.1C247.3,253.4,247.2,253.4,247.1,253.4z"/>
	<path class="st0_social-media-carousel-97" d="M242.2,214.8c-0.1,0-0.2,0-0.3-0.1c-0.2-0.1-0.3-0.2-0.3-0.4l-9.9-32.7c-0.1-0.2-0.1-0.4,0-0.5&#10;&#9;&#9;c0.1-0.2,0.2-0.3,0.4-0.3l49.2-14.9c0.4-0.1,0.8,0.1,0.9,0.4c0,0,0,0,0,0l10,32.7c0.1,0.2,0,0.4,0,0.5c-0.1,0.2-0.2,0.3-0.4,0.3&#10;&#9;&#9;l-49.2,14.9C242.3,214.8,242.2,214.8,242.2,214.8z M233.1,181.9l9.5,31.3l47.9-14.5l-9.5-31.3L233.1,181.9z"/>
	<path class="st0_social-media-carousel-97" d="M242.2,214.8c-0.1,0-0.2,0-0.3-0.1c-0.3-0.2-0.5-0.6-0.3-0.9c0,0,0,0,0,0l12.5-23.5c0.1-0.2,0.2-0.3,0.4-0.3&#10;&#9;&#9;c0.2,0,0.4,0,0.5,0.1l23.5,12.6c0.3,0.2,0.5,0.6,0.3,0.9c0,0,0,0,0,0c-0.2,0.4-0.6,0.5-1,0.3c0,0,0,0,0,0L255,191.6l-12.2,22.9&#10;&#9;&#9;C242.7,214.7,242.4,214.8,242.2,214.8z"/>
	<path class="st0_social-media-carousel-97" d="M272,200.6c-0.1,0-0.2,0-0.3-0.1c-0.3-0.2-0.5-0.6-0.3-0.9l6-10.6c0.2-0.3,0.6-0.4,0.9-0.3l12,5.1&#10;&#9;&#9;c0.4,0.2,0.5,0.6,0.4,0.9c-0.2,0.4-0.6,0.5-0.9,0.4l-11.4-4.9l-5.7,10C272.5,200.5,272.3,200.6,272,200.6z"/>
	<path class="st0_social-media-carousel-97" d="M267.6,188.7c-2.8,0-5.1-2.3-5.1-5.1s2.3-5.1,5.1-5.1c2.2,0,4.2,1.5,4.8,3.6l0,0c0.8,2.7-0.7,5.5-3.4,6.3&#10;&#9;&#9;C268.6,188.6,268.1,188.7,267.6,188.7z M267.6,179.9c-2,0-3.7,1.6-3.7,3.7c0,2,1.6,3.7,3.7,3.7s3.7-1.6,3.7-3.7&#10;&#9;&#9;c0-0.4-0.1-0.7-0.2-1.1l0,0C270.7,181,269.3,179.9,267.6,179.9L267.6,179.9z"/>
	
		<rect x="305.1" y="122.7" transform="matrix(0.9568 -0.2907 0.2907 0.9568 -32.8333 107.9419)" class="st3_social-media-carousel-97 targetColor" width="83.5" height="83.5" style="fill: rgb(104, 225, 253);"/>
	<path class="st1_social-media-carousel-97" d="M319.1,217.3c-0.1,0-0.2,0-0.3-0.1c-0.2-0.1-0.3-0.2-0.3-0.4l-24.3-79.9c-0.1-0.4,0.1-0.8,0.4-0.9c0,0,0,0,0,0&#10;&#9;&#9;l79.9-24.3c0.2-0.1,0.4-0.1,0.5,0c0.2,0.1,0.3,0.2,0.3,0.4l24.3,79.9c0.1,0.4-0.1,0.8-0.5,0.9l-79.9,24.3L319.1,217.3z&#10;&#9;&#9; M295.6,137.1l23.9,78.6l78.6-23.9l-23.9-78.6L295.6,137.1z"/>
	
		<rect x="320.3" y="204" transform="matrix(0.9568 -0.2907 0.2907 0.9568 -46.7436 114.5338)" class="st0_social-media-carousel-97" width="83.5" height="21.2"/>
	<path class="st1_social-media-carousel-97" d="M325.2,237.6c-0.3,0-0.6-0.2-0.7-0.5l-6.2-20.3c-0.1-0.4,0.1-0.8,0.4-0.9c0,0,0,0,0,0l79.9-24.3&#10;&#9;&#9;c0.4-0.1,0.8,0.1,0.9,0.5l6.2,20.3c0,0.2,0,0.4,0,0.5c-0.1,0.2-0.2,0.3-0.4,0.3l-79.9,24.3L325.2,237.6z M319.9,217.1l5.8,19&#10;&#9;&#9;l78.6-23.9l-5.8-19L319.9,217.1z"/>
	<path class="st2_social-media-carousel-97" d="M330,220.4c-0.3,0-0.6-0.2-0.7-0.5c-0.1-0.4,0.1-0.8,0.5-0.9l61.6-18.7c0.4-0.1,0.8,0.1,0.9,0.4&#10;&#9;&#9;c0.1,0.4-0.1,0.8-0.4,0.9c0,0,0,0-0.1,0l-61.6,18.7C330.1,220.4,330.1,220.4,330,220.4z"/>
	<path class="st2_social-media-carousel-97" d="M332.2,227.5c-0.4,0-0.7-0.3-0.7-0.7c0-0.3,0.2-0.6,0.5-0.7l45-13.7c0.4-0.1,0.7,0.1,0.9,0.4c0,0,0,0,0,0&#10;&#9;&#9;c0.1,0.4-0.1,0.8-0.5,0.9c0,0,0,0,0,0l-45,13.7C332.3,227.5,332.2,227.5,332.2,227.5z"/>
	<path class="st0_social-media-carousel-97" d="M327.2,189c-0.3,0-0.6-0.2-0.7-0.5l-9.9-32.7c-0.1-0.2,0-0.4,0-0.5c0.1-0.2,0.2-0.3,0.4-0.3l49.2-15&#10;&#9;&#9;c0.4-0.1,0.8,0.1,0.9,0.5l9.9,32.7c0,0.2,0,0.4,0,0.5c-0.1,0.2-0.2,0.3-0.4,0.3l-49.2,15H327.2z M318.2,156.1l9.5,31.3l47.9-14.5&#10;&#9;&#9;l-9.5-31.3L318.2,156.1z"/>
	<path class="st0_social-media-carousel-97" d="M327.2,189c-0.1,0-0.2,0-0.3-0.1c-0.3-0.2-0.5-0.6-0.3-0.9l12.5-23.5c0.1-0.2,0.2-0.3,0.4-0.3&#10;&#9;&#9;c0.2-0.1,0.4-0.1,0.5,0l23.5,12.6c0.4,0.2,0.5,0.6,0.4,0.9c-0.2,0.4-0.6,0.5-0.9,0.4c0,0-0.1,0-0.1-0.1L340,165.7l-12.2,22.9&#10;&#9;&#9;C327.7,188.8,327.5,189,327.2,189z"/>
	<path class="st0_social-media-carousel-97" d="M357.1,174.8c-0.1,0-0.2,0-0.4-0.1c-0.3-0.2-0.4-0.6-0.3-0.9l6-10.6c0.2-0.3,0.6-0.4,0.9-0.3l12,5.1&#10;&#9;&#9;c0.4,0.2,0.5,0.6,0.4,0.9c0,0,0,0,0,0c-0.2,0.4-0.6,0.5-0.9,0.4l-11.4-4.9l-5.7,10C357.6,174.6,357.3,174.8,357.1,174.8z"/>
	<path class="st0_social-media-carousel-97" d="M352.7,162.8c-2.8,0-5.1-2.3-5.1-5.1c0-2.8,2.3-5.1,5.1-5.1c2.2,0,4.2,1.5,4.9,3.6l0,0&#10;&#9;&#9;c0.8,2.7-0.7,5.5-3.4,6.3C353.7,162.7,353.2,162.8,352.7,162.8z M352.7,154.1c-0.4,0-0.7,0.1-1.1,0.2c-1.9,0.6-3,2.6-2.5,4.6&#10;&#9;&#9;c0.7,1.9,2.9,2.8,4.8,2.1c1.7-0.7,2.6-2.4,2.2-4.2l0,0C355.7,155.1,354.3,154.1,352.7,154.1L352.7,154.1z"/>
</g>
<g id="Right_Hand_social-media-carousel-97">
	<path class="st0_social-media-carousel-97" d="M421.3,333.5c0,0-32.3-79.8-53.9-108.5c-3-3.9-7-4.8-10-3.1c-3.5,2.1-4.2,9.6-4.2,9.6s-8.6-5.7-12.9-4.9&#10;&#9;&#9;S335,234,335,234s-9.3-3.7-13.4-0.6s-4.6,9.1-4.6,9.1s-47.5-43-52.8-46.7s-15.6,1.6-11.2,8.9c2.8,4.6,26.4,31.1,34.1,39.5&#10;&#9;&#9;s25.3,31.1,27,37.5s3,13.7-10,13.8s-24.8,1.5-30.8,5.9s-10.2,11.3-7.5,12.9s44.4,3.1,61.4,11.2s37.4,36.5,37.4,36.5L421.3,333.5z"/>
	<path class="st1_social-media-carousel-97" d="M364.6,362.8c-0.2,0-0.4-0.1-0.6-0.3c-0.2-0.3-20.5-28.3-37.1-36.3c-11.6-5.6-35.1-8-49.2-9.5&#10;&#9;&#9;c-7.6-0.8-11.3-1.2-12.2-1.8c-0.7-0.4-1.2-1.2-1.2-2.1c-0.2-3,3.7-8.4,8.6-12c5.5-4,16-6,31.2-6c4.7,0,7.8-1,9.2-2.9&#10;&#9;&#9;c1.9-2.5,1.1-6.3,0.1-10c-1.6-6.2-18.9-28.5-26.9-37.2c-8.1-9-31.4-35-34.1-39.6c-1.9-3.1-1.5-6.3,1-8.7s7.7-3.6,11.2-1.2&#10;&#9;&#9;c4.9,3.4,44.9,39.6,51.9,45.9c0.4-2,1.6-5.9,4.7-8.3c3.7-2.8,10.9-0.6,13.3,0.3c0.4-1.9,1.8-6.5,5.7-7.1s10.1,2.9,12.5,4.4&#10;&#9;&#9;c0.3-2.3,1.4-7.3,4.4-9.1c3.5-2,7.9-0.7,10.9,3.3c21.5,28.5,53.7,107.9,54,108.7c0.1,0.3,0,0.7-0.3,0.9L365,362.7&#10;&#9;&#9;C364.9,362.8,364.8,362.8,364.6,362.8z M260.1,195.3c-2.1,0-4.1,0.8-5.7,2.2c-1.2,1.1-2.9,3.5-0.8,6.9c2.7,4.5,26.2,30.8,34,39.4&#10;&#9;&#9;c7.2,7.9,25.3,31,27.2,37.8c1.1,4,1.9,8.2-0.3,11.2c-1.8,2.3-5.2,3.4-10.4,3.5c-14.9,0-25.1,2-30.4,5.8c-4.9,3.5-8.2,8.5-8,10.8&#10;&#9;&#9;c0,0.4,0.2,0.8,0.5,1c0.7,0.4,6,1,11.7,1.6c14.2,1.5,37.9,4,49.7,9.6c15.9,7.7,34.5,32.3,37.3,36.2l55.6-28&#10;&#9;&#9;c-3-7.4-33.2-80.8-53.6-107.8c-2.6-3.4-6.2-4.6-9.1-2.9c-2.6,1.5-3.7,7.1-3.8,9.1c0,0.4-0.4,0.7-0.8,0.6c-0.1,0-0.2,0-0.3-0.1&#10;&#9;&#9;c-0.1-0.1-8.4-5.5-12.4-4.8c-3.8,0.7-4.7,6.7-4.7,6.8c0,0.2-0.2,0.4-0.3,0.5c-0.2,0.1-0.4,0.1-0.6,0c-0.1,0-9-3.5-12.8-0.7&#10;&#9;&#9;s-4.3,8.6-4.4,8.6c0,0.4-0.4,0.7-0.8,0.6c-0.2,0-0.3-0.1-0.4-0.2c-0.5-0.4-47.5-43-52.7-46.6C262.7,195.7,261.4,195.3,260.1,195.3z&#10;&#9;&#9;"/>
	<path class="st1_social-media-carousel-97" d="M450.4,408.5c-7.2-22-29.3-92.8-30.4-92.3c-1.2,0.6-70.3,33.2-70.3,33.2l4.2,59.1H450.4z"/>
	<path class="st1_social-media-carousel-97" d="M450.4,409.1h-96.5c-0.4,0-0.7-0.3-0.7-0.6l-4.2-59.1c0-0.3,0.1-0.6,0.4-0.7c2.8-1.3,69-32.7,70.3-33.2&#10;&#9;&#9;c0.2-0.1,0.4-0.1,0.6,0c1,0.4,4.1,9.4,21.6,64.3c3.8,11.8,7,22,9.1,28.4c0.1,0.2,0,0.4-0.1,0.6C450.9,409,450.7,409.2,450.4,409.1z&#10;&#9;&#9; M354.6,407.8h94.9c-2.1-6.4-5.2-16.2-8.8-27.5c-8-25-18.8-58.9-20.9-63.2c-6.2,2.9-63.7,30.1-69.3,32.8L354.6,407.8z"/>
</g>
<g id="Button_social-media-carousel-97">
	<path class="st0_social-media-carousel-97" d="M89.7,314.5c0,0,12.5-94.2,23.3-104.3c12.9-12,24.6-20.1,26.7-13.3s4.1,18.3-13.4,31.1l2.6,22.9&#10;&#9;&#9;c0,0,17.3,11.9,8.3,49.6"/>
	<path class="st1_social-media-carousel-97" d="M89.7,315.1L89.7,315.1c-0.4,0-0.7-0.4-0.6-0.7c0,0,0,0,0,0c0.5-3.9,12.7-94.5,23.5-104.7&#10;&#9;&#9;c12.4-11.6,20.9-16.9,25-15.8c1.3,0.4,2.4,1.4,2.7,2.8c4.9,15.6-4.5,25.1-13.4,31.6l2.5,22.2c2.2,1.7,16.8,14.4,8.3,50.1&#10;&#9;&#9;c-0.1,0.3-0.4,0.6-0.7,0.5s-0.6-0.4-0.5-0.7c0,0,0-0.1,0-0.1c8.8-36.9-7.9-48.8-8-49c-0.2-0.1-0.2-0.3-0.3-0.4l-2.6-22.9&#10;&#9;&#9;c0-0.2,0.1-0.5,0.3-0.6c16.4-12,15.6-22.6,13.2-30.4c-0.2-0.9-0.9-1.7-1.8-1.9c-3.6-1-12.1,4.6-23.8,15.5&#10;&#9;&#9;c-10.5,9.8-23,103-23.2,103.9C90.3,314.9,90,315.1,89.7,315.1z"/>
</g>
</svg>